<svg xmlns="http://www.w3.org/2000/svg" width="54" height="54" viewBox="0 0 54 54">
  <g id="Group_274" data-name="Group 274" transform="translate(-335 -225)">
    <circle id="Ellipse_4" data-name="Ellipse 4" cx="27" cy="27" r="27" transform="translate(335 225)" fill="#387afc" opacity="0.1"/>
    <g id="user_6_" data-name="user (6)" transform="translate(345.948 236)">
      <path id="Path_814" data-name="Path 814" d="M15.936,24.034a2.97,2.97,0,0,1,4.2,0l.772.772,2.951-2.951a2.907,2.907,0,0,1,2.089-.871,6.1,6.1,0,0,0-2.832-5.13l-.871-.555a9.245,9.245,0,0,1-13.488,0l-.871.555a6.105,6.105,0,0,0-2.832,5.159v5.744a2.99,2.99,0,0,0,2.991,2.971h9.378l-1.485-1.5a2.971,2.971,0,0,1,0-4.2Z" fill="#387afc"/>
      <ellipse id="Ellipse_23" data-name="Ellipse 23" cx="7.188" cy="7.12" rx="7.188" ry="7.12" transform="translate(8.312 2)" fill="#387afc"/>
      <path id="Path_815" data-name="Path 815" d="M26.657,23.26a.99.99,0,0,0-1.4,0l-4.349,4.349-2.173-2.173a.99.99,0,0,0-1.4,1.4l2.873,2.873a.99.99,0,0,0,1.4,0l5.05-5.05a.99.99,0,0,0,0-1.4Z" fill="#387afc"/>
    </g>
  </g>
</svg>
