<svg xmlns="http://www.w3.org/2000/svg" width="54" height="54" viewBox="0 0 54 54">
  <g id="Group_277" data-name="Group 277" transform="translate(-335 -320)">
    <circle id="Ellipse_15" data-name="Ellipse 15" cx="27" cy="27" r="27" transform="translate(335 320)" fill="#e17f47" opacity="0.1"/>
    <g id="expenses" transform="translate(346.174 332.165)">
      <path id="Path_805" data-name="Path 805" d="M20.156,33.126c0-.781,0-3.16,2.257-3.16h4.515V27.257A2.26,2.26,0,0,0,24.671,25H5.257A2.26,2.26,0,0,0,3,27.257V39a2.26,2.26,0,0,0,2.257,2.257H24.671A2.26,2.26,0,0,0,26.928,39V36.287H22.413C20.156,36.287,20.156,33.908,20.156,33.126Z" transform="translate(0 -12.611)" fill="#e17f47"/>
      <path id="Path_806" data-name="Path 806" d="M31.067,18.064V15.327a1.308,1.308,0,0,0-.651-1.131,1.367,1.367,0,0,0-1.364-.024l-7.806,3.893Z" transform="translate(-10.008 -6.578)" fill="#e17f47"/>
      <circle id="Ellipse_22" data-name="Ellipse 22" cx="0.903" cy="0.903" r="0.903" transform="translate(22.865 19.612)" fill="#e17f47"/>
      <path id="Path_807" data-name="Path 807" d="M21.745,10.343V8.421a1.4,1.4,0,0,0-.818-1.3,1.281,1.281,0,0,0-1.406.214l-7.863,6.889h2.305Z" transform="translate(-4.75 -2.737)" fill="#e17f47"/>
      <path id="Path_808" data-name="Path 808" d="M49.772,38H44.354C43.541,38,43,38.384,43,40.257s.541,2.257,1.354,2.257h5.418a1.356,1.356,0,0,0,1.354-1.354V39.354A1.356,1.356,0,0,0,49.772,38Zm-4.063,4.063a1.806,1.806,0,1,1,1.806-1.806A1.808,1.808,0,0,1,45.709,42.063Z" transform="translate(-21.941 -19.742)" fill="#e17f47"/>
      <path id="Path_809" data-name="Path 809" d="M54.769,5.074,52.693,2.28a.673.673,0,0,0-1.081,0L49.548,5.06a.326.326,0,0,0,.23.556H50.8a3.256,3.256,0,0,1-1.516,3.442L49,9.228l1.806,1.354.079-.053a5.906,5.906,0,0,0,2.629-4.913h1.03A.318.318,0,0,0,54.769,5.074Z" transform="translate(-25.232)" fill="#e17f47"/>
    </g>
  </g>
</svg>
