<svg xmlns="http://www.w3.org/2000/svg" width="54" height="54" viewBox="0 0 54 54">
  <g id="Group_280" data-name="Group 280" transform="translate(-335 -415)">
    <circle id="Ellipse_21" data-name="Ellipse 21" cx="27" cy="27" r="27" transform="translate(335 415)" fill="#e9ae1a" opacity="0.1"/>
    <path id="favorite" d="M27,20.849a1.952,1.952,0,0,0-1.709-1.211l-6.961-1.012L15.215,12.32a1.953,1.953,0,0,0-1.68-1.252,1.952,1.952,0,0,0-1.68,1.252L8.743,18.627,1.782,19.639A1.952,1.952,0,0,0,.073,20.849a1.953,1.953,0,0,0,.671,1.984l5.037,4.91L4.592,34.676a2.057,2.057,0,0,0,.36,1.754,1.541,1.541,0,0,0,1.2.539A2.5,2.5,0,0,0,7.31,36.65l6.226-3.273,6.226,3.273a2.5,2.5,0,0,0,1.155.318h0a1.541,1.541,0,0,0,1.2-.539,2.057,2.057,0,0,0,.359-1.754L21.29,27.743l5.037-4.91A1.952,1.952,0,0,0,27,20.849Z" transform="translate(348 417.932)" fill="#e9ae1a"/>
  </g>
</svg>
