<svg xmlns="http://www.w3.org/2000/svg" width="54" height="54" viewBox="0 0 54 54">
  <g id="Group_278" data-name="Group 278" transform="translate(-682 -320)">
    <circle id="Ellipse_11" data-name="Ellipse 11" cx="27" cy="27" r="27" transform="translate(682 320)" fill="#7a81e1" opacity="0.1"/>
    <path id="task-list" d="M25.311,6.356H4.529V25.5A2.491,2.491,0,0,0,7.02,27.989h15.8A2.491,2.491,0,0,0,25.311,25.5Zm-14.8,17.918,2.169-2.169a.68.68,0,0,0-.961-.961l-1.689,1.689-.8-.8a.679.679,0,0,0-.96.961l1.284,1.284a.68.68,0,0,0,.868.078l.026-.019.022-.018.023-.02Zm4.405-.886h6.341a.679.679,0,1,0,0-1.359H14.92a.679.679,0,1,0,0,1.359Zm-4.405-5,2.169-2.17a.679.679,0,0,0-.961-.96l-1.689,1.689-.8-.8a.679.679,0,0,0-.96.961L9.554,18.39a.679.679,0,0,0,.9.052l.024-.019L10.5,18.4ZM14.92,17.5h6.341a.679.679,0,1,0,0-1.359H14.92a.679.679,0,1,0,0,1.359Zm-4.405-5,2.169-2.17a.679.679,0,0,0-.961-.96l-1.689,1.689-.8-.8a.679.679,0,1,0-.96.96l1.284,1.284a.682.682,0,0,0,.9.057l.02-.016.023-.02Zm4.405-.886h6.341a.679.679,0,1,0,0-1.359H14.92a.679.679,0,1,0,0,1.359ZM4.529,5H25.311V3.741A2.491,2.491,0,0,0,22.82,1.25H7.02A2.491,2.491,0,0,0,4.529,3.741Z" transform="translate(694.5 332.501)" fill="#7a81e1" fill-rule="evenodd"/>
  </g>
</svg>
