<svg xmlns="http://www.w3.org/2000/svg" width="54" height="54" viewBox="0 0 54 54">
  <g id="Group_279" data-name="Group 279" transform="translate(-1029 -320)">
    <circle id="Ellipse_10" data-name="Ellipse 10" cx="27" cy="27" r="27" transform="translate(1029 320)" fill="#b1ae43" opacity="0.1"/>
    <g id="other" transform="translate(1046.025 337.025)">
      <path id="Path_810" data-name="Path 810" d="M9.519,2.038A2.125,2.125,0,0,0,7.589.048,23.873,23.873,0,0,0,4.958.035a24.616,24.616,0,0,0-2.64.236A2.557,2.557,0,0,0,.241,2.348,25.281,25.281,0,0,0,0,4.988,23.087,23.087,0,0,0,.018,7.62a2.126,2.126,0,0,0,1.989,1.93c.646.052,1.528.09,2.738.086s2.094-.046,2.738-.1A2.225,2.225,0,0,0,9.5,7.513c.058-.644.1-1.528.1-2.738s-.034-2.093-.087-2.737Z" transform="translate(0 -0.03)" fill="#b1ae43"/>
      <path id="Path_811" data-name="Path 811" d="M282.9,2.318A2.558,2.558,0,0,0,280.822.241,25.28,25.28,0,0,0,278.181,0a23.087,23.087,0,0,0-2.631.013,2.125,2.125,0,0,0-1.93,1.989c-.053.646-.09,1.528-.086,2.738s.046,2.094.1,2.738A2.225,2.225,0,0,0,275.657,9.5c.646.058,1.528.1,2.738.1s2.093-.034,2.738-.086a2.126,2.126,0,0,0,1.989-1.93,23.673,23.673,0,0,0,.013-2.631,24.593,24.593,0,0,0-.237-2.641Z" transform="translate(-262.512 0)" fill="#b1ae43"/>
      <path id="Path_812" data-name="Path 812" d="M9.532,275.638a2.225,2.225,0,0,0-2.019-2.019c-.646-.058-1.528-.1-2.738-.1s-2.093.034-2.738.086a2.127,2.127,0,0,0-1.988,1.931,23.875,23.875,0,0,0-.013,2.631,24.615,24.615,0,0,0,.236,2.64,2.558,2.558,0,0,0,2.077,2.077,24.893,24.893,0,0,0,2.639.236,23.37,23.37,0,0,0,2.631-.013,2.126,2.126,0,0,0,1.93-1.989c.052-.644.09-1.528.086-2.738s-.044-2.1-.1-2.738Z" transform="translate(-0.03 -262.494)" fill="#b1ae43"/>
      <path id="Path_813" data-name="Path 813" d="M283.153,275.55a2.126,2.126,0,0,0-1.989-1.93c-.644-.053-1.528-.09-2.738-.086s-2.094.046-2.738.1a2.225,2.225,0,0,0-2.019,2.019c-.058.646-.1,1.528-.1,2.738s.034,2.093.086,2.738a2.126,2.126,0,0,0,1.93,1.989,23.674,23.674,0,0,0,2.631.013,24.554,24.554,0,0,0,2.639-.236,2.557,2.557,0,0,0,2.078-2.078,24.9,24.9,0,0,0,.236-2.639A24.142,24.142,0,0,0,283.153,275.55Z" transform="translate(-262.542 -262.512)" fill="#b1ae43"/>
    </g>
  </g>
</svg>
