<svg xmlns="http://www.w3.org/2000/svg" width="14.97" height="19.261" viewBox="0 0 14.97 19.261">
  <path id="task-list" d="M19.5,4.928H4.529V18.717a1.794,1.794,0,0,0,1.794,1.794H17.7A1.794,1.794,0,0,0,19.5,18.717ZM8.841,17.835,10.4,16.273a.49.49,0,1,0-.692-.692L8.494,16.8l-.579-.579a.489.489,0,0,0-.692.692l.925.925a.49.49,0,0,0,.625.056l.019-.014.016-.013.016-.014Zm3.173-.638h4.568a.489.489,0,1,0,0-.979H12.014a.489.489,0,1,0,0,.979ZM8.841,13.6,10.4,12.034a.489.489,0,0,0-.692-.692L8.494,12.558l-.579-.579a.489.489,0,0,0-.692.692l.925.925a.489.489,0,0,0,.65.037l.017-.014.016-.015Zm3.173-.638h4.568a.489.489,0,0,0,0-.979H12.014a.489.489,0,1,0,0,.979Zm-3.173-3.6L10.4,7.795A.489.489,0,0,0,9.711,7.1L8.494,8.319l-.579-.579a.489.489,0,0,0-.692.692l.925.925a.491.491,0,0,0,.645.041l.014-.012.016-.014Zm3.173-.638h4.568a.489.489,0,0,0,0-.979H12.014a.489.489,0,1,0,0,.979ZM4.529,3.949H19.5V3.044A1.794,1.794,0,0,0,17.7,1.25H6.323A1.794,1.794,0,0,0,4.529,3.044Z" transform="translate(-4.529 -1.25)" fill="#6d6d6d" fill-rule="evenodd"/>
</svg>
