<svg xmlns="http://www.w3.org/2000/svg" width="54" height="54" viewBox="0 0 54 54">
  <g id="Group_276" data-name="Group 276" transform="translate(-1029 -225)">
    <circle id="Ellipse_7" data-name="Ellipse 7" cx="27" cy="27" r="27" transform="translate(1029 225)" fill="#ff7c7c" opacity="0.1"/>
    <g id="luggage" transform="translate(1044 239.999)">
      <path id="Path_801" data-name="Path 801" d="M293.465,1.905a.44.44,0,0,1,.439-.439h2.539a.44.44,0,0,1,.439.439V4.523h1.465V1.905a1.906,1.906,0,0,0-1.9-1.9H293.9a1.906,1.906,0,0,0-1.9,1.9V4.523h1.465Z" transform="translate(-277.742)" fill="#ff7c7c"/>
      <path id="Path_802" data-name="Path 802" d="M8.9,234.807a3.154,3.154,0,0,1-.5-1.709V222.117H1.709A1.711,1.711,0,0,0,0,223.826V233.1a1.711,1.711,0,0,0,1.465,1.691v.75a.732.732,0,1,0,1.465,0v-.732H8.9Zm-5.974-10a.732.732,0,0,1,1.465,0v7.319a.732.732,0,0,1-1.465,0Z" transform="translate(0 -211.27)" fill="#ff7c7c"/>
      <path id="Path_803" data-name="Path 803" d="M111.465,131.405a.44.44,0,0,1,.439-.439h1.123v-.092a3.154,3.154,0,0,1,.313-1.373H111.9a1.906,1.906,0,0,0-1.9,1.9v1.153h1.465Z" transform="translate(-104.629 -123.177)" fill="#ff7c7c"/>
      <path id="Path_804" data-name="Path 804" d="M215.428,122.617H203.709A1.711,1.711,0,0,0,202,124.326v14.13a1.711,1.711,0,0,0,1.465,1.691v.75a.732.732,0,0,0,1.465,0v-.732h9.277v.732a.732.732,0,0,0,1.465,0v-.75a1.711,1.711,0,0,0,1.465-1.691v-14.13A1.711,1.711,0,0,0,215.428,122.617Zm-9.033,14.863a.732.732,0,1,1-1.465,0V125.3a.732.732,0,1,1,1.465,0Zm7.08.732a.732.732,0,0,1-.732-.732V125.3a.732.732,0,1,1,1.465,0V137.48A.732.732,0,0,1,213.475,138.212Z" transform="translate(-192.137 -116.629)" fill="#ff7c7c"/>
    </g>
  </g>
</svg>
