<svg xmlns="http://www.w3.org/2000/svg" width="54" height="54" viewBox="0 0 54 54">
  <g id="Group_275" data-name="Group 275" transform="translate(-682 -225)">
    <circle id="Ellipse_9" data-name="Ellipse 9" cx="27" cy="27" r="27" transform="translate(682 225)" fill="#68d19c" opacity="0.1"/>
    <g id="map" transform="translate(697 240)">
      <g id="Group_75" data-name="Group 75" transform="translate(13.5)">
        <g id="Group_74" data-name="Group 74">
          <path id="Path_797" data-name="Path 797" d="M293.25,0A5.256,5.256,0,0,0,288,5.25c0,2.694,4.212,7.465,4.692,8a.75.75,0,0,0,1.116,0c.48-.535,4.692-5.307,4.692-8A5.256,5.256,0,0,0,293.25,0Zm0,7.5a2.25,2.25,0,1,1,2.25-2.25A2.251,2.251,0,0,1,293.25,7.5Z" transform="translate(-288)" fill="#68d19c"/>
        </g>
      </g>
      <g id="Group_77" data-name="Group 77" transform="translate(0 6)">
        <g id="Group_76" data-name="Group 76">
          <path id="Path_798" data-name="Path 798" d="M.471,130.811a.752.752,0,0,0-.471.7V145.25a.75.75,0,0,0,1.029.7L7.5,143.357V128Z" transform="translate(0 -128)" fill="#68d19c"/>
        </g>
      </g>
      <g id="Group_79" data-name="Group 79" transform="translate(16.5 9.466)">
        <g id="Group_78" data-name="Group 78">
          <path id="Path_799" data-name="Path 799" d="M355.924,206.738a2.249,2.249,0,0,1-3.348,0c-.153-.17-.349-.393-.576-.659v10.406l7.029-2.811a.748.748,0,0,0,.471-.7V201.952A32.594,32.594,0,0,1,355.924,206.738Z" transform="translate(-352 -201.952)" fill="#68d19c"/>
        </g>
      </g>
      <g id="Group_81" data-name="Group 81" transform="translate(9 6)">
        <g id="Group_80" data-name="Group 80">
          <path id="Path_800" data-name="Path 800" d="M195.473,129.389,192,128v15.357l6,2.4V133.712A19.528,19.528,0,0,1,195.473,129.389Z" transform="translate(-192 -128)" fill="#68d19c"/>
        </g>
      </g>
    </g>
  </g>
</svg>
