<svg xmlns="http://www.w3.org/2000/svg" width="51" height="51" viewBox="0 0 51 51">
  <g id="calendar_9_" data-name="calendar (9)" opacity="0.1">
    <g id="Group_6" data-name="Group 6">
      <g id="Group_5" data-name="Group 5">
        <path id="Path_188" data-name="Path 188" d="M45.023,3.984H42.633V0H38.648V3.984h-26.3V0H8.367V3.984H5.977A5.983,5.983,0,0,0,0,9.961V45.023A5.983,5.983,0,0,0,5.977,51H45.023A5.983,5.983,0,0,0,51,45.023V9.961A5.983,5.983,0,0,0,45.023,3.984Zm1.992,41.039a1.994,1.994,0,0,1-1.992,1.992H5.977a1.994,1.994,0,0,1-1.992-1.992v-26.3H47.016Zm0-30.281H3.984V9.961A1.994,1.994,0,0,1,5.977,7.969H8.367v3.984h3.984V7.969h26.3v3.984h3.984V7.969h2.391a1.994,1.994,0,0,1,1.992,1.992Z" fill="#fff"/>
      </g>
    </g>
    <g id="Group_8" data-name="Group 8" transform="translate(7.556 22.669)">
      <g id="Group_7" data-name="Group 7" transform="translate(0 0)">
        <rect id="Rectangle_121" data-name="Rectangle 121" width="4.25" height="4.25" fill="#fff"/>
      </g>
    </g>
    <g id="Group_10" data-name="Group 10" transform="translate(15.004 22.669)">
      <g id="Group_9" data-name="Group 9" transform="translate(0 0)">
        <rect id="Rectangle_122" data-name="Rectangle 122" width="5.95" height="4.25" fill="#fff"/>
      </g>
    </g>
    <g id="Group_12" data-name="Group 12" transform="translate(22.506 22.669)">
      <g id="Group_11" data-name="Group 11" transform="translate(0 0)">
        <rect id="Rectangle_123" data-name="Rectangle 123" width="5.95" height="4.25" fill="#fff"/>
      </g>
    </g>
    <g id="Group_14" data-name="Group 14" transform="translate(30.008 22.669)">
      <g id="Group_13" data-name="Group 13" transform="translate(0 0)">
        <rect id="Rectangle_124" data-name="Rectangle 124" width="5.95" height="4.25" fill="#fff"/>
      </g>
    </g>
    <g id="Group_16" data-name="Group 16" transform="translate(39.979 22.669)">
      <g id="Group_15" data-name="Group 15" transform="translate(0 0)">
        <rect id="Rectangle_125" data-name="Rectangle 125" width="3.4" height="4.25" fill="#fff"/>
      </g>
    </g>
    <g id="Group_18" data-name="Group 18" transform="translate(7.556 30.008)">
      <g id="Group_17" data-name="Group 17" transform="translate(0 0)">
        <rect id="Rectangle_126" data-name="Rectangle 126" width="4.25" height="5.95" fill="#fff"/>
      </g>
    </g>
    <g id="Group_20" data-name="Group 20" transform="translate(15.004 30.008)">
      <g id="Group_19" data-name="Group 19" transform="translate(0 0)">
        <rect id="Rectangle_127" data-name="Rectangle 127" width="5.95" height="5.95" fill="#fff"/>
      </g>
    </g>
    <g id="Group_22" data-name="Group 22" transform="translate(22.506 30.008)">
      <g id="Group_21" data-name="Group 21" transform="translate(0 0)">
        <rect id="Rectangle_128" data-name="Rectangle 128" width="5.95" height="5.95" fill="#fff"/>
      </g>
    </g>
    <g id="Group_24" data-name="Group 24" transform="translate(30.008 30.008)">
      <g id="Group_23" data-name="Group 23" transform="translate(0 0)">
        <rect id="Rectangle_129" data-name="Rectangle 129" width="5.95" height="5.95" fill="#fff"/>
      </g>
    </g>
    <g id="Group_26" data-name="Group 26" transform="translate(7.556 37.51)">
      <g id="Group_25" data-name="Group 25" transform="translate(0 0)">
        <rect id="Rectangle_130" data-name="Rectangle 130" width="4.25" height="5.95" fill="#fff"/>
      </g>
    </g>
    <g id="Group_28" data-name="Group 28" transform="translate(15.004 37.51)">
      <g id="Group_27" data-name="Group 27" transform="translate(0 0)">
        <rect id="Rectangle_131" data-name="Rectangle 131" width="5.95" height="5.95" fill="#fff"/>
      </g>
    </g>
    <g id="Group_30" data-name="Group 30" transform="translate(22.506 37.51)">
      <g id="Group_29" data-name="Group 29" transform="translate(0 0)">
        <rect id="Rectangle_132" data-name="Rectangle 132" width="5.95" height="5.95" fill="#fff"/>
      </g>
    </g>
    <g id="Group_32" data-name="Group 32" transform="translate(30.008 37.51)">
      <g id="Group_31" data-name="Group 31" transform="translate(0 0)">
        <rect id="Rectangle_133" data-name="Rectangle 133" width="5.95" height="5.95" fill="#fff"/>
      </g>
    </g>
    <g id="Group_34" data-name="Group 34" transform="translate(39.979 30.008)">
      <g id="Group_33" data-name="Group 33" transform="translate(0 0)">
        <rect id="Rectangle_134" data-name="Rectangle 134" width="3.4" height="5.95" fill="#fff"/>
      </g>
    </g>
  </g>
</svg>
