<svg id="customer-support" xmlns="http://www.w3.org/2000/svg" width="62.092" height="60.669" viewBox="0 0 62.092 60.669">
  <path id="Path_47" data-name="Path 47" d="M58.922,27.64a27.25,27.25,0,0,0-54.466,0A6.409,6.409,0,0,0,.643,33.492v7.19a6.411,6.411,0,0,0,6.4,6.4,4.148,4.148,0,0,0,4.144-4.144V31.231a4.136,4.136,0,0,0-3.738-4.1,24.279,24.279,0,0,1,48.469,0,4.135,4.135,0,0,0-3.733,4.1V42.942a4.133,4.133,0,0,0,3.788,4.107v2.959a6.051,6.051,0,0,1-6.044,6.043H45.456a4.449,4.449,0,0,0-4.225-3.008H36.618a4.429,4.429,0,0,0-1.88.412,4.5,4.5,0,0,0-2.614,4.081,4.5,4.5,0,0,0,4.494,4.494h4.614a4.512,4.512,0,0,0,4.228-3.009h4.473a9.024,9.024,0,0,0,9.015-9.014V46.52a6.409,6.409,0,0,0,3.788-5.84V33.49a6.409,6.409,0,0,0-3.813-5.85Zm-50.7,3.591V42.942a1.174,1.174,0,0,1-1.173,1.173,3.438,3.438,0,0,1-3.434-3.434v-7.19a3.437,3.437,0,0,1,3.434-3.434,1.174,1.174,0,0,1,1.173,1.173Zm34.5,26.624a1.531,1.531,0,0,1-1.491,1.207H36.617a1.523,1.523,0,0,1-.632-2.909,1.476,1.476,0,0,1,.632-.138h4.614a1.53,1.53,0,0,1,1.491,1.84ZM59.765,40.681a3.438,3.438,0,0,1-3.434,3.434,1.174,1.174,0,0,1-1.173-1.173V31.231a1.174,1.174,0,0,1,1.173-1.173,3.438,3.438,0,0,1,3.434,3.434Z" transform="translate(-0.643 -1.361)" fill="#1c1c1c"/>
  <path id="Path_48" data-name="Path 48" d="M41.457,41.338a6.3,6.3,0,0,0,6.293-6.293V22.222a6.3,6.3,0,0,0-6.293-6.293H22.224a6.3,6.3,0,0,0-6.293,6.293V35.045a6.3,6.3,0,0,0,6.293,6.293h.118V44.66a3.084,3.084,0,0,0,3.081,3.093,3.02,3.02,0,0,0,2.174-.918l5.528-5.5ZM31.466,38.8l-5.982,5.949a.075.075,0,0,1-.1.024.1.1,0,0,1-.068-.112V39.852a1.485,1.485,0,0,0-1.485-1.485h-1.6A3.327,3.327,0,0,1,18.9,35.045V22.222A3.326,3.326,0,0,1,22.225,18.9H41.458a3.33,3.33,0,0,1,3.323,3.323V35.045a3.326,3.326,0,0,1-3.323,3.323H32.514A1.486,1.486,0,0,0,31.466,38.8Z" transform="translate(-0.795 -1.505)" fill="#1c1c1c"/>
  <path id="Path_49" data-name="Path 49" d="M24.691,26.787a2.191,2.191,0,1,0,2.193,2.191A2.194,2.194,0,0,0,24.691,26.787Z" transform="translate(-0.86 -1.613)" fill="#1c1c1c"/>
  <path id="Path_50" data-name="Path 50" d="M31.977,26.787a2.191,2.191,0,1,0,2.193,2.191A2.194,2.194,0,0,0,31.977,26.787Z" transform="translate(-0.932 -1.613)" fill="#1c1c1c"/>
  <path id="Path_51" data-name="Path 51" d="M39.263,26.787a2.191,2.191,0,1,0,2.193,2.191A2.194,2.194,0,0,0,39.263,26.787Z" transform="translate(-1.004 -1.613)" fill="#1c1c1c"/>
</svg>
