<svg xmlns="http://www.w3.org/2000/svg" width="10" height="13.128" viewBox="0 0 10 13.128">
  <g id="document" transform="translate(-61)">
    <path id="Path_868" data-name="Path 868" d="M67.9,3.846a.9.9,0,0,1-.9-.9V0H62.41A1.412,1.412,0,0,0,61,1.41V11.718a1.412,1.412,0,0,0,1.41,1.41H69.59A1.412,1.412,0,0,0,71,11.718V3.846ZM63.1,9.231h1.865a.385.385,0,1,1,0,.769H63.1a.385.385,0,0,1,0-.769Zm-.385-1.667a.385.385,0,0,1,.385-.385h5.641a.385.385,0,1,1,0,.769H63.1A.385.385,0,0,1,62.718,7.564Zm6.026-2.436a.385.385,0,1,1,0,.769H63.1a.385.385,0,0,1,0-.769Z"/>
    <path id="Path_869" data-name="Path 869" d="M325,8.914a.124.124,0,0,0,.124.124h2.83a1.358,1.358,0,0,0-.26-.34l-2.387-2.258A1.365,1.365,0,0,0,325,6.221Z" transform="translate(-257.119 -6.067)"/>
  </g>
</svg>
