<svg xmlns="http://www.w3.org/2000/svg" width="10.808" height="11" viewBox="0 0 10.808 11">
  <path id="Path_528" data-name="Path 528" d="M7.464.2V1.375a.189.189,0,0,1-.2.2H5.7a.189.189,0,0,1-.2-.2V.2A.189.189,0,0,1,5.7,0H7.268a.189.189,0,0,1,.2.2ZM4.518-.589a.231.231,0,0,1-.061.147L2.5,1.516a.2.2,0,0,1-.141.055.22.22,0,0,1-.141-.055L.252-.448A.187.187,0,0,1,.209-.663.182.182,0,0,1,.393-.786H1.571V-9.232a.191.191,0,0,1,.055-.141.191.191,0,0,1,.141-.055H2.946a.191.191,0,0,1,.141.055.191.191,0,0,1,.055.141V-.786H4.321a.191.191,0,0,1,.141.055A.191.191,0,0,1,4.518-.589ZM8.643-2.946v1.179a.191.191,0,0,1-.055.141.191.191,0,0,1-.141.055H5.7a.191.191,0,0,1-.141-.055A.191.191,0,0,1,5.5-1.768V-2.946a.191.191,0,0,1,.055-.141A.191.191,0,0,1,5.7-3.143h2.75a.191.191,0,0,1,.141.055A.191.191,0,0,1,8.643-2.946ZM9.821-6.089v1.179a.191.191,0,0,1-.055.141.191.191,0,0,1-.141.055H5.7a.191.191,0,0,1-.141-.055A.191.191,0,0,1,5.5-4.911V-6.089a.191.191,0,0,1,.055-.141A.191.191,0,0,1,5.7-6.286H9.625a.191.191,0,0,1,.141.055A.191.191,0,0,1,9.821-6.089ZM11-9.232v1.179a.191.191,0,0,1-.055.141.191.191,0,0,1-.141.055H5.7a.191.191,0,0,1-.141-.055A.191.191,0,0,1,5.5-8.054V-9.232a.191.191,0,0,1,.055-.141A.191.191,0,0,1,5.7-9.429H10.8a.191.191,0,0,1,.141.055A.191.191,0,0,1,11-9.232Z" transform="translate(-0.192 9.429)" fill="#cbd1d9"/>
</svg>
