<svg xmlns="http://www.w3.org/2000/svg" width="30.964" height="27.674" viewBox="0 0 30.964 27.674">
  <g id="write" transform="translate(0 -3.4)">
    <path id="Path_874" data-name="Path 874" d="M0,22.8l15.482,9.144L0,41.088Z" transform="translate(0 -10.014)" fill="#35b0f6"/>
    <path id="Path_875" data-name="Path 875" d="M47.482,41.088,32,31.944,47.482,22.8Z" transform="translate(-16.518 -10.014)" fill="#35b0f6"/>
    <path id="Path_876" data-name="Path 876" d="M0,50.844H30.964L15.482,41.7Z" transform="translate(0 -19.77)" fill="#32a0f4"/>
    <path id="Path_877" data-name="Path 877" d="M5.8,3.4V14.382L18.476,21.93l12.676-7.5V3.4Z" transform="translate(-2.994 0)" fill="#ededed"/>
    <path id="Path_878" data-name="Path 878" d="M0,20.529,2.806,18.4v3.774Z" transform="translate(0 -7.743)" fill="#32a0f4"/>
    <path id="Path_879" data-name="Path 879" d="M61.006,20.529,58.2,18.4v3.774Z" transform="translate(-30.042 -7.743)" fill="#32a0f4"/>
    <g id="Group_280" data-name="Group 280" transform="translate(5.999 6.254)">
      <path id="Path_880" data-name="Path 880" d="M12.4,9.3H31.414v.726H12.4Z" transform="translate(-12.4 -9.3)" fill="#cacaca"/>
    </g>
    <g id="Group_281" data-name="Group 281" transform="translate(5.999 7.658)">
      <path id="Path_881" data-name="Path 881" d="M12.4,12.2H31.414v.726H12.4Z" transform="translate(-12.4 -12.2)" fill="#cacaca"/>
    </g>
    <g id="Group_282" data-name="Group 282" transform="translate(5.999 9.012)">
      <path id="Path_882" data-name="Path 882" d="M12.4,15H31.414v.726H12.4Z" transform="translate(-12.4 -15)" fill="#cacaca"/>
    </g>
    <g id="Group_283" data-name="Group 283" transform="translate(5.999 10.367)">
      <path id="Path_883" data-name="Path 883" d="M12.4,17.8H31.414v.726H12.4Z" transform="translate(-12.4 -17.8)" fill="#cacaca"/>
    </g>
    <g id="Group_284" data-name="Group 284" transform="translate(5.999 11.77)">
      <path id="Path_884" data-name="Path 884" d="M12.4,20.7H31.414v.726H12.4Z" transform="translate(-12.4 -20.7)" fill="#cacaca"/>
    </g>
    <g id="Group_285" data-name="Group 285" transform="translate(5.999 13.125)">
      <path id="Path_885" data-name="Path 885" d="M12.4,23.5H31.414v.726H12.4Z" transform="translate(-12.4 -23.5)" fill="#cacaca"/>
    </g>
  </g>
</svg>
