<svg xmlns="http://www.w3.org/2000/svg" width="20" height="14.063" viewBox="0 0 20 14.063">
  <g id="mail" transform="translate(0 -76)">
    <g id="Group_129" data-name="Group 129" transform="translate(13.712 77.012)">
      <g id="Group_128" data-name="Group 128">
        <path id="Path_860" data-name="Path 860" d="M358.322,101.721l-6.111,6.019,6.111,6.019a1.723,1.723,0,0,0,.177-.752V102.473A1.723,1.723,0,0,0,358.322,101.721Z" transform="translate(-352.211 -101.721)" fill="#6d6d6d"/>
      </g>
    </g>
    <g id="Group_131" data-name="Group 131" transform="translate(1.012 76)">
      <g id="Group_130" data-name="Group 130">
        <path id="Path_861" data-name="Path 861" d="M42.944,76H26.473a1.724,1.724,0,0,0-.752.177l7.746,7.771a1.748,1.748,0,0,0,2.484,0L43.7,76.177A1.724,1.724,0,0,0,42.944,76Z" transform="translate(-25.721 -76)" fill="#6d6d6d"/>
      </g>
    </g>
    <g id="Group_133" data-name="Group 133" transform="translate(0 77.012)">
      <g id="Group_132" data-name="Group 132">
        <path id="Path_862" data-name="Path 862" d="M.177,101.721a1.723,1.723,0,0,0-.177.752v10.534a1.723,1.723,0,0,0,.177.752l6.111-6.019Z" transform="translate(0 -101.721)" fill="#6d6d6d"/>
      </g>
    </g>
    <g id="Group_135" data-name="Group 135" transform="translate(1.012 83.814)">
      <g id="Group_134" data-name="Group 134">
        <path id="Path_863" data-name="Path 863" d="M37.636,277.211l-.858.865a2.913,2.913,0,0,1-4.139,0l-.858-.865-6.061,6.072a1.724,1.724,0,0,0,.752.177H42.944a1.724,1.724,0,0,0,.752-.177Z" transform="translate(-25.721 -277.211)" fill="#6d6d6d"/>
      </g>
    </g>
  </g>
</svg>
