<svg clip-rule="evenodd" fill-rule="evenodd" height="512" image-rendering="optimizeQuality" shape-rendering="geometricPrecision" text-rendering="geometricPrecision" viewBox="0 0 512 512" width="512" xmlns="http://www.w3.org/2000/svg" xmlns:xodm="http://www.corel.com/coreldraw/odm/2003"><g id="Layer_x0020_1"><g id="_2112463686176"><path d="m313.32 318.51c-16.61 17.75-36.27 27.12-56.91 27.12l-1.02-.01c-21.97-.32-42.86-11.1-60.42-31.18-1.15-1.31-2.29-2.67-3.4-4.06-1.15 23.55-7.48 37.16-17.45 46.25 22.84 19.47 51.57 45.45 81.88 45.45 30.32 0 59.05-25.98 81.89-45.45-10-9.12-16.35-22.78-17.47-46.46-2.28 2.93-4.64 5.71-7.1 8.34z" fill="#fde5c9"/><path d="m53.89 482.36c5-69.82 37.53-90.09 68.53-102.07 41.85 32.53 91.34 37.07 142.15 37.44 48.3-1.2 70.53-11.91 128.84-35.92 30.1 12.33 60.5 34.04 64.84 102.55l-.14-2-55.9-11.52 9.65 41.16h-311.72v-29.64z" fill="#ffa721"/><path d="m100.14 512 9.65-41.16-55.9 11.52c-.44 6.07-.67 12.51-.67 19.35 0 2.73 1.09 5.35 3.02 7.28s4.54 3.01 7.27 3.01z" fill="#fde5c9"/><path d="m53.89 482.36c.53-7.4 1.37-14.24 2.49-20.58h43.76v-3.8c0-5.68 4.61-10.29 10.29-10.29s10.29 4.61 10.29 10.29v3.8h3.11c5.68 0 10.28 4.61 10.28 10.29s-4.6 10.29-10.28 10.29h-3.11v29.64h-20.58v-29.64z" fill="#e6961e"/><path d="m122.42 380.29c4.67-1.8 9.31-3.42 13.81-4.99 15.23-5.31 28.41-9.91 38.1-18.87 29.83 30.24 119.98 41.56 163.4.06 9.69 8.92 22.85 13.51 38.04 18.81 5.73 2 11.68 4.07 17.64 6.51-35.8 35.27-84.05 55.21-134.73 55.21-51.4 0-100.31-20.52-136.26-56.73z" fill="#e6961e"/><path d="m256.41 345.63c-.34 0-.68 0-1.02-.01-21.97-.32-42.86-11.1-60.42-31.18-16.53-18.91-29.28-45.5-37.07-77.25-19.26-3.14-33.11-15.57-36.16-33.18-2.85-16.4 5.09-37.15 29.24-46.54 5.3-2.06 6.74-3.29 8.8 2.01.53 1.35.75 2.76.69 4.13.93-12.44 15.72-67.56 20.53-73.17 17.29 8.87 34.08 13.36 50.01 13.36 36.74 0 93.21 9.56 102.65-3.11 43.09 20.65 10.62 72.85 10.64 74.68.02 2.14 3.08-3.11 4.23-1.45-1.87-2.71-4.8.98-3.52-2.33 2.06-5.3 4.05-6.46 9.35-4.4 20.36 7.91 32.18 26.17 29.41 45.43-2.45 17.05-15.24 29.72-33.37 33.72-8.36 30.53-20.82 54.78-37.08 72.17-16.61 17.75-36.27 27.12-56.91 27.12zm-46.98-45.9.82.97c-.26-.34-.53-.66-.82-.97zm143.83-122.08c-.58-.22-1.13-.5-1.64-.81.52.32 1.07.59 1.64.81z" fill="#fddfbc"/><path d="m350.63 187.06c-.69 0-1.38-.07-2.08-.21-4.76-.98-8.19-5.17-8.21-10.03-.03-1.83-1.1-39.41-44.19-60.06-9.43 12.68-31.75 35.93-68.49 35.93-15.93 0-32.72-4.49-50.01-13.36-4.85 5.65-11.84 15.84-12.68 28.41-.3 4.58-3.6 8.4-8.09 9.37-4.47.97-9.07-1.15-11.23-5.19-1.58-2.94-38.05-72.85 13.64-145.23.43-.59.92-1.15 1.46-1.64 1.13-1.02 28.06-25.05 63.96-25.05 18.05 0 35.05 6.01 50.58 17.88 13.5 1.57 64.07 9.98 88.12 49.44 17.7 29.04 16.58 67.23-3.33 113.52-1.66 3.83-5.41 6.22-9.45 6.22z" fill="#423e4f"/><path d="m411.86 512-9.65-41.16 55.9 11.52c.44 6.07.67 12.51.67 19.35 0 2.73-1.09 5.35-3.02 7.28s-4.54 3.01-7.27 3.01z" fill="#fde5c9"/><path d="m458.11 482.36c-.53-7.4-1.37-14.24-2.49-20.58h-43.76v-3.8c0-5.68-4.61-10.29-10.29-10.29s-10.29 4.61-10.29 10.29v3.8h-3.11c-5.68 0-10.28 4.61-10.28 10.29s4.6 10.29 10.28 10.29h3.11v29.64h20.58v-29.64z" fill="#e6961e"/></g></g></svg>