<svg xmlns="http://www.w3.org/2000/svg" width="13.424" height="17.623" viewBox="0 0 13.424 17.623">
  <g id="medical-report" transform="translate(-61)">
    <path id="Path_820" data-name="Path 820" d="M325,9.966a.172.172,0,0,0,.172.172h3.935a1.887,1.887,0,0,0-.362-.473l-3.319-3.14a1.9,1.9,0,0,0-.426-.3Z" transform="translate(-254.913 -6.008)" fill="#1c1c1c"/>
    <path id="Path_821" data-name="Path 821" d="M70.259,5.163a1.206,1.206,0,0,1-1.2-1.2V0H62.893A1.9,1.9,0,0,0,61,1.893V15.73a1.9,1.9,0,0,0,1.893,1.893h9.637a1.9,1.9,0,0,0,1.893-1.893V5.163Zm-3.58-1.549a.516.516,0,1,1,0,1.033H65.647V5.679a.516.516,0,1,1-1.033,0V4.647H63.581a.516.516,0,0,1,0-1.033h1.033V2.581a.516.516,0,1,1,1.033,0V3.614ZM63.822,11.7a.516.516,0,0,1,0-1.033h7.572a.516.516,0,0,1,0,1.033Zm3.019,2.237a.516.516,0,0,1-.516.516h-2.5a.516.516,0,0,1,0-1.033h2.5A.516.516,0,0,1,66.842,13.94Zm4.553-6.023a.516.516,0,0,1,0,1.033H63.822a.516.516,0,0,1,0-1.033Z" fill="#1c1c1c"/>
  </g>
</svg>
