<svg id="notification_1_" data-name="notification (1)" xmlns="http://www.w3.org/2000/svg" width="17.25" height="18" viewBox="0 0 17.25 18">
  <path id="Path_786" data-name="Path 786" d="M134,344.332a3,3,0,1,1-3-3A3,3,0,0,1,134,344.332Zm0,0" transform="translate(-123.5 -329.332)" fill="#ffa000"/>
  <path id="Path_787" data-name="Path 787" d="M12.756,50.109a5.238,5.238,0,0,1-4.061-7.3A5.232,5.232,0,0,0,2.25,47.918v2.091a5.029,5.029,0,0,1-1.791,3.85,1.312,1.312,0,0,0,.853,2.309H13.687a1.313,1.313,0,0,0,.846-2.316,5.022,5.022,0,0,1-1.778-3.743Zm0,0" transform="translate(0 -41.168)" fill="#ffc107"/>
  <path id="Path_788" data-name="Path 788" d="M284.832,3.75A3.75,3.75,0,1,1,281.082,0,3.75,3.75,0,0,1,284.832,3.75Zm0,0" transform="translate(-267.582)" fill="#f44336"/>
</svg>
