<svg xmlns="http://www.w3.org/2000/svg" width="161.005" height="37.781" viewBox="0 0 161.005 37.781">
  <path id="Path_11" data-name="Path 11" d="M6642.1,1430.008a11.553,11.553,0,0,0-2-4.4,9.541,9.541,0,0,0-3.486-2.655,10.669,10.669,0,0,0-4.562-1.014,9.79,9.79,0,0,0-6.77,2.534,11.436,11.436,0,0,0-3.125,5.539Zm-36.73-7.517h12.9v-3.367H6602v27.657h3.368Zm153.849,7.517a11.547,11.547,0,0,0-2-4.4,9.533,9.533,0,0,0-3.486-2.655,10.647,10.647,0,0,0-4.549-1.014,9.786,9.786,0,0,0-6.769,2.534,11.448,11.448,0,0,0-3.125,5.539h19.934Zm0,7.2,2.907,1.52a15.872,15.872,0,0,1-3.293,4.525,13.2,13.2,0,0,1-4.211,2.618,14.564,14.564,0,0,1-5.3.893q-6.554,0-10.246-4.3a14.473,14.473,0,0,1-3.692-9.7,14.287,14.287,0,0,1,3.126-9.074,12.777,12.777,0,0,1,10.606-5.068,13.2,13.2,0,0,1,10.932,5.189,14.45,14.45,0,0,1,2.957,9.146h-24.073a10.848,10.848,0,0,0,2.98,7.638,9.5,9.5,0,0,0,7.12,2.98,11.544,11.544,0,0,0,3.982-.712,10.219,10.219,0,0,0,3.282-1.882,15.953,15.953,0,0,0,2.932-3.8Zm-67.887-17.883h3.438v4.621a13.274,13.274,0,0,1,3.693-3.74,10.455,10.455,0,0,1,5.49-1.569,9.153,9.153,0,0,1,3.693.76,7.855,7.855,0,0,1,2.859,2.027,10.918,10.918,0,0,1,1.919,3.632,12.6,12.6,0,0,1,4.3-4.779,10.181,10.181,0,0,1,5.55-1.641,8.763,8.763,0,0,1,4.9,1.4,8.332,8.332,0,0,1,3.149,3.909,20.883,20.883,0,0,1,1.025,7.53v14.613h-3.511V1431.48a18.948,18.948,0,0,0-.617-5.913,5.318,5.318,0,0,0-2.1-2.594,6.311,6.311,0,0,0-3.547-.99,7.767,7.767,0,0,0-4.574,1.472,8.493,8.493,0,0,0-3.028,3.934q-.959,2.461-.954,8.217v10.474h-3.439v-13.7a23.623,23.623,0,0,0-.6-6.576,5.424,5.424,0,0,0-2.1-2.776,6.063,6.063,0,0,0-3.573-1.05,7.735,7.735,0,0,0-4.464,1.436,8.442,8.442,0,0,0-3.077,3.873,20.893,20.893,0,0,0-1,7.457v11.343h-3.438v-26.752Zm-8.991,26.752h3.44V1409h-3.44Zm-19.354-24.121a10.39,10.39,0,0,0-9.183,5.382,10.852,10.852,0,0,0,.013,10.812,10.658,10.658,0,0,0,3.9,4.018,10.229,10.229,0,0,0,5.25,1.436,10.732,10.732,0,0,0,5.358-1.424,10,10,0,0,0,3.9-3.861,11.07,11.07,0,0,0,1.362-5.478,10.618,10.618,0,0,0-3.053-7.759,10.15,10.15,0,0,0-7.528-3.125Zm13.756-2.63v26.752h-3.392v-4.6a14.876,14.876,0,0,1-4.851,3.958,13.216,13.216,0,0,1-5.889,1.327,13.079,13.079,0,0,1-9.7-4.115,13.791,13.791,0,0,1-4.019-10.015,13.562,13.562,0,0,1,4.055-9.883,13.22,13.22,0,0,1,9.762-4.1,12.665,12.665,0,0,1,5.961,1.4,13.589,13.589,0,0,1,4.681,4.2v-4.923Zm-34.631,17.883,2.9,1.52a15.881,15.881,0,0,1-3.293,4.525,13.2,13.2,0,0,1-4.213,2.618,14.551,14.551,0,0,1-5.3.893q-6.553,0-10.245-4.3a14.474,14.474,0,0,1-3.693-9.7,14.285,14.285,0,0,1,3.126-9.074,12.776,12.776,0,0,1,10.606-5.068,13.2,13.2,0,0,1,10.932,5.189,14.522,14.522,0,0,1,2.956,9.146h-24.072a10.835,10.835,0,0,0,2.98,7.638,9.49,9.49,0,0,0,7.119,2.98,11.544,11.544,0,0,0,3.982-.712,10.224,10.224,0,0,0,3.283-1.882,16,16,0,0,0,2.932-3.8Z" transform="translate(-6602 -1409)"/>
</svg>
