<svg xmlns="http://www.w3.org/2000/svg" width="277.809" height="327.329" viewBox="0 0 277.809 327.329">
  <path id="blob_2_" data-name="blob (2)" d="M135.336,14.7c26.092,20.761,59.478,30.02,78.836,52.745,19.639,22.445,25.25,58.356,24.128,101.281-1.122,42.645-9.258,92.584-38.436,99.6-28.9,6.733-78.836-29.178-118.956-42.645-40.12-13.747-70.42-4.769-91.181-14.308s-32.264-37.595-28.336-62,23.286-45.45,24.97-78.275C-11.675,38.265-27.387-6.9-16.164-32.716c11.222-25.531,49.1-31.983,77.714-18.8C90.167-38.607,109.244-6.063,135.336,14.7Z" transform="translate(39.372 58.174)" fill="#ffe89c"/>
</svg>
