<svg xmlns="http://www.w3.org/2000/svg" width="202.671" height="172.01" viewBox="0 0 202.671 172.01">
  <path id="blob_2_" data-name="blob (2)" d="M68.8-13.054C84.957-.2,105.628,5.533,117.614,19.6c12.16,13.9,15.634,36.132,14.939,62.71-.695,26.4-5.732,57.325-23.8,61.668-17.892,4.169-48.813-18.066-73.654-26.4-24.841-8.512-43.6-2.953-56.456-8.859S-41.331,85.44-38.9,70.328s14.418-28.141,15.46-48.465C-22.223,1.538-31.951-26.43-25-42.411c6.948-15.808,30.4-19.8,48.118-11.639C40.834-46.059,52.646-25.909,68.8-13.054Z" transform="translate(144.497 39.372) rotate(90)" fill="#ffe89c"/>
</svg>
