<svg xmlns="http://www.w3.org/2000/svg" width="345.36" height="283.48" viewBox="0 0 345.36 283.48">
  <g id="Слой_1" data-name="Слой 1" transform="translate(-677.896 -244.2)">
    <g id="_Group_" data-name="&lt;Group&gt;" transform="translate(677.896 244.2)">
      <g id="_Group_2" data-name="&lt;Group&gt;" transform="translate(0 0)">
        <g id="_Group_3" data-name="&lt;Group&gt;" transform="translate(258.829)">
          <path id="_Compound_Path_" data-name="&lt;Compound Path&gt;" d="M891.252,77.311V88.141l-4.9.957a24.54,24.54,0,0,1-2.679,6.544l2.717,4.133L882.6,103.6l-3.827,3.827-4.133-2.756a24.54,24.54,0,0,1-6.544,2.679l-.957,4.9H856.311l-.957-4.9a24.545,24.545,0,0,1-6.544-2.679l-4.133,2.756-3.827-3.827-3.827-3.827,2.755-4.133a25.967,25.967,0,0,1-2.717-6.544l-4.86-.957V77.311l4.86-.957a25.967,25.967,0,0,1,2.717-6.544l-2.755-4.133,3.827-3.827,3.827-3.827,4.133,2.756a24.545,24.545,0,0,1,6.544-2.679l.957-4.9h10.831l.957,4.9a24.54,24.54,0,0,1,6.544,2.679l4.133-2.756,3.827,3.827,3.789,3.827-2.717,4.133a24.541,24.541,0,0,1,2.679,6.544Zm-10.563,5.4a18.944,18.944,0,1,0-18.944,18.944A18.963,18.963,0,0,0,880.689,82.707Z" transform="translate(-832.2 -53.2)" fill="#dfab01" fill-rule="evenodd"/>
        </g>
        <g id="_Group_4" data-name="&lt;Group&gt;" transform="translate(295.531 58.478)">
          <path id="_Compound_Path_2" data-name="&lt;Compound Path&gt;" d="M955.158,217.06v4.975l-2.22.421a10.312,10.312,0,0,1-1.263,2.985l1.263,1.914-1.722,1.76-1.76,1.76-1.913-1.263a11.4,11.4,0,0,1-2.985,1.225l-.459,2.22H939.16l-.459-2.22a11.4,11.4,0,0,1-2.985-1.225l-1.914,1.263-1.722-1.76-1.76-1.76,1.263-1.914a12.96,12.96,0,0,1-1.263-2.985l-2.22-.421V217.06l2.22-.459a13.716,13.716,0,0,1,1.263-2.985l-1.263-1.875,1.76-1.76,1.722-1.76,1.914,1.263a11.4,11.4,0,0,1,2.985-1.225L939.16,206H944.1l.459,2.258a11.4,11.4,0,0,1,2.985,1.225l1.913-1.263,1.76,1.76,1.722,1.76-1.263,1.875a10.777,10.777,0,0,1,1.263,2.985Zm-4.86,2.488a8.688,8.688,0,1,0-8.687,8.688A8.681,8.681,0,0,0,950.3,219.548Z" transform="translate(-928.1 -206)" fill="#dfab01" fill-rule="evenodd"/>
        </g>
        <g id="_Group_5" data-name="&lt;Group&gt;" transform="translate(163.343 160.509)">
          <path id="_Path_" data-name="&lt;Path&gt;" d="M582.7,472.6h26.6v80.752H582.7Z" transform="translate(-582.7 -472.6)" fill="#aebecc"/>
        </g>
        <g id="_Group_6" data-name="&lt;Group&gt;" transform="translate(61.886 37.467)">
          <path id="_Path_2" data-name="&lt;Path&gt;" d="M317.6,301.352V162.773A11.67,11.67,0,0,1,329.273,151.1H535.439a11.67,11.67,0,0,1,11.673,11.673v138.58a11.646,11.646,0,0,1-11.673,11.673H329.273A11.646,11.646,0,0,1,317.6,301.352Z" transform="translate(-317.6 -151.1)" fill="#f0f0f0"/>
        </g>
        <g id="_Group_7" data-name="&lt;Group&gt;" transform="translate(70.841 20.245)">
          <path id="_Path_3" data-name="&lt;Path&gt;" d="M341,106.1H552.563V259.873H341Z" transform="translate(-341 -106.1)" fill="#fff"/>
        </g>
        <g id="_Group_8" data-name="&lt;Group&gt;" transform="translate(70.841 20.245)">
          <path id="_Path_4" data-name="&lt;Path&gt;" d="M341,106.1H552.563v18.561H341Z" transform="translate(-341 -106.1)" fill="#dfab01"/>
        </g>
        <g id="_Group_9" data-name="&lt;Group&gt;" transform="translate(169.236 178.228)">
          <path id="_Path_5" data-name="&lt;Path&gt;" d="M605.486,518.9a7.406,7.406,0,1,1-7.386,7.425A7.432,7.432,0,0,1,605.486,518.9Z" transform="translate(-598.1 -518.9)" fill="#757575"/>
        </g>
        <g id="_Group_10" data-name="&lt;Group&gt;" transform="translate(133.683 52.01)">
          <g id="_Group_11" data-name="&lt;Group&gt;">
            <g id="_Group_12" data-name="&lt;Group&gt;">
              <path id="_Path_6" data-name="&lt;Path&gt;" d="M505.2,191.932v-.153a2.687,2.687,0,0,1,2.679-2.679h68.965a2.687,2.687,0,0,1,2.679,2.679v.153a2.662,2.662,0,0,1-2.679,2.679H507.879A2.663,2.663,0,0,1,505.2,191.932Z" transform="translate(-505.2 -189.1)" fill="#dfe1e8"/>
            </g>
          </g>
        </g>
        <g id="_Group_13" data-name="&lt;Group&gt;" transform="translate(133.683 61.961)">
          <g id="_Group_14" data-name="&lt;Group&gt;">
            <g id="_Group_15" data-name="&lt;Group&gt;">
              <path id="_Path_7" data-name="&lt;Path&gt;" d="M505.2,217.894v-.115a2.663,2.663,0,0,1,2.679-2.679h68.965a2.662,2.662,0,0,1,2.679,2.679v.115a2.662,2.662,0,0,1-2.679,2.679H507.879A2.663,2.663,0,0,1,505.2,217.894Z" transform="translate(-505.2 -215.1)" fill="#dfe1e8"/>
            </g>
          </g>
        </g>
        <g id="_Group_16" data-name="&lt;Group&gt;" transform="translate(133.683 71.873)">
          <g id="_Group_17" data-name="&lt;Group&gt;">
            <g id="_Group_18" data-name="&lt;Group&gt;">
              <path id="_Path_8" data-name="&lt;Path&gt;" d="M505.2,243.832v-.153A2.663,2.663,0,0,1,507.879,241h68.965a2.662,2.662,0,0,1,2.679,2.679v.153a2.662,2.662,0,0,1-2.679,2.679H507.879A2.663,2.663,0,0,1,505.2,243.832Z" transform="translate(-505.2 -241)" fill="#dfe1e8"/>
            </g>
          </g>
        </g>
        <g id="_Group_19" data-name="&lt;Group&gt;" transform="translate(80.639 90.97)">
          <g id="_Group_20" data-name="&lt;Group&gt;">
            <g id="_Group_21" data-name="&lt;Group&gt;">
              <g id="_Group_22" data-name="&lt;Group&gt;">
                <path id="_Compound_Path_3" data-name="&lt;Compound Path&gt;" d="M457.915,363.118h-79.3A12,12,0,0,1,366.6,351.139V302.917A12.038,12.038,0,0,1,378.617,290.9h79.3a12,12,0,0,1,11.979,12.017v48.222A11.972,11.972,0,0,1,457.915,363.118Zm-79.3-70.725a10.51,10.51,0,0,0-10.486,10.525v48.222a10.5,10.5,0,0,0,10.486,10.486h79.3A10.5,10.5,0,0,0,468.4,351.139V302.917a10.51,10.51,0,0,0-10.486-10.525Z" transform="translate(-366.6 -290.9)" fill="#dfe1e8" fill-rule="evenodd"/>
              </g>
            </g>
          </g>
        </g>
        <g id="_Group_23" data-name="&lt;Group&gt;" transform="translate(93.613 97.553)">
          <g id="_Group_24" data-name="&lt;Group&gt;">
            <g id="_Group_25" data-name="&lt;Group&gt;">
              <path id="_Path_9" data-name="&lt;Path&gt;" d="M400.5,314.415v-1a5.308,5.308,0,0,1,5.32-5.32h66.745a5.3,5.3,0,0,1,5.281,5.32v1a5.292,5.292,0,0,1-5.281,5.281H405.82A5.3,5.3,0,0,1,400.5,314.415Z" transform="translate(-400.5 -308.1)" fill="#dfe1e8"/>
            </g>
          </g>
        </g>
        <path id="_Path_10" data-name="&lt;Path&gt;" d="M580.8,681.685H461.2V675.6H580.8Z" transform="translate(-344.357 -437.401)" fill="#f0f0f0"/>
        <g id="_Group_26" data-name="&lt;Group&gt;" transform="translate(224.194 89.631)">
          <path id="_Path_11" data-name="&lt;Path&gt;" d="M776.144,304.584a17.253,17.253,0,0,1-8.534,14.887,17.793,17.793,0,0,1-3.253,1.454,1.5,1.5,0,0,1-.306.115,17.7,17.7,0,0,1-5.128.765,17.2,17.2,0,1,1,17.222-17.222Z" transform="translate(-741.7 -287.4)" fill="#eef0f7"/>
          <g id="_Group_27" data-name="&lt;Group&gt;" transform="translate(13.006 7.92)">
            <path id="_Path_12" data-name="&lt;Path&gt;" d="M775.767,315.559s-1.148-7.616,5.128-7.463c6.315.115,6.238,3.9,6.123,7.616-.115,3.751-2.526,3.444.191,8.649s-2.373,5.2-2.373,5.2l-3.942-5.434Z" transform="translate(-775.685 -308.094)" fill="#3c4145"/>
          </g>
          <g id="_Group_28" data-name="&lt;Group&gt;" transform="translate(13.077 8.561)">
            <path id="_Path_13" data-name="&lt;Path&gt;" d="M785.793,314.106c-.115.957-1.263,7.31-5.014,8.573-3.712,1.263-5.052-.038-4.9-6.085.191-6.085,4.439-6.736,4.439-6.736C786.1,309.131,785.87,313.111,785.793,314.106Z" transform="translate(-775.87 -309.77)" fill="#eea886"/>
          </g>
          <g id="_Group_29" data-name="&lt;Group&gt;" transform="translate(9.397 23.696)">
            <path id="_Path_14" data-name="&lt;Path&gt;" d="M781.886,355.356a4.136,4.136,0,0,1-2.373,3.789,1.5,1.5,0,0,1-.306.115,17.7,17.7,0,0,1-5.128.765,17.077,17.077,0,0,1-7.654-1.8c-.536-1.033.23-2.488,1.76-4.746,1.033-1.569,2.067-3.138,3.827-3.9,2.6-.421,5.358-.421,7.271.651,1.569.88,2.564,2.449,2.6,5.128Z" transform="translate(-766.255 -349.316)" fill="#e55353"/>
          </g>
          <g id="_Group_30" data-name="&lt;Group&gt;" transform="translate(10.218 24.455)">
            <path id="_Path_15" data-name="&lt;Path&gt;" d="M770.352,354.63l-1.952,3.062s.115-.459.344-1.837a7.448,7.448,0,0,0,.115-.842l.077-.306A8.661,8.661,0,0,1,772.5,351.3Z" transform="translate(-768.4 -351.3)" fill="#e55353"/>
          </g>
          <g id="_Group_31" data-name="&lt;Group&gt;" transform="translate(20.131 24.578)">
            <path id="_Path_16" data-name="&lt;Path&gt;" d="M800.079,359.113a17.8,17.8,0,0,1-3.253,1.454,1.5,1.5,0,0,1-.306.115c-.459-1.11-.842-2.1-.919-2.335q-.038-.115-.153-.421a12.84,12.84,0,0,1-1.148-4.248c0-.957.306-1.76,1.263-1.99a2.873,2.873,0,0,1,1.033-.038,2.98,2.98,0,0,1,2.067,2.028l.038.038a10.507,10.507,0,0,1,.383,1.378l.038.191c.077.268.191.689.344,1.3.153.689.383,1.569.612,2.526Z" transform="translate(-794.3 -351.62)" fill="#eea886"/>
          </g>
          <g id="_Group_32" data-name="&lt;Group&gt;" transform="translate(14.925 18.657)">
            <path id="_Path_17" data-name="&lt;Path&gt;" d="M786.172,336.245a30.939,30.939,0,0,0-.765,5.013s-5.2,1.99-4.669.88a4.617,4.617,0,0,0,.306-1.76,6.32,6.32,0,0,0-.077-1.033v-.191S786.517,335.518,786.172,336.245Z" transform="translate(-780.699 -336.149)" fill="#eea886"/>
          </g>
          <g id="_Group_33" data-name="&lt;Group&gt;" transform="translate(13.089 8.448)">
            <path id="_Path_18" data-name="&lt;Path&gt;" d="M775.9,316.41c.153-7.425,3.177-7.348,8.152-6.621,4.937.765-.268,11.711-.268,11.711s1-1.11-1-2.526c-1.99-1.378-4.172-4.937-4.172-4.937-.459-.077-2.717,2.373-2.717,2.373Z" transform="translate(-775.9 -309.473)" fill="#3c4145"/>
          </g>
          <g id="_Group_34" data-name="&lt;Group&gt;" transform="translate(15.194 21.394)">
            <path id="_Path_19" data-name="&lt;Path&gt;" d="M784.385,343.3c-.8,1.186-2.909,1.493-2.909,1.493a6.33,6.33,0,0,0-.076-1.033A5.831,5.831,0,0,0,784.385,343.3Z" transform="translate(-781.4 -343.3)" fill="#a77860"/>
          </g>
          <path id="_Path_20" data-name="&lt;Path&gt;" d="M773.051,351.2a7.5,7.5,0,0,0-1.148.957c-.459.536-1.837,2.488-1.837,2.488l-.765,1.148a4.593,4.593,0,0,1,.191-1.186C770.333,352.5,773.051,351.2,773.051,351.2Z" transform="translate(-758.737 -326.783)" fill="#bd4444"/>
          <path id="_Path_21" data-name="&lt;Path&gt;" d="M795.387,351.531c3.291-.574,3.98,4.822,3.98,4.822a29.24,29.24,0,0,0-4.325,1.378S792.1,352.105,795.387,351.531Z" transform="translate(-773.879 -326.961)" fill="#e55353"/>
          <path id="_Path_22" data-name="&lt;Path&gt;" d="M784.049,349.12c-1.914,3.6-6.43,4.363-7.233,4.018-.842-.306,1.607-4.095,1.607-4.095A6.807,6.807,0,0,1,784.049,349.12Z" transform="translate(-763.268 -325.086)" fill="#eea886"/>
        </g>
        <g id="_Group_35" data-name="&lt;Group&gt;" transform="translate(220.175 34.214)">
          <path id="_Path_23" data-name="&lt;Path&gt;" d="M776.016,164.989A22.408,22.408,0,1,1,753.627,142.6,22.393,22.393,0,0,1,776.016,164.989Z" transform="translate(-731.2 -142.6)" fill="#eef0f7"/>
          <g id="_Group_36" data-name="&lt;Group&gt;" transform="translate(4.669 9.814)">
            <g id="_Group_37" data-name="&lt;Group&gt;" transform="translate(3.138 19.731)">
              <path id="_Path_24" data-name="&lt;Path&gt;" d="M780.8,225l-1.646,5.932a22.513,22.513,0,0,1-10.218,3.942q-.957.115-1.99.153h-.727q-1.11,0-2.143-.077a23.383,23.383,0,0,1-2.335-.344,22.168,22.168,0,0,1-9.185-4.21c-.306-1.952-.651-4.1-.957-6.123,1.646-.651,6.889-2.411,10.218-3.521a.3.3,0,0,1,.115-.038l.23-.077q.306-.115.574-.191.268-.115.5-.191c.689-.23,1.148-.383,1.34-.459h.076l4.478.344.727.038h.23l.115.038c.268.077,1.033.268,2.067.612h0C774.907,221.637,779.193,223.168,780.8,225Z" transform="translate(-751.6 -219.8)" fill="#d9c7c1"/>
            </g>
            <g id="_Group_38" data-name="&lt;Group&gt;" transform="translate(12.438 1.378)">
              <path id="_Path_25" data-name="&lt;Path&gt;" d="M782.368,171.9s5.32.919,4.439,9.262c-.918,8.343-5.626,7.616-5.932,7.616-.306-.038-4.746.077-4.975-10.1C775.9,178.678,775.823,171.1,782.368,171.9Z" transform="translate(-775.9 -171.844)" fill="#eea987"/>
            </g>
            <g id="_Group_39" data-name="&lt;Group&gt;" transform="translate(14.237 14.91)">
              <path id="_Path_26" data-name="&lt;Path&gt;" d="M787.6,208.16s-.191,3.444.153,4.21c.306.727-4.286,3.1-7.157.421a31.872,31.872,0,0,0,.421-5.09C780.83,206.361,787.6,208.16,787.6,208.16Z" transform="translate(-780.6 -207.204)" fill="#eea987"/>
            </g>
            <g id="_Group_40" data-name="&lt;Group&gt;" transform="translate(23.097 8.065)">
              <path id="_Path_27" data-name="&lt;Path&gt;" d="M804.115,189.579s.574-.612.8.038c.191.612-.957,3.444-.88,3.559,0,0-.115.268-.268.115A37.1,37.1,0,0,1,804.115,189.579Z" transform="translate(-803.752 -189.318)" fill="#eea987"/>
            </g>
            <g id="_Group_41" data-name="&lt;Group&gt;" transform="translate(11.671 7.834)">
              <path id="_Path_28" data-name="&lt;Path&gt;" d="M774.97,192.765c-.115.115-.306-.191-.306-.191-.115-.153-.957-2.985-.727-3.6s.8.038.8.038a29.034,29.034,0,0,1,.229,3.751Z" transform="translate(-773.897 -188.714)" fill="#eea987"/>
            </g>
            <g id="_Group_42" data-name="&lt;Group&gt;" transform="translate(12.077)">
              <path id="_Path_29" data-name="&lt;Path&gt;" d="M786.684,175.882c-.191,1.148-.383,1.99-.383,1.99l-.766,1a20.787,20.787,0,0,0-.077-2.564,5.6,5.6,0,0,1-.153-.651c-.077-.421-.191-.88-.229-1.033-.115-.268-4.593-1.569-8.573.268,0,0,.038.344.038.727,0,.459-.038.957-.268,1.033-.383.115-.191,2.6-.191,2.6l-.651-.727s-.153-1.263-.344-2.755v-.038q-.077-.5-.115-1.033c-.077-1.531.038-4.248,1.99-5.855,1.34-.536,3.444-1.033,6.927.038a2.721,2.721,0,0,1,1.033.268C787.105,171.557,786.684,175.882,786.684,175.882Z" transform="translate(-774.957 -168.244)" fill="#e8734d"/>
            </g>
            <path id="_Path_30" data-name="&lt;Path&gt;" d="M782.6,213.2a3.429,3.429,0,0,0,2.832,1.11,3.778,3.778,0,0,0,2.832-1.072,3.457,3.457,0,0,1-2.832,1.952A3.545,3.545,0,0,1,782.6,213.2Z" transform="translate(-767.598 -195.995)" fill="#c78d71"/>
            <path id="_Path_31" data-name="&lt;Path&gt;" d="M787.237,219.984c-.689,1.072-2.181,3.253-3.9,3.1a5.756,5.756,0,0,1-4.133-2.717A10.387,10.387,0,0,1,787.237,219.984Z" transform="translate(-765.499 -199.794)" fill="#eea987"/>
            <path id="_Path_32" data-name="&lt;Path&gt;" d="M793.9,219.7l-2.449,4.4L790,221.847a14.51,14.51,0,0,0,3.406-2.947Z" transform="translate(-772.166 -199.514)" fill="#eddad3"/>
            <path id="_Path_33" data-name="&lt;Path&gt;" d="M779.48,219.8a9.84,9.84,0,0,0,3.483,2.6l-1.569,2.3L778.6,220.68Z" transform="translate(-765.129 -200.069)" fill="#eddad3"/>
            <path id="_Path_34" data-name="&lt;Path&gt;" d="M787.963,226.6l1.225,1.914a2.5,2.5,0,0,1-2.488-.077Z" transform="translate(-770.129 -204.267)" fill="#5073ab"/>
            <path id="_Path_35" data-name="&lt;Path&gt;" d="M810.18,225.4c-.191.765-.536,1.875-1.378,4.937q-.383.344-.765.651l-.919.689A22.514,22.514,0,0,1,796.9,235.62c.344-7.769,1.263-14.62,1.263-14.62q1.11.268,2.067.574h0a46.875,46.875,0,0,1,9.568,3.6h0Z" transform="translate(-776.425 -200.81)" fill="#323657"/>
            <path id="_Path_36" data-name="&lt;Path&gt;" d="M757.915,236.154a22.169,22.169,0,0,1-9.185-4.21,23.776,23.776,0,0,1-2.258-1.99q-.191-.191-.383-.421c-.421-1.646-.651-2.756-.689-2.794,0,0,2.794-1.837,12.591-4.439h0C757.991,222.53,757.991,228.806,757.915,236.154Z" transform="translate(-744.635 -201.612)" fill="#323657"/>
            <path id="_Path_37" data-name="&lt;Path&gt;" d="M787.147,230.989c-.115,2.028-.115,6.009-.077,10.525h-.727q-1.11,0-2.143-.077a72.543,72.543,0,0,1,1.454-10.448l.191-.689,1.3.23Z" transform="translate(-768.585 -206.551)" fill="#5073ab"/>
            <g id="_Group_43" data-name="&lt;Group&gt;" transform="translate(31.612 24.591)">
              <path id="_Path_38" data-name="&lt;Path&gt;" d="M829.291,234.911a23.61,23.61,0,0,1-2.526,2.526q-.383.344-.765.651l2.143-5.588A7.315,7.315,0,0,1,829.291,234.911Z" transform="translate(-826 -232.5)" fill="#323657"/>
            </g>
            <g id="_Group_44" data-name="&lt;Group&gt;" transform="translate(0 25.127)">
              <path id="_Path_39" data-name="&lt;Path&gt;" d="M745.237,237.115q-.191-.191-.383-.421a18.1,18.1,0,0,1-1.454-1.646,2.5,2.5,0,0,1,.765-1.148Z" transform="translate(-743.4 -233.9)" fill="#323657"/>
            </g>
          </g>
        </g>
        <path id="_Path_40" data-name="&lt;Path&gt;" d="M391.77,128.2H366.626a2.523,2.523,0,0,1-2.526-2.526v-1.952a2.523,2.523,0,0,1,2.526-2.526H391.77a2.523,2.523,0,0,1,2.526,2.526v1.952A2.523,2.523,0,0,1,391.77,128.2Z" transform="translate(-284.418 -95.176)" fill="#f5f7ff"/>
        <g id="_Group_45" data-name="&lt;Group&gt;" transform="translate(224.194 130.619)">
          <path id="_Path_41" data-name="&lt;Path&gt;" d="M776.144,411.722A17.222,17.222,0,1,1,758.922,394.5,17.223,17.223,0,0,1,776.144,411.722Z" transform="translate(-741.7 -394.5)" fill="#eef0f7"/>
          <g id="_Group_46" data-name="&lt;Group&gt;" transform="translate(16.342 10.371)">
            <path id="_Path_42" data-name="&lt;Path&gt;" d="M785.28,435.339a.89.89,0,0,1-.88-.88V422.48a.866.866,0,0,1,.88-.88.89.89,0,0,1,.88.88v11.979A.917.917,0,0,1,785.28,435.339Z" transform="translate(-784.4 -421.6)" fill="#949494"/>
          </g>
          <g id="_Group_47" data-name="&lt;Group&gt;" transform="translate(10.371 16.38)">
            <path id="_Path_43" data-name="&lt;Path&gt;" d="M781.659,439.022H769.642a.858.858,0,0,1-.842-.88.849.849,0,0,1,.842-.842h12.017a.849.849,0,0,1,.842.842A.858.858,0,0,1,781.659,439.022Z" transform="translate(-768.8 -437.3)" fill="#949494"/>
          </g>
        </g>
        <g id="_Group_48" data-name="&lt;Group&gt;" transform="translate(191.893 91.736)">
          <g id="_Group_49" data-name="&lt;Group&gt;">
            <path id="_Path_44" data-name="&lt;Path&gt;" d="M670.044,309.05h-9.376a3.381,3.381,0,0,1-3.368-3.406v-9.376a3.348,3.348,0,0,1,3.368-3.368h9.376a3.349,3.349,0,0,1,3.368,3.368v9.376A3.381,3.381,0,0,1,670.044,309.05Z" transform="translate(-657.3 -292.9)" fill="#ffbf55"/>
          </g>
          <g id="_Group_50" data-name="&lt;Group&gt;" transform="translate(3.199 4.5)">
            <g id="_Group_51" data-name="&lt;Group&gt;">
              <g id="_Group_52" data-name="&lt;Group&gt;">
                <path id="_Path_45" data-name="&lt;Path&gt;" d="M670,311.792l-4.057-3.559a.8.8,0,0,1-.077-1.148.753.753,0,0,1,1.11-.077l2.909,2.526,4.095-4.593a.8.8,0,0,1,1.148-.077.832.832,0,0,1,.038,1.148Z" transform="translate(-665.658 -304.658)" fill="#f3f3f3"/>
              </g>
            </g>
          </g>
        </g>
        <g id="_Group_53" data-name="&lt;Group&gt;" transform="translate(191.893 112.402)">
          <g id="_Group_54" data-name="&lt;Group&gt;">
            <path id="_Path_46" data-name="&lt;Path&gt;" d="M670.044,363.05h-9.376a3.348,3.348,0,0,1-3.368-3.368v-9.376a3.381,3.381,0,0,1,3.368-3.406h9.376a3.381,3.381,0,0,1,3.368,3.406v9.376A3.349,3.349,0,0,1,670.044,363.05Z" transform="translate(-657.3 -346.9)" fill="#ffbf55"/>
          </g>
          <g id="_Group_55" data-name="&lt;Group&gt;" transform="translate(3.199 4.534)">
            <g id="_Group_56" data-name="&lt;Group&gt;">
              <g id="_Group_57" data-name="&lt;Group&gt;">
                <path id="_Path_47" data-name="&lt;Path&gt;" d="M670,365.848l-4.057-3.559a.787.787,0,1,1,1.033-1.186l2.909,2.488L673.979,359a.832.832,0,0,1,1.148-.038.786.786,0,0,1,.038,1.11Z" transform="translate(-665.658 -358.748)" fill="#f3f3f3"/>
              </g>
            </g>
          </g>
        </g>
        <g id="_Group_58" data-name="&lt;Group&gt;" transform="translate(191.893 133.107)">
          <g id="_Group_59" data-name="&lt;Group&gt;">
            <path id="_Path_48" data-name="&lt;Path&gt;" d="M670.044,417.15h-9.376a3.373,3.373,0,0,1-3.368-3.368v-9.415A3.373,3.373,0,0,1,660.668,401h9.376a3.373,3.373,0,0,1,3.368,3.368v9.415A3.373,3.373,0,0,1,670.044,417.15Z" transform="translate(-657.3 -401)" fill="#ffbf55"/>
          </g>
        </g>
        <g id="_Group_60" data-name="&lt;Group&gt;" transform="translate(122.048 107.049)">
          <path id="_Path_49" data-name="&lt;Path&gt;" d="M484.712,704.577a12.6,12.6,0,0,1,.536,3.483c-.115,1.072-.88.842-1.607,2.182s-.88,2.6-2.641,2.679c-1.722.077-6.2.727-6.2-1.607,0-2.181,2.679-3.483,3.368-4.21a12.018,12.018,0,0,0,1.493-2.6Z" transform="translate(-474.8 -562.29)" fill="#131c24"/>
          <path id="_Path_50" data-name="&lt;Path&gt;" d="M492.2,701.9l.153,1.531a9.67,9.67,0,0,1-5.358-.076l.115-1.11Z" transform="translate(-482.331 -560.685)" fill="#4f4946"/>
          <path id="_Path_51" data-name="&lt;Path&gt;" d="M562.953,704.5a11.109,11.109,0,0,0,1.531,2.6c.689.727,3.33,2.028,3.33,4.21.038,2.335-4.439,1.684-6.2,1.607s-1.914-1.339-2.641-2.679-1.493-1.11-1.607-2.182a12.218,12.218,0,0,1,.574-3.483Z" transform="translate(-525.754 -562.29)" fill="#131c24"/>
          <path id="_Path_52" data-name="&lt;Path&gt;" d="M563.743,702.245l.115,1.11a9.67,9.67,0,0,1-5.358.076l.153-1.531Z" transform="translate(-526.467 -560.685)" fill="#4f4946"/>
          <path id="_Path_53" data-name="&lt;Path&gt;" d="M515.683,552.316c0,2.909,2.717,29.392,2.717,29.392-.306,1-6.965.88-8,.383s-4.057-26.751-4.248-29.7c-.191-2.909-4.516-28.4-5.435-28.282-.918.077-5.243,27.364-5.97,29.622-.727,2.22-4.018,28.627-4.018,28.627-2.3,1.263-7.731-.344-7.731-.344s1.148-27.1,1.3-27.9c.191-1.225-.038-4.478.5-11.749.5-6.468,2.181-20.59,3.253-28.206q.077-.421.115-.8c.23-1.493.383-2.564.459-3.1l.038-.344q.459-.191.919-.344c7.616-2.564,22.082-2.373,22.082-2.373s.191,2.6.23,2.717q.038.23.077.689c.077.689.23,1.684.383,2.87h0v.115c.5,4.133,1.225,10.218,1.148,10.831-.077,1,2.181,24.991,2.181,27.9Z" transform="translate(-479.862 -440.493)" fill="#293e4f"/>
          <g id="_Group_61" data-name="&lt;Group&gt;" transform="translate(6.812 20.508)">
            <path id="_Path_54" data-name="&lt;Path&gt;" d="M522.681,391.9l-3.712,13.395q-.191.651-.459,1.607v.038A52.773,52.773,0,0,0,516.864,417c-.153,2.756.383,13.854.383,13.854a37.386,37.386,0,0,1-14.122,1.569s-9.109-.191-8.343-5.779c1.952-14.773.038-20.858-.23-22.35,0,0-1.072-6.812-1.952-12.821,2.564-.957,13.318-4.975,13.318-4.975l5.664.421S520.193,389.026,522.681,391.9Z" transform="translate(-492.6 -386.5)" fill="#d9c7c1"/>
          </g>
          <g id="_Group_62" data-name="&lt;Group&gt;" transform="translate(16.265 1.5)">
            <path id="_Path_55" data-name="&lt;Path&gt;" d="M524.036,336.9s5.511.919,4.593,9.568c-.957,8.649-5.817,7.884-6.162,7.884s-4.9.115-5.167-10.486C517.3,343.863,517.262,336.056,524.036,336.9Z" transform="translate(-517.3 -336.834)" fill="#eea987"/>
          </g>
          <g id="_Group_63" data-name="&lt;Group&gt;" transform="translate(18.14 15.525)">
            <path id="_Path_56" data-name="&lt;Path&gt;" d="M529.471,374.482s-.191,3.559.153,4.325-4.439,3.215-7.425.421a29.547,29.547,0,0,0,.421-5.243C522.43,372.607,529.471,374.482,529.471,374.482Z" transform="translate(-522.2 -373.479)" fill="#eea987"/>
          </g>
          <g id="_Group_64" data-name="&lt;Group&gt;" transform="translate(27.335 8.404)">
            <path id="_Path_57" data-name="&lt;Path&gt;" d="M546.6,355.151s.612-.651.8.038c.23.651-.957,3.559-.88,3.712,0,0-.115.23-.268.115A30.239,30.239,0,0,1,546.6,355.151Z" transform="translate(-546.223 -354.873)" fill="#eea987"/>
          </g>
          <g id="_Group_65" data-name="&lt;Group&gt;" transform="translate(15.462 8.164)">
            <path id="_Path_58" data-name="&lt;Path&gt;" d="M516.349,358.437c-.153.115-.344-.153-.344-.153-.115-.191-.995-3.1-.765-3.751.268-.651.842,0,.842,0A31.279,31.279,0,0,1,516.349,358.437Z" transform="translate(-515.201 -354.244)" fill="#eea987"/>
          </g>
          <g id="_Group_66" data-name="&lt;Group&gt;" transform="translate(15.893)">
            <path id="_Path_59" data-name="&lt;Path&gt;" d="M528.487,340.869c-.191,1.186-.383,2.067-.383,2.067l-.8,1.033a22.811,22.811,0,0,0-.077-2.679,4.127,4.127,0,0,1-.153-.651,6.075,6.075,0,0,0-.268-1.072c-.076-.268-4.707-1.646-8.841.268a4.245,4.245,0,0,1,0,.765c0,.459-.038.957-.23,1.033-.421.153-.23,2.755-.23,2.755l-.651-.765s-.191-1.339-.383-2.87v-.038q-.077-.536-.115-1.072c-.115-1.569.038-4.4,2.067-6.047,1.378-.612,5.128-1.186,7.195.038a14.458,14.458,0,0,1,1.339.918C529.252,337.042,528.487,340.869,528.487,340.869Z" transform="translate(-516.326 -332.913)" fill="#e8734d"/>
          </g>
          <path id="_Path_60" data-name="&lt;Path&gt;" d="M524.3,379.6a3.55,3.55,0,0,0,2.947,1.186,3.9,3.9,0,0,0,2.909-1.11,3.514,3.514,0,0,1-2.947,1.99A3.6,3.6,0,0,1,524.3,379.6Z" transform="translate(-505.356 -361.733)" fill="#c78d71"/>
          <path id="_Path_61" data-name="&lt;Path&gt;" d="M529.043,386.63c-.727,1.11-2.258,3.368-4.018,3.215a6.022,6.022,0,0,1-4.325-2.832A10.751,10.751,0,0,1,529.043,386.63Z" transform="translate(-503.134 -365.662)" fill="#eea987"/>
          <path id="_Path_62" data-name="&lt;Path&gt;" d="M536.018,386.4l-2.526,4.554-1.493-2.3a15.57,15.57,0,0,0,3.521-3.062Z" transform="translate(-510.109 -365.436)" fill="#eddad3"/>
          <path id="_Path_63" data-name="&lt;Path&gt;" d="M521.08,386.5a10.451,10.451,0,0,0,3.636,2.717l-1.646,2.373-2.87-4.057Z" transform="translate(-502.825 -365.992)" fill="#eddad3"/>
          <path id="_Path_64" data-name="&lt;Path&gt;" d="M529.84,393.6l1.263,1.952a2.678,2.678,0,0,1-2.6-.038Z" transform="translate(-507.948 -370.375)" fill="#5073ab"/>
          <path id="_Path_65" data-name="&lt;Path&gt;" d="M497.706,502.483c13.05,2.3,22.121-.383,22.121-.383l.23,2.832c-15.691,2.411-22.657-.153-22.657-.153Z" transform="translate(-488.751 -437.35)" fill="#1a2833"/>
          <path id="_Path_66" data-name="&lt;Path&gt;" d="M551.111,392.369s-4.363,21.011-4.439,23.8c-.115,2.794,3.368,21.7,3.368,21.7-1.493,1.875-7.578,2.449-7.578,2.449s-3.368-19.595-3.6-30.043a173.8,173.8,0,0,1,1.378-22.58C549.427,390.073,551.111,392.369,551.111,392.369Z" transform="translate(-514.332 -366.733)" fill="#385369"/>
          <path id="_Path_67" data-name="&lt;Path&gt;" d="M501.752,389.3s-.038,11.52-.268,21.968c-.191,10.448-1.569,29.928-1.569,29.928s-7.118-1.033-8.611-2.909c0,0,2.488-18.332,2.411-21.126-.115-2.794-3.215-23.613-3.215-23.613s1.072-1.531,11.252-4.248Z" transform="translate(-484.492 -367.72)" fill="#385369"/>
          <path id="_Path_68" data-name="&lt;Path&gt;" d="M526.448,507.577H522.2V504.4h4.248Z" transform="translate(-504.06 -438.77)" fill="#3e5e78"/>
          <path id="_Path_69" data-name="&lt;Path&gt;" d="M528.326,397.63c-.344,5.97.268,35.669.268,35.669l-1.952,3.062-1.493-2.947s-.421-3.712-.23-16.61c.153-12.9,2.067-19.4,2.067-19.4Z" transform="translate(-505.707 -372.72)" fill="#5073ab"/>
          <path id="_Path_70" data-name="&lt;Path&gt;" d="M551.2,440.7s2.794-1.416,3.177-1.684a38.549,38.549,0,0,1,5.7-.918c.612,0,.612.5.459.651s-4.86.957-4.937,1.072c-.115.115.383.038.383.038s5.052-.077,5.434.268c.344.344-.077.689-.268.765,0,0,.459.536-.077.727a8.054,8.054,0,0,1-1.263.383s.689.344.23.651c-.421.306-5.817,1.952-5.817,1.952s-1.99-3.827-3.023-3.9Z" transform="translate(-521.961 -397.842)" fill="#eea886"/>
          <path id="_Path_71" data-name="&lt;Path&gt;" d="M538.1,422.954c-3.674.842-12.132-.574-15.385-1.263-.651-.153-1.454-.306-2.22-.459-1.34-.268-2.717-.536-3.827-.727-1.378-.23-2.373-.421-2.373-.421s17.8-3.98,18.447-3.98-1.646-10.41-1.646-10.41-2.3-8.687-1.11-12.094c0,0,4.516,1.378,5.97,2.411.8.574,1.416,4.363,1.952,6.927.727,3.253,2.334,10.639,2.526,12.209C540.63,416.563,541.74,422.074,538.1,422.954Z" transform="translate(-499.183 -370.375)" fill="#385369"/>
          <path id="_Path_72" data-name="&lt;Path&gt;" d="M486.25,414.94a13.139,13.139,0,0,1,1.646-.421c2.373-.5,21.126-2.641,21.126-2.641.077.383,1.454,4.937,1.454,4.937s-24.3,5.894-26.063,6.162c-1.76.306-4.975.383-5.32-1-.268-1.072.344-8.152.651-10.142.268-1.569,1.263-6.391,1.684-8a63.523,63.523,0,0,1,1.99-7.578c.268-.689,5.7-2.564,5.7-2.564,1.263,4.286-2.87,21.24-2.87,21.24Z" transform="translate(-477.409 -370.436)" fill="#385369"/>
          <path id="_Path_73" data-name="&lt;Path&gt;" d="M491.51,440.405a13.5,13.5,0,0,1-2.985-1c-.344-.383.383-.574.383-.574a7.108,7.108,0,0,1-1.148-.651c-.5-.306.077-.727.077-.727-.191-.115-.5-.536-.077-.8.421-.23,5.358.918,5.358.918s.459.153.383.038c-.038-.153-4.593-1.646-4.669-2.067a.5.5,0,0,1,.651-.574,37.156,37.156,0,0,1,5.358,2.1c.344.344,2.794,2.335,2.794,2.335A44.327,44.327,0,0,0,491.51,440.405Z" transform="translate(-482.669 -395.901)" fill="#eea886"/>
          <path id="_Path_74" data-name="&lt;Path&gt;" d="M532.555,456.3l-8.228,3.636c-1.34-.268-2.717-.536-3.827-.727Z" transform="translate(-503.01 -409.079)" fill="#263947"/>
          <path id="_Path_75" data-name="&lt;Path&gt;" d="M541.6,336.4s1.378-.689,2.1.23c.765.88.842,5.817-.077,7.692C542.748,346.236,543.781,337.625,541.6,336.4Z" transform="translate(-516.035 -334.913)" fill="#e8734d"/>
        </g>
        <path id="_Path_76" data-name="&lt;Path&gt;" d="M401.149,575.96H398.7V464.4h2.449Z" transform="translate(-305.776 -307.029)" fill="#706865"/>
        <path id="_Path_77" data-name="&lt;Path&gt;" d="M295.766,482.428H229.748a7.35,7.35,0,0,1-7.348-7.348V350.048a7.35,7.35,0,0,1,7.348-7.348h66.018a7.358,7.358,0,0,1,7.386,7.348V475.08A7.358,7.358,0,0,1,295.766,482.428Z" transform="translate(-196.948 -231.905)" fill="#bdafaa"/>
        <path id="_Path_78" data-name="&lt;Path&gt;" d="M297.241,480.635h-61.77a7.3,7.3,0,0,1-7.271-7.31V355.871a7.268,7.268,0,0,1,7.271-7.271h61.77a7.268,7.268,0,0,1,7.272,7.271V473.325A7.3,7.3,0,0,1,297.241,480.635Z" transform="translate(-200.528 -235.547)" fill="#fffaea"/>
        <path id="_Path_79" data-name="&lt;Path&gt;" d="M320.473,345.335H296.4V339.9h24.073Z" transform="translate(-242.627 -230.177)" fill="#706865"/>
        <g id="_Group_67" data-name="&lt;Group&gt;" transform="translate(33.259 197.632)">
          <g id="_Group_68" data-name="&lt;Group&gt;" transform="translate(0 0)">
            <g id="_Group_69" data-name="&lt;Group&gt;">
              <g id="_Group_70" data-name="&lt;Group&gt;">
                <path id="_Compound_Path_4" data-name="&lt;Compound Path&gt;" d="M298.829,611.775H249.995a7.187,7.187,0,0,1-7.195-7.195V576.757a7.179,7.179,0,0,1,7.195-7.157h48.834a7.179,7.179,0,0,1,7.195,7.157V604.58A7.187,7.187,0,0,1,298.829,611.775Zm-48.834-41.256a6.247,6.247,0,0,0-6.276,6.238V604.58a6.28,6.28,0,0,0,6.276,6.276h48.834a6.272,6.272,0,0,0,6.238-6.276V576.757a6.239,6.239,0,0,0-6.238-6.238Z" transform="translate(-242.8 -569.6)" fill="#ffeaaa" fill-rule="evenodd"/>
              </g>
            </g>
          </g>
        </g>
        <g id="_Group_71" data-name="&lt;Group&gt;" transform="translate(45.429 172.526)">
          <g id="_Group_72" data-name="&lt;Group&gt;" transform="translate(0 0)">
            <path id="_Path_80" data-name="&lt;Path&gt;" d="M274.638,504H274.6Q274.677,504.038,274.638,504Z" transform="translate(-274.6 -504)" fill="#323657"/>
          </g>
        </g>
        <g id="_Group_73" data-name="&lt;Group&gt;" transform="translate(79.912 153.582)">
          <path id="_Compound_Path_5" data-name="&lt;Compound Path&gt;" d="M372.66,470.421a7.96,7.96,0,1,1,7.96-7.96A7.979,7.979,0,0,1,372.66,470.421Zm0-14.964a7.023,7.023,0,1,0,7.042,7A7.04,7.04,0,0,0,372.66,455.457Z" transform="translate(-364.7 -454.5)" fill="#ffeaaa" fill-rule="evenodd"/>
        </g>
        <g id="_Group_74" data-name="&lt;Group&gt;" transform="translate(79.912 171.952)">
          <path id="_Compound_Path_6" data-name="&lt;Compound Path&gt;" d="M372.66,518.421a7.96,7.96,0,1,1,7.96-7.96A8,8,0,0,1,372.66,518.421Zm0-15a7.042,7.042,0,1,0,7.042,7.042A7.048,7.048,0,0,0,372.66,503.419Z" transform="translate(-364.7 -502.5)" fill="#ffeaaa" fill-rule="evenodd"/>
        </g>
        <g id="_Group_75" data-name="&lt;Group&gt;" transform="translate(31.384 120.669)">
          <path id="_Path_81" data-name="&lt;Path&gt;" d="M258.528,409.756a17.349,17.349,0,0,1-1.99-.115,15.484,15.484,0,0,1-2.143-.306,20.166,20.166,0,0,1-8.42-3.865,15.733,15.733,0,0,1-2.1-1.837l-.383-.383a18.722,18.722,0,0,1-1.3-1.531A20.63,20.63,0,0,1,258.528,368.5v.919a19.731,19.731,0,0,0-15.615,31.765q.612.765,1.263,1.454l.344.344a21.152,21.152,0,0,0,1.99,1.76,19.389,19.389,0,0,0,8.075,3.674,13.422,13.422,0,0,0,2.028.306,16.048,16.048,0,0,0,1.914.115,5.252,5.252,0,0,0,.651-.038,13.61,13.61,0,0,0,1.76-.115,19.978,19.978,0,0,0,8.955-3.483q.421-.306.8-.612.344-.268.689-.574a20.254,20.254,0,0,0,2.22-2.22,19.677,19.677,0,0,0,4.593-12.668,18.57,18.57,0,0,0-.191-2.909l.919-.115a19.728,19.728,0,0,1,.23,3.023,20.575,20.575,0,0,1-4.86,13.28,21.977,21.977,0,0,1-2.3,2.335q-.383.306-.727.574a7.343,7.343,0,0,1-.842.651,20.756,20.756,0,0,1-9.376,3.636,15.108,15.108,0,0,1-1.875.115A5.252,5.252,0,0,1,258.528,409.756Z" transform="translate(-237.9 -368.5)" fill="#ffeaaa"/>
        </g>
        <path id="_Path_82" data-name="&lt;Path&gt;" d="M281.482,417.108a18.868,18.868,0,0,1-2.258,2.258l-.689.612-.842.612a20.114,20.114,0,0,1-9.185,3.559,13.905,13.905,0,0,1-1.8.115,5.906,5.906,0,0,1-.651.038,16.371,16.371,0,0,1-1.952-.115,14.433,14.433,0,0,1-2.1-.306,19.95,19.95,0,0,1-8.228-3.751,22.694,22.694,0,0,1-2.028-1.8l-.383-.383q-.651-.727-1.263-1.493a2.151,2.151,0,0,1,.689-1.033c2.411-1.607,10.525-3.789,12.132-4.286h0c.038-.421.268-1.952.344-3.215a9.472,9.472,0,0,1-1.722-4.439h0c-.115.115-.268-.153-.268-.153-.115-.153-.88-2.679-.651-3.215.115-.344.306-.268.5-.191a1.774,1.774,0,0,1-.038-.344v-.038q-.077-.459-.115-.957c-.077-1.339.038-3.789,1.8-5.2,1.186-.536,3.1-.957,6.238,0,0,0,.727.038.919.268,1.99,2.143,1.569,6.047,1.569,6.047l-.077.459c.153-.115.383-.153.5.191.191.574-.88,3.1-.8,3.215,0,0-.077.191-.191.115a8.708,8.708,0,0,1-1.76,4.172,13.958,13.958,0,0,0,.153,3.023s6.965,1.722,10.792,3.865h.038q.077.038.077.077l.23.23A10.146,10.146,0,0,1,281.482,417.108Z" transform="translate(-214.047 -262.837)" fill="#ffeaaa"/>
        <g id="_Group_76" data-name="&lt;Group&gt;" transform="translate(223.122 146.124)">
          <g id="_Group_77" data-name="&lt;Group&gt;" transform="translate(59.55 51.048)">
            <path id="_Path_83" data-name="&lt;Path&gt;" d="M894.5,568.4h23.881v1.416H894.5Z" transform="translate(-894.5 -568.4)" fill="#e2d2ca"/>
          </g>
          <g id="_Group_78" data-name="&lt;Group&gt;" transform="translate(78.15 56.176)">
            <path id="_Path_84" data-name="&lt;Path&gt;" d="M945.167,646.287H943.1V581.8h2.067Z" transform="translate(-943.1 -581.8)" fill="#706865"/>
          </g>
          <g id="_Group_79" data-name="&lt;Group&gt;" transform="translate(46.691 50.665)">
            <path id="_Path_85" data-name="&lt;Path&gt;" d="M860.9,567.4h16.571v2.028H860.9Z" transform="translate(-860.9 -567.4)" fill="#ccbdb7"/>
          </g>
          <g id="_Group_80" data-name="&lt;Group&gt;" transform="translate(51.819 33.367)">
            <path id="_Path_86" data-name="&lt;Path&gt;" d="M874.3,522.2h6.315v19.1H874.3Z" transform="translate(-874.3 -522.2)" fill="#aa8301"/>
          </g>
          <g id="_Group_81" data-name="&lt;Group&gt;" transform="translate(0 52.502)">
            <path id="_Path_87" data-name="&lt;Path&gt;" d="M738.9,572.2h92v3.674h-92Z" transform="translate(-738.9 -572.2)" fill="#b59074"/>
          </g>
          <g id="_Group_82" data-name="&lt;Group&gt;" transform="translate(99.499 24.151)">
            <path id="_Path_88" data-name="&lt;Path&gt;" d="M1010.143,499.567c1.722-1.3,2.449-1.8,3.827-1.186,1.8.842,2.87,18.791,2.449,21.508s-13.663,11.443-13.663,11.443-3.674-5.281-3.865-5.97c-.23-.651,6.659-4.21,8.381-5.281,2.794-1.684,1.76-15.806,1.76-15.806s-1.3-2.947,1.11-4.707Z" transform="translate(-998.885 -498.12)" fill="#323657"/>
          </g>
          <g id="_Group_83" data-name="&lt;Group&gt;" transform="translate(84.388 30.572)">
            <g id="_Group_84" data-name="&lt;Group&gt;">
              <g id="_Group_85" data-name="&lt;Group&gt;">
                <path id="_Path_89" data-name="&lt;Path&gt;" d="M960.548,518.648l-1.148-.421s1.454-3.406,2.067-3.33c.765.115,1.646.344,1.646.344Z" transform="translate(-959.4 -514.897)" fill="#ead8cf"/>
              </g>
            </g>
          </g>
          <g id="_Group_86" data-name="&lt;Group&gt;" transform="translate(85.268 30.343)">
            <g id="_Group_87" data-name="&lt;Group&gt;">
              <g id="_Group_88" data-name="&lt;Group&gt;">
                <path id="_Path_90" data-name="&lt;Path&gt;" d="M961.7,518.893c.153-.115,2.488-4.593,2.488-4.593l4.975.689-2.679,5.281Z" transform="translate(-961.7 -514.3)" fill="#da9b5b"/>
              </g>
            </g>
          </g>
          <g id="_Group_89" data-name="&lt;Group&gt;" transform="translate(93.381 111.477)">
            <g id="_Group_90" data-name="&lt;Group&gt;">
              <g id="_Group_91" data-name="&lt;Group&gt;">
                <path id="_Path_91" data-name="&lt;Path&gt;" d="M988.3,726.3l-.344,3.406s-4.554.689-4.593.268c-.038-.459-.459-3.291-.459-3.291C983.474,726.26,988.3,726.3,988.3,726.3Z" transform="translate(-982.9 -726.298)" fill="#424773"/>
              </g>
            </g>
          </g>
          <g id="_Group_92" data-name="&lt;Group&gt;" transform="translate(85.944 114.578)">
            <g id="_Group_93" data-name="&lt;Group&gt;">
              <g id="_Group_94" data-name="&lt;Group&gt;">
                <path id="_Path_92" data-name="&lt;Path&gt;" d="M975.994,734.4s1.493,5.894.88,6.851c-.612.919-3.406.5-9.147.574-5.779.038-4.21-2.373-3.6-2.947.8-.765,2.985-1.072,4.363-1.8a12.918,12.918,0,0,0,2.832-2.488A12.1,12.1,0,0,0,975.994,734.4Z" transform="translate(-963.467 -734.4)" fill="#292c47"/>
              </g>
            </g>
          </g>
          <g id="_Group_95" data-name="&lt;Group&gt;" transform="translate(64.41 111.516)">
            <g id="_Group_96" data-name="&lt;Group&gt;">
              <g id="_Group_97" data-name="&lt;Group&gt;">
                <path id="_Path_93" data-name="&lt;Path&gt;" d="M912.6,726.4l-.383,3.406s-4.516.689-4.554.23c-.077-.421-.459-3.253-.459-3.253C907.736,726.36,912.6,726.4,912.6,726.4Z" transform="translate(-907.2 -726.398)" fill="#424773"/>
              </g>
            </g>
          </g>
          <g id="_Group_98" data-name="&lt;Group&gt;" transform="translate(54.298 114.616)">
            <g id="_Group_99" data-name="&lt;Group&gt;">
              <g id="_Group_100" data-name="&lt;Group&gt;">
                <path id="_Path_94" data-name="&lt;Path&gt;" d="M895.942,734.5s1.531,5.894.88,6.812c-.612.919-3.368.459-9.147.574-8.075.23-7.118-2.028-6.506-2.6.8-.765,5.894-1.378,7.31-2.143a11.621,11.621,0,0,0,2.794-2.449C894.679,735.036,895.942,734.5,895.942,734.5Z" transform="translate(-880.778 -734.5)" fill="#292c47"/>
              </g>
            </g>
          </g>
          <g id="_Group_101" data-name="&lt;Group&gt;" transform="translate(60.762 62.529)">
            <g id="_Group_102" data-name="&lt;Group&gt;">
              <g id="_Group_103" data-name="&lt;Group&gt;">
                <path id="_Path_95" data-name="&lt;Path&gt;" d="M948.964,612.484c-4.4,5.932-10.18,4.439-17.107,3.368-6.927-1.033-13.739,1.416-23.231,1.186l-.574,33.411h-7.96c-.689-11.137-3.75-40.338-1.76-41.562,2.526-1.531,22.656-6.544,26.369-7.118s20.169-3.368,20.169-3.368C949.155,599.7,948.964,612.484,948.964,612.484Z" transform="translate(-897.669 -598.4)" fill="#292c47"/>
              </g>
            </g>
          </g>
          <g id="_Group_104" data-name="&lt;Group&gt;" transform="translate(89.313 66.089)">
            <g id="_Group_105" data-name="&lt;Group&gt;">
              <g id="_Group_106" data-name="&lt;Group&gt;">
                <path id="_Path_96" data-name="&lt;Path&gt;" d="M972.932,614.627c2.335-1.416,19.863-5.817,25.335-6.927l-6.238,14.5a44.715,44.715,0,0,1-8.841.574l-.727,32.951-7.731.5C974,645.091,970.942,615.852,972.932,614.627Z" transform="translate(-972.27 -607.7)" fill="#292c47"/>
              </g>
            </g>
          </g>
          <g id="_Group_107" data-name="&lt;Group&gt;" transform="translate(90.831 0.593)">
            <g id="_Group_108" data-name="&lt;Group&gt;">
              <g id="_Group_109" data-name="&lt;Group&gt;">
                <path id="_Path_97" data-name="&lt;Path&gt;" d="M989.885,441.477c.306,2.679-.689,6.812-1.952,9.721-1.263,2.947-5.626,3.9-8.687,3.062-3.023-.842-4.057-9.721-1.76-14.39s8.3-3.023,8.3-3.023C987.4,437.5,989.579,438.8,989.885,441.477Z" transform="translate(-976.236 -436.565)" fill="#eea886"/>
              </g>
            </g>
          </g>
          <g id="_Group_110" data-name="&lt;Group&gt;" transform="translate(95.091 13.237)">
            <g id="_Group_111" data-name="&lt;Group&gt;">
              <g id="_Group_112" data-name="&lt;Group&gt;">
                <path id="_Path_98" data-name="&lt;Path&gt;" d="M995.188,470.673a17.766,17.766,0,0,0,.574,7.922s-8.764.191-8.381-.574.306-4.325.306-4.325S995.953,467.076,995.188,470.673Z" transform="translate(-987.368 -469.602)" fill="#eea886"/>
              </g>
            </g>
          </g>
          <g id="_Group_113" data-name="&lt;Group&gt;" transform="translate(90.639)">
            <g id="_Group_114" data-name="&lt;Group&gt;">
              <g id="_Group_115" data-name="&lt;Group&gt;">
                <path id="_Path_99" data-name="&lt;Path&gt;" d="M988.465,447.983s-.459.957-2.755.8c-2.258-.153-5.243-2.909-6.238-3.138-.957-.268-1-.8-1-.8l-.536.919-.995.153s.689-2.755-.766-3.712c-1.493-1,.651-8.8,8.075-6.889,0,0,5.664,1.033,5.741,4.172C990.073,442.663,989.575,446.3,988.465,447.983Z" transform="translate(-975.734 -435.014)" fill="#3a3f47"/>
              </g>
            </g>
          </g>
          <g id="_Group_116" data-name="&lt;Group&gt;" transform="translate(94.644 19.242)">
            <g id="_Group_117" data-name="&lt;Group&gt;">
              <g id="_Group_118" data-name="&lt;Group&gt;">
                <path id="_Path_100" data-name="&lt;Path&gt;" d="M986.2,487.63s.038-1.454.689-1.607c.651-.115,6.889-1,7.693-.651l.344,1.914S993.4,488.242,986.2,487.63Z" transform="translate(-986.2 -485.292)" fill="#e2d2ca"/>
              </g>
            </g>
          </g>
          <g id="_Group_119" data-name="&lt;Group&gt;" transform="translate(92.767 7.569)">
            <g id="_Group_120" data-name="&lt;Group&gt;">
              <g id="_Group_121" data-name="&lt;Group&gt;">
                <path id="_Path_101" data-name="&lt;Path&gt;" d="M981.373,456.4c.153-1.186,1.493-2.564,2.3-.689.766,1.837-.536,4.554-1.416,4.4C981.411,459.962,981.144,458.01,981.373,456.4Z" transform="translate(-981.295 -454.793)" fill="#eea886"/>
              </g>
            </g>
          </g>
          <g id="_Group_122" data-name="&lt;Group&gt;" transform="translate(68.429 38.725)">
            <g id="_Group_123" data-name="&lt;Group&gt;">
              <g id="_Group_124" data-name="&lt;Group&gt;">
                <path id="_Path_102" data-name="&lt;Path&gt;" d="M917.738,536.2Z" transform="translate(-917.7 -536.2)" fill="#323657"/>
              </g>
            </g>
          </g>
          <g id="_Group_125" data-name="&lt;Group&gt;" transform="translate(102.145 1.716)">
            <g id="_Group_126" data-name="&lt;Group&gt;">
              <g id="_Group_127" data-name="&lt;Group&gt;">
                <path id="_Path_103" data-name="&lt;Path&gt;" d="M1005.8,439.5s7.386-.344,1.3,11.137Z" transform="translate(-1005.8 -439.497)" fill="#3a3f47"/>
              </g>
            </g>
          </g>
          <g id="_Group_128" data-name="&lt;Group&gt;" transform="translate(94.874 109.794)">
            <g id="_Group_129" data-name="&lt;Group&gt;">
              <path id="_Path_104" data-name="&lt;Path&gt;" d="M1010.451,730.626l-.536,1.531L986.8,725l1.11-3.1Z" transform="translate(-986.8 -721.9)" fill="#918783"/>
            </g>
          </g>
          <g id="_Group_130" data-name="&lt;Group&gt;" transform="translate(94.109 86.679)">
            <g id="_Group_131" data-name="&lt;Group&gt;">
              <path id="_Path_105" data-name="&lt;Path&gt;" d="M984.8,661.5h2.6v25.106h-2.6Z" transform="translate(-984.8 -661.5)" fill="#918783"/>
            </g>
          </g>
          <g id="_Group_132" data-name="&lt;Group&gt;" transform="translate(87.679 85.339)">
            <g id="_Group_133" data-name="&lt;Group&gt;">
              <path id="_Path_106" data-name="&lt;Path&gt;" d="M968,658h15.462v1.493H968Z" transform="translate(-968 -658)" fill="#5e5854"/>
            </g>
          </g>
          <g id="_Group_134" data-name="&lt;Group&gt;" transform="translate(72.064 109.603)">
            <g id="_Group_135" data-name="&lt;Group&gt;">
              <path id="_Path_107" data-name="&lt;Path&gt;" d="M949.857,721.4l.995,3.291-23.116,7.157-.536-1.531Z" transform="translate(-927.2 -721.4)" fill="#918783"/>
            </g>
          </g>
          <g id="_Group_136" data-name="&lt;Group&gt;" transform="translate(88.368 109.603)">
            <g id="_Group_137" data-name="&lt;Group&gt;">
              <path id="_Path_108" data-name="&lt;Path&gt;" d="M976.153,721.4l.995,3.291-7.348,8.8v-1.8Z" transform="translate(-969.8 -721.4)" fill="#918783"/>
            </g>
          </g>
          <g id="_Group_138" data-name="&lt;Group&gt;" transform="translate(69.921 118.52)">
            <g id="_Group_139" data-name="&lt;Group&gt;">
              <path id="_Path_109" data-name="&lt;Path&gt;" d="M923.743,744.7a2.143,2.143,0,1,1,0,4.286,2.143,2.143,0,1,1,0-4.286Z" transform="translate(-921.6 -744.7)" fill="#bfb2ac"/>
            </g>
          </g>
          <g id="_Group_140" data-name="&lt;Group&gt;" transform="translate(88.177 118.52)">
            <g id="_Group_141" data-name="&lt;Group&gt;">
              <path id="_Path_110" data-name="&lt;Path&gt;" d="M971.443,744.7a2.143,2.143,0,1,1,0,4.286,2.143,2.143,0,0,1,0-4.286Z" transform="translate(-969.3 -744.7)" fill="#bfb2ac"/>
            </g>
          </g>
          <g id="_Group_142" data-name="&lt;Group&gt;" transform="translate(116.382 118.52)">
            <g id="_Group_143" data-name="&lt;Group&gt;">
              <path id="_Path_111" data-name="&lt;Path&gt;" d="M1045.143,744.7a2.143,2.143,0,1,1-2.143,2.143A2.148,2.148,0,0,1,1045.143,744.7Z" transform="translate(-1043 -744.7)" fill="#bfb2ac"/>
            </g>
          </g>
          <g id="_Group_144" data-name="&lt;Group&gt;" transform="translate(76.963 79.751)">
            <path id="_Path_112" data-name="&lt;Path&gt;" d="M940,646.232v-.077a2.744,2.744,0,0,1,2.755-2.756h31.153a2.777,2.777,0,0,1,2.794,2.756v.077a2.777,2.777,0,0,1-2.794,2.755H942.755A2.744,2.744,0,0,1,940,646.232Z" transform="translate(-940 -643.4)" fill="#e2d2ca"/>
          </g>
          <g id="_Group_145" data-name="&lt;Group&gt;" transform="translate(11.787 56.176)">
            <path id="_Path_113" data-name="&lt;Path&gt;" d="M769.7,581.8h2.067v64.487H769.7Z" transform="translate(-769.7 -581.8)" fill="#706865"/>
          </g>
          <g id="_Group_146" data-name="&lt;Group&gt;" transform="translate(27.823 4.281)">
            <path id="_Path_114" data-name="&lt;Path&gt;" d="M811.6,481.754v-32.8a2.744,2.744,0,0,1,2.756-2.756h48.8a2.744,2.744,0,0,1,2.755,2.756v32.8a2.769,2.769,0,0,1-2.755,2.756h-48.8A2.769,2.769,0,0,1,811.6,481.754Z" transform="translate(-811.6 -446.2)" fill="#dfab01"/>
          </g>
          <g id="_Group_147" data-name="&lt;Group&gt;" transform="translate(29.966 6.348)">
            <path id="_Path_115" data-name="&lt;Path&gt;" d="M817.2,451.6h50.02v30.234H817.2Z" transform="translate(-817.2 -451.6)" fill="#f5f7ff"/>
          </g>
          <g id="_Group_148" data-name="&lt;Group&gt;" transform="translate(29.966 6.348)">
            <path id="_Path_116" data-name="&lt;Path&gt;" d="M817.2,451.6h50.02v2.411H817.2Z" transform="translate(-817.2 -451.6)" fill="#cecfd6"/>
          </g>
          <g id="_Group_149" data-name="&lt;Group&gt;" transform="translate(31.803 10.557)">
            <path id="_Path_117" data-name="&lt;Path&gt;" d="M822,485.065V464.322a1.715,1.715,0,0,1,1.722-1.722h2.6a1.715,1.715,0,0,1,1.722,1.722v20.743a1.707,1.707,0,0,1-1.722,1.684h-2.6A1.707,1.707,0,0,1,822,485.065Z" transform="translate(-822 -462.6)" fill="#cecfd6"/>
          </g>
          <g id="_Group_150" data-name="&lt;Group&gt;" transform="translate(67.587 10.557)">
            <path id="_Path_118" data-name="&lt;Path&gt;" d="M915.5,463.94v-.421a.931.931,0,0,1,.919-.919h9.147a.907.907,0,0,1,.918.919v.421a.907.907,0,0,1-.918.918h-9.147A.931.931,0,0,1,915.5,463.94Z" transform="translate(-915.5 -462.6)" fill="#cecfd6"/>
          </g>
          <g id="_Group_151" data-name="&lt;Group&gt;" transform="translate(67.587 14.308)">
            <path id="_Path_119" data-name="&lt;Path&gt;" d="M915.5,491.536V474.314a1.9,1.9,0,0,1,1.914-1.914h7.195a1.887,1.887,0,0,1,1.875,1.914v17.222a1.878,1.878,0,0,1-1.875,1.875h-7.195A1.887,1.887,0,0,1,915.5,491.536Z" transform="translate(-915.5 -472.4)" fill="#cecfd6"/>
          </g>
          <g id="_Group_152" data-name="&lt;Group&gt;" transform="translate(53.235 37.73)">
            <path id="_Path_120" data-name="&lt;Path&gt;" d="M879.76,533.6a1.741,1.741,0,1,1-1.76,1.76A1.724,1.724,0,0,1,879.76,533.6Z" transform="translate(-878 -533.6)" fill="#59524f"/>
          </g>
          <g id="_Group_153" data-name="&lt;Group&gt;" transform="translate(43.744 47.642)">
            <path id="_Path_121" data-name="&lt;Path&gt;" d="M853.2,564.4v-.651s.957-4.248,7.731-4.248,6.621,4.9,6.621,4.9Z" transform="translate(-853.2 -559.5)" fill="#806200"/>
          </g>
          <g id="_Group_154" data-name="&lt;Group&gt;" transform="translate(46.035 45.645)">
            <g id="_Group_155" data-name="&lt;Group&gt;">
              <path id="_Path_122" data-name="&lt;Path&gt;" d="M872.854,560.183a22.3,22.3,0,0,1-2.794.115c-.918.077-5.434,1.646-6.391,1.569-.919-.077-1.339-.957-1.646-1.34-.344-.344-1.11-.574-1.11-1.531,0-1,3.6-2.3,3.6-2.3a29.335,29.335,0,0,0-4.325.765c-.344.153-.842.23-.995-.536-.191-.727,4.86-2.258,5.626-2.6.765-.383,3.98,1.8,4.516,2.143a7.2,7.2,0,0,0,2.028.421,25.961,25.961,0,0,1,1.493,3.291Z" transform="translate(-859.186 -554.283)" fill="#eea886"/>
            </g>
          </g>
          <g id="_Group_156" data-name="&lt;Group&gt;" transform="translate(56.676 21.235)">
            <g id="_Group_157" data-name="&lt;Group&gt;">
              <g id="_Group_158" data-name="&lt;Group&gt;">
                <path id="_Path_123" data-name="&lt;Path&gt;" d="M915.315,492.835c4.707-.8,9.644-1.99,9.644-1.99l8.726-.344s8.037,1.76,11.213,3.177c.268.153.306,7.157,1.11,8.994l-2.6,5.549s-1.531,10.945-1.837,15.806c-.153,2.22.383,21.623.383,21.623s-.766.383-6.736,1.033-20.9-.23-20.972-.957c-.077-.689,2.87-26.216,3.023-27.555.191-2.028-.574-11.4-.574-11.4-1.148,1.493-4.018,8.3-7,11.558-1.76,1.914-10.448,3.1-12.094,3.138-3.559.115-10.065.842-10.257.5-.153-.23-.574-5.779-.191-5.932.383-.115,12.476-.8,15.576-2.449,1.11-.612,4.516-8,4.516-8S912.713,494.021,915.315,492.835Z" transform="translate(-886.992 -490.5)" fill="#323657"/>
              </g>
            </g>
          </g>
          <g id="_Group_159" data-name="&lt;Group&gt;" transform="translate(96.902 40.753)">
            <path id="_Path_124" data-name="&lt;Path&gt;" d="M992.1,571.237V546.82a5.333,5.333,0,0,1,5.32-5.32h14.7a5.308,5.308,0,0,1,5.32,5.32v24.417a5.308,5.308,0,0,1-5.32,5.32h-14.7A5.333,5.333,0,0,1,992.1,571.237Z" transform="translate(-992.1 -541.5)" fill="#e2d2ca"/>
          </g>
          <g id="_Group_160" data-name="&lt;Group&gt;" transform="translate(100.002 63.135)">
            <path id="_Path_125" data-name="&lt;Path&gt;" d="M1000.2,619.392a1.413,1.413,0,0,1,1.416-1.416,8.833,8.833,0,0,0,6.889-2.794c4.21-4.631,3.406-13.548,3.406-13.663a1.4,1.4,0,1,1,2.794-.268c.038.421.957,10.218-4.095,15.806a11.61,11.61,0,0,1-8.994,3.75,1.413,1.413,0,0,1-1.416-1.416Z" transform="translate(-1000.2 -599.982)" fill="#e2d2ca"/>
          </g>
          <g id="_Group_161" data-name="&lt;Group&gt;" transform="translate(41.562 11.629)">
            <path id="_Path_126" data-name="&lt;Path&gt;" d="M861.66,472.48a7.08,7.08,0,1,1-7.08-7.08A7.113,7.113,0,0,1,861.66,472.48Z" transform="translate(-847.5 -465.4)" fill="#eef0f7"/>
            <g id="_Group_162" data-name="&lt;Group&gt;" transform="translate(1.493 3.121)">
              <g id="_Group_163" data-name="&lt;Group&gt;" transform="translate(0.995 6.217)">
                <path id="_Path_127" data-name="&lt;Path&gt;" d="M863.185,491.446l-.536,1.875a6.977,6.977,0,0,1-3.215,1.225,4.935,4.935,0,0,1-.612.038.721.721,0,0,1-.23.038,7.051,7.051,0,0,1-1.416-.153,7.232,7.232,0,0,1-2.908-1.339c-.077-.612-.191-1.3-.268-1.914.5-.191,2.143-.765,3.215-1.11l.038-.038h.038a1.476,1.476,0,0,0,.191-.077.339.339,0,0,1,.153-.038,2.04,2.04,0,0,0,.421-.153h.038l1.416.115h.344a3.605,3.605,0,0,0,.651.191h0A7.055,7.055,0,0,1,863.185,491.446Z" transform="translate(-854 -489.8)" fill="#d9c7c1"/>
              </g>
              <g id="_Group_164" data-name="&lt;Group&gt;" transform="translate(3.904 0.422)">
                <path id="_Path_128" data-name="&lt;Path&gt;" d="M863.628,474.675s1.684.306,1.416,2.909c-.306,2.641-1.76,2.411-1.875,2.411s-1.492.038-1.569-3.177C861.6,476.818,861.6,474.445,863.628,474.675Z" transform="translate(-861.6 -474.659)" fill="#eea987"/>
              </g>
              <g id="_Group_165" data-name="&lt;Group&gt;" transform="translate(4.478 4.685)">
                <path id="_Path_129" data-name="&lt;Path&gt;" d="M865.32,486.1a5.484,5.484,0,0,0,.038,1.339c.115.23-1.339.957-2.258.115a7.858,7.858,0,0,0,.115-1.607c-.038-.421,2.1.153,2.1.153Z" transform="translate(-863.1 -485.797)" fill="#eea987"/>
              </g>
              <g id="_Group_166" data-name="&lt;Group&gt;" transform="translate(7.265 2.534)">
                <path id="_Path_130" data-name="&lt;Path&gt;" d="M870.5,480.263s.191-.191.23,0a4.229,4.229,0,0,1-.268,1.148s-.038.077-.077.038A10.389,10.389,0,0,1,870.5,480.263Z" transform="translate(-870.384 -480.178)" fill="#eea987"/>
              </g>
              <g id="_Group_167" data-name="&lt;Group&gt;" transform="translate(3.66 2.458)">
                <path id="_Path_131" data-name="&lt;Path&gt;" d="M861.322,481.249c-.038.038-.115-.038-.115-.038a3.393,3.393,0,0,1-.23-1.148c.076-.191.268,0,.268,0a11.642,11.642,0,0,1,.077,1.186Z" transform="translate(-860.964 -479.978)" fill="#eea987"/>
              </g>
              <g id="_Group_168" data-name="&lt;Group&gt;" transform="translate(3.781)">
                <path id="_Path_132" data-name="&lt;Path&gt;" d="M865,475.946c-.076.383-.115.651-.115.651l-.268.306a5.631,5.631,0,0,0,0-.8c-.038-.077-.038-.153-.077-.23a.592.592,0,0,0-.077-.306,3.544,3.544,0,0,0-2.679.076v.23c0,.153,0,.306-.077.306-.115.077-.077.842-.077.842l-.191-.23s-.038-.421-.115-.88h0a1.764,1.764,0,0,0-.038-.344,2.2,2.2,0,0,1,.651-1.837,3.183,3.183,0,0,1,2.181.038s.268,0,.306.077A3.189,3.189,0,0,1,865,475.946Z" transform="translate(-861.279 -473.556)" fill="#e8734d"/>
              </g>
              <path id="_Path_133" data-name="&lt;Path&gt;" d="M863.7,487.7a1.036,1.036,0,0,0,.919.344,1.124,1.124,0,0,0,.88-.344s-.306.651-.88.612A1.133,1.133,0,0,1,863.7,487.7Z" transform="translate(-858.993 -482.287)" fill="#c78d71"/>
              <path id="_Path_134" data-name="&lt;Path&gt;" d="M865.164,489.865c-.23.306-.689,1-1.225.957a1.879,1.879,0,0,1-1.34-.842A3.279,3.279,0,0,1,865.164,489.865Z" transform="translate(-858.314 -483.496)" fill="#eea987"/>
              <path id="_Path_135" data-name="&lt;Path&gt;" d="M867.325,489.768l-.766,1.378-.459-.727a4.278,4.278,0,0,0,1.072-.919Z" transform="translate(-860.474 -483.398)" fill="#eddad3"/>
              <path id="_Path_136" data-name="&lt;Path&gt;" d="M862.768,489.8a2.882,2.882,0,0,0,1.11.8l-.5.727-.88-1.263Z" transform="translate(-858.252 -483.583)" fill="#eddad3"/>
              <path id="_Path_137" data-name="&lt;Path&gt;" d="M865.421,491.9l.383.612a.873.873,0,0,1-.8,0Z" transform="translate(-859.795 -484.88)" fill="#5073ab"/>
              <path id="_Path_138" data-name="&lt;Path&gt;" d="M872.41,491.578v.038c-.038.153-.23.727-.421,1.531a1.023,1.023,0,0,0-.268.191l-.306.23a6.977,6.977,0,0,1-3.215,1.225c.115-2.449.421-4.593.421-4.593q.344.077.651.153h0A17.751,17.751,0,0,1,872.3,491.5h0Z" transform="translate(-861.771 -483.83)" fill="#323657"/>
              <path id="_Path_139" data-name="&lt;Path&gt;" d="M855.942,494.963a7.232,7.232,0,0,1-2.908-1.339,7.427,7.427,0,0,1-.689-.612.6.6,0,0,0-.153-.115c-.115-.536-.191-.88-.191-.919a15.816,15.816,0,0,1,3.98-1.378h0C855.98,490.677,855.98,492.628,855.942,494.963Z" transform="translate(-851.77 -484.077)" fill="#323657"/>
              <path id="_Path_140" data-name="&lt;Path&gt;" d="M865.119,493.33v3.291a.723.723,0,0,1-.23.038,6.233,6.233,0,0,1-.689-.038,30.669,30.669,0,0,1,.459-3.291l.077-.23.421.077A.34.34,0,0,1,865.119,493.33Z" transform="translate(-859.301 -485.62)" fill="#5073ab"/>
              <g id="_Group_169" data-name="&lt;Group&gt;" transform="translate(9.95 7.747)">
                <path id="_Path_141" data-name="&lt;Path&gt;" d="M878.433,494.565a7.525,7.525,0,0,1-.766.8,1.021,1.021,0,0,0-.268.191s.421-1.186.689-1.76C878.28,493.915,878.357,494.336,878.433,494.565Z" transform="translate(-877.4 -493.8)" fill="#323657"/>
              </g>
              <g id="_Group_170" data-name="&lt;Group&gt;" transform="translate(0 7.901)">
                <path id="_Path_142" data-name="&lt;Path&gt;" d="M851.974,495.233a.6.6,0,0,0-.153-.115q-.229-.268-.421-.536a.819.819,0,0,1,.23-.383Z" transform="translate(-851.4 -494.2)" fill="#323657"/>
              </g>
            </g>
          </g>
        </g>
        <g id="_Group_171" data-name="&lt;Group&gt;" transform="translate(193.424 119.59)">
          <path id="_Path_143" data-name="&lt;Path&gt;" d="M711.6,722.742s.153,6.162-.727,6.544-4.21-1.76-5.664-3.9c-1.11-1.569.459-4.707,1.531-7.348l-1.569,2.334-.574-.383,2.985-4.363c.23-1.148,2.832-3.215,4.095-2.6a6.052,6.052,0,0,1,2.181,2.067S710.647,717.307,711.6,722.742Z" transform="translate(-688.029 -580.021)" fill="#1d3b54"/>
          <g id="_Group_172" data-name="&lt;Group&gt;" transform="translate(19.558 133)">
            <path id="_Path_144" data-name="&lt;Path&gt;" d="M718.679,715.267a29.549,29.549,0,0,0-1.646,3.751c-.574,1.646-.689,6.162-1.033,6.468s-3.138-1.11-3.521-2.794.765-5.052,1.837-6.851A10.693,10.693,0,0,1,716.5,713.2,2.784,2.784,0,0,1,718.679,715.267Z" transform="translate(-712.403 -713.2)" fill="#de9673"/>
          </g>
          <path id="_Path_145" data-name="&lt;Path&gt;" d="M731.653,615.1s-1.684,9.07-1.684,11.252a19.891,19.891,0,0,1-1.99,8.343c-1.378,2.641-7.425,20.628-7.96,22.695-.536,2.1-.995,4.1-.995,4.1S716,660.107,716,658.117c0-1.952,2.641-18.294,3.1-21.508s4.286-19.71,4.286-19.71Z" transform="translate(-695.066 -519.644)" fill="#de9673"/>
          <path id="_Path_146" data-name="&lt;Path&gt;" d="M714.046,612.983s.574,7.539.5,9.529c-.038,1.99-.957,6.43-.957,7.616s0,25.718.957,28.665c1,2.985-2.756.957-2.756.957s-6.506-16.15-6.506-22.886.8-10.065.344-14.352A51.435,51.435,0,0,0,703.1,612.6Z" transform="translate(-687.103 -518.101)" fill="#eea886"/>
          <path id="_Path_147" data-name="&lt;Path&gt;" d="M717.707,518.883s2.6,17.528,2.067,22.733-1.339,17.452-1.339,17.452c-8.956,2.832-20.7,1.493-20.7,1.493-.077-.918-1.3-9.683-1.914-12.438-.727-3.1-2.717-13.892-1.8-19.633a23.579,23.579,0,0,1,4.4-9.989Z" transform="translate(-681.349 -460.014)" fill="#eb4747"/>
          <path id="_Path_148" data-name="&lt;Path&gt;" d="M732,745.841c-.459.842-4.44,1.263-6.927.536-1.875-.536-2.641-4.019-3.483-6.774l.23,2.87-.689.038-.421-5.358c-.536-1.033.191-4.286,1.569-4.631a6.268,6.268,0,0,1,3.023.23s-1.11,3.789,3.1,7.463C728.407,740.215,732.464,744.961,732,745.841Z" transform="translate(-697.867 -592.06)" fill="#1d3b54"/>
          <path id="_Path_149" data-name="&lt;Path&gt;" d="M739.637,413.641s-1.072,6.2-.153,8.267c.88,2.1-4.784-2.411-4.784-2.411S737.034,412.646,739.637,413.641Z" transform="translate(-706.609 -395.225)" fill="#754836"/>
          <path id="_Path_150" data-name="&lt;Path&gt;" d="M721.708,391.519s-9.568,8.764-6.812,2.143c2.794-6.621-1.3-7.846-.191-17.6C715.853,366.337,725,368.4,725,368.4Z" transform="translate(-694.077 -367.248)" fill="#754836"/>
          <path id="_Path_151" data-name="&lt;Path&gt;" d="M727.183,368.3a7.947,7.947,0,0,1,8.113,7.5,20.625,20.625,0,0,1-.651,2.985c-.459,1.3.612,5.2.306,5.4a7.726,7.726,0,0,1-1.607.383s-1.454,4.21-2.947,4.133a12.326,12.326,0,0,1-9.568-6.736C718.3,376.6,717.73,368.49,727.183,368.3Z" transform="translate(-697.064 -367.296)" fill="#eea886"/>
          <g id="_Group_173" data-name="&lt;Group&gt;" transform="translate(4.593 73.748)">
            <g id="_Group_174" data-name="&lt;Group&gt;">
              <path id="_Path_152" data-name="&lt;Path&gt;" d="M673.3,562.865s.23-3.751,1.225-4.325.421.574.421.574-.574,2.717-.689,3.827A4.039,4.039,0,0,1,673.3,562.865Z" transform="translate(-673.3 -558.38)" fill="#1d3b54"/>
            </g>
          </g>
          <g id="_Group_175" data-name="&lt;Group&gt;" transform="translate(4.739 67.25)">
            <g id="_Group_176" data-name="&lt;Group&gt;">
              <path id="_Path_153" data-name="&lt;Path&gt;" d="M678.129,543.964a23.688,23.688,0,0,0,.8,3.291c.5,1.607.957,2.143.765,3.062-.153.689-.957,1.225-1.148,1s-.306-2.947-1.416-2.947c-1.148.038.306,3.406-.344,3.138-.689-.23-3.253-1.646-3.1-3.023s1.186-2.373,1.148-4.439a4.475,4.475,0,0,1,.5-2.641Z" transform="translate(-673.683 -541.4)" fill="#eea886"/>
            </g>
          </g>
          <g id="_Group_177" data-name="&lt;Group&gt;" transform="translate(7.539 74.091)">
            <g id="_Group_178" data-name="&lt;Group&gt;">
              <path id="_Path_154" data-name="&lt;Path&gt;" d="M681.765,559.285s1.493.421,1.416,5.511l-1.722-.306a17.6,17.6,0,0,0-.459-4.325S681.077,559.17,681.765,559.285Z" transform="translate(-681 -559.276)" fill="#1d3b54"/>
            </g>
          </g>
          <g id="_Group_179" data-name="&lt;Group&gt;" transform="translate(1.263 76.971)">
            <g id="_Group_180" data-name="&lt;Group&gt;">
              <path id="_Path_155" data-name="&lt;Path&gt;" d="M677.842,591.064l-13.2-7.922L664.6,566.8l13.28,3.789Z" transform="translate(-664.6 -566.8)" fill="#eddad3"/>
            </g>
          </g>
          <g id="_Group_181" data-name="&lt;Group&gt;" transform="translate(0 76.971)">
            <path id="_Path_156" data-name="&lt;Path&gt;" d="M675.8,591.064l-1.646.306-12.859-8,.153-16.495,1.11-.077Z" transform="translate(-661.3 -566.8)" fill="#eddad3"/>
          </g>
          <path id="_Path_157" data-name="&lt;Path&gt;" d="M714.084,426.139s3.559,1.454,4.172,1.875c.651.459,1.914,5.549,2.22,6.009s3.368,4.248,2.947,7.31a7.914,7.914,0,0,1-2.6,4.631c-.88.957-1.684,6.047-1.952,6.812-.306.765.574,10.716.574,10.716s-10.371,4.057-19.671-2.832c0,0,1.875-6.659,1.875-7.884,0-1.186-1.186-9.644-4.439-14.658-3.215-4.975.574-10.295,3.062-10.907,2.449-.651,7.2-2.411,7.2-2.411Z" transform="translate(-682.702 -402.174)" fill="#eb4747"/>
          <path id="_Path_158" data-name="&lt;Path&gt;" d="M685.778,442.9c-1.569,3.9-5.7,12.9-5.817,17.987s-.344,13.854-.344,13.854l-4.937.919s-.115-9.223.344-14.122c.5-4.937.8-11.06,1.148-12.17.344-1.072,1.837-7.807,2.526-9.376.651-1.569.5-5.167,3.1-8.19s7.807-2.717,7.807-2.717c3.98,2.449-2.258,9.874-3.827,13.816Z" transform="translate(-669.551 -404.815)" fill="#eb4747"/>
          <path id="_Path_159" data-name="&lt;Path&gt;" d="M749.381,432.5a4.227,4.227,0,0,1,3.368,2.411c1.072,2.258,1.492,4.172,1.8,4.746.268.536,4.21,8.037,4.439,9.721.23,1.646-.153,4.669-2.22,5.473s-9.568.919-9.568.919,1.875-3.865.153-5.855c0,0,5.435-1,6.7-1.11C755.428,448.65,747.659,434.184,749.381,432.5Z" transform="translate(-714.325 -406.927)" fill="#eb4747"/>
          <g id="_Group_182" data-name="&lt;Group&gt;" transform="translate(22.58 26.989)">
            <path id="_Path_160" data-name="&lt;Path&gt;" d="M733.733,436.2l9.338,22.695-12.629,5.932L720.3,441.213Z" transform="translate(-720.3 -436.2)" fill="#1d3b54"/>
          </g>
          <g id="_Group_183" data-name="&lt;Group&gt;" transform="translate(26.447 43.598)">
            <path id="_Path_161" data-name="&lt;Path&gt;" d="M731.207,480.94c-.536-.038-1.072-.842-.651-.919.421-.038,1.8-.421,1.8-.421S731.7,480.94,731.207,480.94Z" transform="translate(-730.405 -479.6)" fill="#eea886"/>
          </g>
          <g id="_Group_184" data-name="&lt;Group&gt;" transform="translate(26.444 42.986)">
            <path id="_Path_162" data-name="&lt;Path&gt;" d="M732.541,484.391a1.631,1.631,0,0,1-.88-1.186,2.61,2.61,0,0,1-.651-1.339,1.194,1.194,0,0,1-.612-.957c-.038-.344.727-1.186.8-1.263a6.6,6.6,0,0,1,.919-1.033.481.481,0,0,1,.191-.115c.612-.383,4.746-.5,4.746-.5l1,1.531,1.263,1.952s-1.914,1.837-2.526,2.3a5.074,5.074,0,0,1-1.493.727,2.242,2.242,0,0,0-.306.153c-.344.191-.8.5-.8.5a2.932,2.932,0,0,1-.919.191C732.771,485.233,732.541,484.391,732.541,484.391Z" transform="translate(-730.396 -478)" fill="#eea886"/>
          </g>
          <path id="_Path_163" data-name="&lt;Path&gt;" d="M747.6,462.568s6.162-1.11,7.846-1.263a21.8,21.8,0,0,0-.191-4.018,15.466,15.466,0,0,0-1.8-4.286l3.138,2.87s2.6,4.975,2.641,6.162a5.779,5.779,0,0,1-1.148,4.746c-1.531,1.837-8.8.995-8.8.995S749.9,465.553,747.6,462.568Z" transform="translate(-714.572 -419.582)" fill="#eb4747"/>
          <path id="_Path_164" data-name="&lt;Path&gt;" d="M731.312,411.031s-.191.574-.421,1.454c-.115.459-.268.957-.383,1.531a10.9,10.9,0,0,0-.153,4.554s-3.291,1.033-5.779-3.674c0,0,1.263-4.975-.115-8.037-1.339-3.1,6.851,4.172,6.851,4.172Z" transform="translate(-700.197 -390.625)" fill="#eea886"/>
          <path id="_Path_165" data-name="&lt;Path&gt;" d="M734.489,374.184a21.009,21.009,0,0,1-7.654,2.909c-3.789.421-5.894,6.162-5.894,6.162s-5.932-9.262-1.148-14.964S735.522,366.989,734.489,374.184Z" transform="translate(-696.256 -365.68)" fill="#754836"/>
          <path id="_Path_166" data-name="&lt;Path&gt;" d="M732.429,396.174c-.957.306-2.488-3.176-1.263-4.172a1.181,1.181,0,0,1,2.028.919C733.194,393.648,733.424,395.868,732.429,396.174Z" transform="translate(-704.147 -381.7)" fill="#eea886"/>
          <path id="_Path_167" data-name="&lt;Path&gt;" d="M730.381,425.591s1.531,4.593-2.1,4.593c-3.636-.038-5.243-2.909-6.277-5.473a13.516,13.516,0,0,1,2.449-.919C725.253,423.677,730.381,425.591,730.381,425.591Z" transform="translate(-698.769 -401.549)" fill="#eea886"/>
          <path id="_Path_168" data-name="&lt;Path&gt;" d="M683.922,572.174l-1.722.23v-.8Z" transform="translate(-674.201 -492.792)" fill="#1d3b54"/>
          <path id="_Path_169" data-name="&lt;Path&gt;" d="M674.257,569.546l-.957.115a1.76,1.76,0,0,1,.038-.383A2.259,2.259,0,0,1,674.257,569.546Z" transform="translate(-668.708 -491.35)" fill="#1d3b54"/>
          <g id="_Group_185" data-name="&lt;Group&gt;" transform="translate(24.22 140.127)">
            <path id="_Path_170" data-name="&lt;Path&gt;" d="M727.806,732.388a39.839,39.839,0,0,0,1.072,4.018c.612,1.646,3.406,5.281,3.33,5.741s-3.177,1.148-4.554.038c-1.378-1.072-2.6-4.478-2.909-6.544a15.854,15.854,0,0,1-.115-3.444S726.505,731.24,727.806,732.388Z" transform="translate(-724.586 -731.823)" fill="#eea886"/>
          </g>
          <path id="_Path_171" data-name="&lt;Path&gt;" d="M734.36,415.509c-.115.459-.268,1-.421,1.531A16.118,16.118,0,0,1,729.5,412.6,18.466,18.466,0,0,0,734.36,415.509Z" transform="translate(-703.399 -394.643)" fill="#a77860"/>
        </g>
        <path id="_Path_172" data-name="&lt;Path&gt;" d="M371.1,188.7h35.324a5.21,5.21,0,0,1,5.2,5.2V208.18a5.21,5.21,0,0,1-5.2,5.2H371.1a5.21,5.21,0,0,1-5.2-5.2V193.9A5.21,5.21,0,0,1,371.1,188.7Z" transform="translate(-285.529 -136.843)" fill="#dfe1e8"/>
        <g id="_Group_186" data-name="&lt;Group&gt;" transform="translate(56.834 175.817)">
          <g id="_Group_187" data-name="&lt;Group&gt;" transform="translate(0 0)">
            <path id="_Path_173" data-name="&lt;Path&gt;" d="M304.438,512.6H304.4Q304.477,512.638,304.438,512.6Z" transform="translate(-304.4 -512.6)" fill="#323657"/>
          </g>
        </g>
        <g id="_Group_188" data-name="&lt;Group&gt;" transform="translate(33.412 167.436)">
          <g id="_Group_189" data-name="&lt;Group&gt;" transform="translate(0 0)">
            <g id="_Group_190" data-name="&lt;Group&gt;">
              <path id="_Path_174" data-name="&lt;Path&gt;" d="M243.2,493.456v-1.072a1.707,1.707,0,0,1,1.722-1.684h33.755a1.674,1.674,0,0,1,1.684,1.684v1.072a1.674,1.674,0,0,1-1.684,1.684H244.922A1.707,1.707,0,0,1,243.2,493.456Z" transform="translate(-243.2 -490.7)" fill="#ffeaaa"/>
            </g>
          </g>
        </g>
        <g id="_Group_191" data-name="&lt;Group&gt;" transform="translate(33.412 175.435)">
          <g id="_Group_192" data-name="&lt;Group&gt;">
            <g id="_Group_193" data-name="&lt;Group&gt;">
              <path id="_Path_175" data-name="&lt;Path&gt;" d="M243.2,514.355v-1.033a1.715,1.715,0,0,1,1.722-1.722h33.755a1.683,1.683,0,0,1,1.684,1.722v1.033a1.674,1.674,0,0,1-1.684,1.684H244.922A1.707,1.707,0,0,1,243.2,514.355Z" transform="translate(-243.2 -511.6)" fill="#ffeaaa"/>
            </g>
          </g>
        </g>
        <g id="_Group_194" data-name="&lt;Group&gt;" transform="translate(33.412 183.472)">
          <g id="_Group_195" data-name="&lt;Group&gt;">
            <g id="_Group_196" data-name="&lt;Group&gt;">
              <path id="_Path_176" data-name="&lt;Path&gt;" d="M243.2,535.317v-1.033a1.707,1.707,0,0,1,1.722-1.684h33.755a1.674,1.674,0,0,1,1.684,1.684v1.033a1.683,1.683,0,0,1-1.684,1.722H244.922A1.715,1.715,0,0,1,243.2,535.317Z" transform="translate(-243.2 -532.6)" fill="#ffeaaa"/>
            </g>
          </g>
        </g>
        <path id="_Path_177" data-name="&lt;Path&gt;" d="M377.952,395.467h-8.075a3.169,3.169,0,0,1-3.177-3.176V367.377a3.169,3.169,0,0,1,3.177-3.177h8.075a3.193,3.193,0,0,1,3.176,3.177v24.914A3.193,3.193,0,0,1,377.952,395.467Z" transform="translate(-286.023 -245.177)" fill="#ffeaaa"/>
        <g id="_Group_197" data-name="&lt;Group&gt;" transform="translate(0 137.648)">
          <g id="_Group_198" data-name="&lt;Group&gt;" transform="translate(0.038 67.982)">
            <g id="_Group_199" data-name="&lt;Group&gt;">
              <g id="_Group_200" data-name="&lt;Group&gt;">
                <path id="_Path_178" data-name="&lt;Path&gt;" d="M161.164,591.151a5.175,5.175,0,0,1,.612,1.646,6.7,6.7,0,0,0,.765,1.952A22.679,22.679,0,0,1,163.46,598a17.773,17.773,0,0,0-.459,2.181c.077.459.344,1.378-.077,1.454-.421.038-.88-.727-.88-.727s.038.459-.306.612c-.727.306-1.072.038-1.072.038s-.268.5-.574.536a1.252,1.252,0,0,1-1.072-.153,1.3,1.3,0,0,1-.8.268,1.029,1.029,0,0,1-.88-.536s-.8.153-1.033-.23a2.94,2.94,0,0,1-.268-1.072,12.38,12.38,0,0,1,1-5.549,4.931,4.931,0,0,0-.268-4.325Z" transform="translate(-155.996 -590.5)" fill="#eea886"/>
              </g>
            </g>
          </g>
          <g id="_Group_201" data-name="&lt;Group&gt;" transform="translate(0 74.13)">
            <g id="_Group_202" data-name="&lt;Group&gt;">
              <path id="_Path_179" data-name="&lt;Path&gt;" d="M160.6,611.476c-.459,1.072-1.646.383-1.646.383a1.074,1.074,0,0,1-1.684-.268c-.765.191-1.033-.23-1.033-.23a4.06,4.06,0,0,1,.038-3.291c.5-.918,1.3.038,1.3.038s-.191-.957.612-1.11a.744.744,0,0,1,.957.574s.038-1.148.8-1c.8.115.689,1.072.689,1.072s.077-.957.8-.383.651,3.291.651,3.291A1,1,0,0,1,160.6,611.476Z" transform="translate(-155.896 -606.563)" fill="#db9c7c"/>
            </g>
          </g>
          <path id="_Path_180" data-name="&lt;Path&gt;" d="M170.6,479.738s-4.631,15.5-6.2,21.2c-.5,1.8-1.684,18.906-1.914,19.595-.191.689-6.085,1.646-6.085,1.646s.689-21.432.765-22.58c.077-1.186,6.506-25.106,8.381-25.948,1.416-.651,2.143-.115,3.9,1.186C171.938,476.715,170.6,479.738,170.6,479.738Z" transform="translate(-156.207 -450.219)" fill="#323657"/>
          <g id="_Group_203" data-name="&lt;Group&gt;" transform="translate(59.743 0.816)">
            <path id="_Path_181" data-name="&lt;Path&gt;" d="M312.536,422.769l-.536-.8L322.639,415l.536.8Z" transform="translate(-312 -415)" fill="#4da8f2"/>
          </g>
          <path id="_Path_182" data-name="&lt;Path&gt;" d="M331.546,420.243a2.514,2.514,0,0,1-.306.842s-.344.421-.574.727a1,1,0,0,0-.153.268,5.885,5.885,0,0,1-.88,1.339c-.5.536-2.488,2.143-2.488,2.143l-1.684-1.416-1.76-.8a32.724,32.724,0,0,1,1.416-4.784.6.6,0,0,1,.115-.153,5.828,5.828,0,0,1,1.11-.765c.077-.077,1-.727,1.3-.651a1.01,1.01,0,0,1,.8.689,2.715,2.715,0,0,1,1.225.765,1.613,1.613,0,0,1,1.033,1s.8.306.842.8Z" transform="translate(-259.479 -415.408)" fill="#efaa88"/>
          <g id="_Group_204" data-name="&lt;Group&gt;" transform="translate(5.053 134.956)">
            <g id="_Group_205" data-name="&lt;Group&gt;">
              <path id="_Path_183" data-name="&lt;Path&gt;" d="M174.688,765.881s-.421,2.947-.5,3.368c-.038.459-4.707-.23-4.707-.23L169.1,765.5S174.114,765.46,174.688,765.881Z" transform="translate(-169.1 -765.498)" fill="#424773"/>
            </g>
          </g>
          <g id="_Group_206" data-name="&lt;Group&gt;" transform="translate(4.335 138.133)">
            <g id="_Group_207" data-name="&lt;Group&gt;">
              <path id="_Path_184" data-name="&lt;Path&gt;" d="M173.107,774.03a11.976,11.976,0,0,0,2.909,2.526c1.416.765,3.674,1.072,4.516,1.875.612.574,2.22,3.062-3.712,3.023s-8.8.344-9.453-.612c-.612-.957.919-7.042.919-7.042A12.161,12.161,0,0,0,173.107,774.03Z" transform="translate(-167.222 -773.8)" fill="#292c47"/>
            </g>
          </g>
          <g id="_Group_208" data-name="&lt;Group&gt;" transform="translate(38.464 134.956)">
            <g id="_Group_209" data-name="&lt;Group&gt;">
              <path id="_Path_185" data-name="&lt;Path&gt;" d="M261.988,765.881s-.421,2.947-.5,3.368c-.038.459-4.707-.23-4.707-.23L256.4,765.5S261.375,765.46,261.988,765.881Z" transform="translate(-256.4 -765.498)" fill="#424773"/>
            </g>
          </g>
          <g id="_Group_210" data-name="&lt;Group&gt;" transform="translate(37.732 138.133)">
            <g id="_Group_211" data-name="&lt;Group&gt;">
              <path id="_Path_186" data-name="&lt;Path&gt;" d="M260.386,774.03a12.307,12.307,0,0,0,2.87,2.526c1.454.765,6.7,1.416,7.539,2.22.612.574,1.646,2.909-6.7,2.679-5.932-.153-8.8.344-9.453-.612s.918-7.042.918-7.042,1.339.536,4.822.23Z" transform="translate(-254.487 -773.8)" fill="#292c47"/>
            </g>
          </g>
          <g id="_Group_212" data-name="&lt;Group&gt;" transform="translate(4.349 59.716)">
            <g id="_Group_213" data-name="&lt;Group&gt;">
              <path id="_Path_187" data-name="&lt;Path&gt;" d="M188.095,586.007c-.23,2.488-6.7,24.532-8,27.632s-6.353,33.411-6.353,33.411l-6.009-.115s-.574-12.515-.459-16.457c.077-3.9,3.1-21.24,3.827-28.588.651-6.544,2.564-13.433,2.258-19.71-.344-6.315,4.057-13.28,4.057-13.28S188.325,583.558,188.095,586.007Z" transform="translate(-167.26 -568.9)" fill="#292c47"/>
            </g>
          </g>
          <g id="_Group_214" data-name="&lt;Group&gt;" transform="translate(12.287 58.538)">
            <g id="_Group_215" data-name="&lt;Group&gt;">
              <path id="_Path_188" data-name="&lt;Path&gt;" d="M213.259,567.956s3.33,17.26,3.751,21.087c.421,3.865.727,18.638.957,21.049.191,2.411,2.028,31.421,2.6,35.056h-7.692s-5.894-21.126-5.894-31.114c0-10.027-4.554-21.776-7.5-28.359-2.947-6.621-9.683-6.774-11.481-19.021C188,566.655,210.81,564.091,213.259,567.956Z" transform="translate(-188 -565.822)" fill="#292c47"/>
            </g>
          </g>
          <g id="_Group_216" data-name="&lt;Group&gt;" transform="translate(18.139 0.668)">
            <g id="_Group_217" data-name="&lt;Group&gt;">
              <path id="_Path_189" data-name="&lt;Path&gt;" d="M206.969,415.143s5.855-2.181,8.573,2.3,2.449,13.433-.5,14.543c-2.985,1.11-7.425.5-8.955-2.3-1.493-2.794-2.87-6.851-2.794-9.529C203.333,417.439,205.4,415.947,206.969,415.143Z" transform="translate(-203.292 -414.612)" fill="#eea886"/>
            </g>
          </g>
          <g id="_Group_218" data-name="&lt;Group&gt;" transform="translate(19.804 12.654)">
            <g id="_Group_219" data-name="&lt;Group&gt;">
              <path id="_Path_190" data-name="&lt;Path&gt;" d="M217.079,451.506a5.386,5.386,0,0,0,.153,2.373c.421.765-7.616.8-7.616.8a53.652,53.652,0,0,0-1.875-7.846c-1.225-3.6,9.338,4.669,9.338,4.669Z" transform="translate(-207.642 -445.93)" fill="#eea886"/>
            </g>
          </g>
          <g id="_Group_220" data-name="&lt;Group&gt;" transform="translate(17.64)">
            <g id="_Group_221" data-name="&lt;Group&gt;">
              <path id="_Path_191" data-name="&lt;Path&gt;" d="M201.992,418.084c-.191-3.176,5.358-4.707,5.358-4.707,7.233-2.526,10.065,5.09,8.688,6.162-1.378,1.11-.459,3.789-.459,3.789l-1-.038-.612-.88s0,.536-.957.88c-.918.344-3.712,3.33-5.97,3.712-2.258.344-2.794-.574-2.794-.574-1.263-1.569-2.067-5.167-2.258-8.343Z" transform="translate(-201.987 -412.867)" fill="#d88a51"/>
            </g>
          </g>
          <g id="_Group_222" data-name="&lt;Group&gt;" transform="translate(20.859 18.322)">
            <g id="_Group_223" data-name="&lt;Group&gt;">
              <path id="_Path_192" data-name="&lt;Path&gt;" d="M210.4,462.562V460.84c.842-.344,7.654.306,8.3.459.689.153.727,1.646.727,1.646C212.007,463.557,210.4,462.562,210.4,462.562Z" transform="translate(-210.4 -460.741)" fill="#e2d2ca"/>
            </g>
          </g>
          <g id="_Group_224" data-name="&lt;Group&gt;" transform="translate(27.367 7.232)">
            <g id="_Group_225" data-name="&lt;Group&gt;">
              <path id="_Path_193" data-name="&lt;Path&gt;" d="M229.01,436.1c-.727.191-1.99-1.99-1.493-3.6.536-1.646,1.875-.115,1.99.421C229.852,434.265,229.737,435.949,229.01,436.1Z" transform="translate(-227.405 -431.763)" fill="#eea886"/>
            </g>
          </g>
          <g id="_Group_226" data-name="&lt;Group&gt;" transform="translate(8.192 7.245)">
            <g id="_Group_227" data-name="&lt;Group&gt;">
              <path id="_Path_194" data-name="&lt;Path&gt;" d="M221.35,444.312a51.3,51.3,0,0,0,4.593-3.712c2.028-2.181,7.271-8.917,7.616-8.8.421.115,5.052,2.641,4.631,3.138-.383.842-3.559,4.746-7.425,9.338-1.072,1.3-4.937,5.014-5.855,5.855-3.368,2.985-15.844,8.8-17.26,9.874,0,0-.957,11.137-.727,13.2.115,1.378,3.215,27.708,3.1,28.435-.077.727-15.462,1.646-21.623.957a66.6,66.6,0,0,1-9.759-1.722s3.368-19.327,3.253-21.623c-.344-5.014-1.914-16.3-1.914-16.3l-2.679-5.7c.842-1.875.842-9.109,1.148-9.262,3.253-1.454,11.52-3.291,11.52-3.291l9.032.383s6.583,1.646,11.252,2.258C213.16,447.489,221.35,444.312,221.35,444.312Z" transform="translate(-177.3 -431.796)" fill="#323657"/>
            </g>
          </g>
          <g id="_Group_228" data-name="&lt;Group&gt;" transform="translate(16.729 1.735)">
            <g id="_Group_229" data-name="&lt;Group&gt;">
              <path id="_Path_195" data-name="&lt;Path&gt;" d="M203.011,417.4s-7.5.574-.23,11.826Z" transform="translate(-199.608 -417.4)" fill="#d88a51"/>
            </g>
          </g>
          <path id="_Path_196" data-name="&lt;Path&gt;" d="M339.8,414.815l1.148-.115-.612.919Z" transform="translate(-269.418 -413.998)" fill="#dfe1e8"/>
        </g>
      </g>
    </g>
  </g>
</svg>
