<svg xmlns="http://www.w3.org/2000/svg" width="422.4" height="425.838" viewBox="0 0 422.4 425.838">
  <g id="_4526727-ai" data-name="4526727-ai" transform="translate(0 5)">
    <g id="OBJECTS" transform="translate(0 -5)">
      <g id="_Group_" data-name="&lt;Group&gt;" transform="translate(78.056 84.529)">
        <path id="_Path_" data-name="&lt;Path&gt;" d="M502.022,437.294c-4.793,26.775-21.062,50.306-41.01,69H166.388a68.3,68.3,0,0,1-5.035-21.837c-1.017-17.721,3.728-35.2,8.473-52.292q8.473-30.745,16.995-61.443c4.067-14.622,8.134-29.777,6.1-44.835-4.019-29.971-31.472-54.519-29.777-84.732,1.453-25.468,23.531-44.98,46.336-56.552,21.5-10.894,45.949-17.576,69.867-14.09,23.87,3.486,46.869,18.544,55.487,41.107,11.814,30.794-3.68,69.771,16.075,96.207,8.909,11.862,23.241,18.3,37.137,23.58q21.716,8.28,44.157,14.429c14.138,3.873,28.809,7.311,41.107,15.445C497.18,377.111,507.106,409.067,502.022,437.294Z" transform="translate(-161.213 -169.581)" fill="#f9ece4"/>
      </g>
      <g id="_Group_2" data-name="&lt;Group&gt;">
        <g id="_Group_3" data-name="&lt;Group&gt;" transform="translate(199.338 189.46)">
          <path id="_Path_2" data-name="&lt;Path&gt;" d="M446.658,416.852H413.927a2.221,2.221,0,0,1-2.227-2.227v-26.1a2.253,2.253,0,0,1,2.227-2.227h32.731a2.263,2.263,0,0,1,2.276,2.227v26.1A2.232,2.232,0,0,1,446.658,416.852Z" transform="translate(-411.7 -386.3)" fill="#bce2f5"/>
        </g>
        <g id="_Group_4" data-name="&lt;Group&gt;" transform="translate(199.338 189.46)">
          <path id="_Path_3" data-name="&lt;Path&gt;" d="M448.934,393.175H411.7v-4.648a2.253,2.253,0,0,1,2.227-2.227h32.731a2.263,2.263,0,0,1,2.276,2.227Z" transform="translate(-411.7 -386.3)" fill="#e9847c"/>
        </g>
        <g id="_Group_5" data-name="&lt;Group&gt;" transform="translate(223.014 198.176)">
          <g id="_Group_6" data-name="&lt;Group&gt;">
            <path id="_Path_4" data-name="&lt;Path&gt;" d="M471.978,410.013a5.689,5.689,0,1,1-5.713-5.713A5.683,5.683,0,0,1,471.978,410.013Z" transform="translate(-460.6 -404.3)" fill="#f8fcfd"/>
          </g>
          <g id="_Group_7" data-name="&lt;Group&gt;" transform="translate(4.793 1.646)">
            <g id="_Group_8" data-name="&lt;Group&gt;">
              <path id="_Path_5" data-name="&lt;Path&gt;" d="M471.372,413.51a.736.736,0,0,1-.726-.678l-.145-4.406a.745.745,0,0,1,.726-.726h.29a.713.713,0,0,1,.726.726l-.145,4.406A.7.7,0,0,1,471.372,413.51Z" transform="translate(-470.5 -407.7)" fill="#e9847c"/>
            </g>
            <g id="_Group_9" data-name="&lt;Group&gt;" transform="translate(0 6.343)">
              <path id="_Path_6" data-name="&lt;Path&gt;" d="M472.243,421.672a.872.872,0,1,1-.871-.872A.868.868,0,0,1,472.243,421.672Z" transform="translate(-470.5 -420.8)" fill="#e9847c"/>
            </g>
          </g>
        </g>
        <g id="_Group_10" data-name="&lt;Group&gt;" transform="translate(201.516 200.5)">
          <g id="_Group_11" data-name="&lt;Group&gt;">
            <path id="_Path_7" data-name="&lt;Path&gt;" d="M434.357,411.327H416.2V409.1h18.157Z" transform="translate(-416.2 -409.1)" fill="#f8fcfd"/>
          </g>
          <g id="_Group_12" data-name="&lt;Group&gt;" transform="translate(0 6.585)">
            <path id="_Path_8" data-name="&lt;Path&gt;" d="M434.357,424.927H416.2V422.7h18.157Z" transform="translate(-416.2 -422.7)" fill="#f8fcfd"/>
          </g>
          <g id="_Group_13" data-name="&lt;Group&gt;" transform="translate(0 13.17)">
            <path id="_Path_9" data-name="&lt;Path&gt;" d="M449.076,438.527H416.2V436.3h32.876Z" transform="translate(-416.2 -436.3)" fill="#f8fcfd"/>
          </g>
        </g>
        <text id="INFODEMIC_" data-name="INFODEMIC " transform="translate(0 1)" fill="#f8fcfd" font-size="1" font-family="Roboto-Medium, Roboto" font-weight="500"><tspan x="0" y="0">INFODEMIC</tspan></text>
      </g>
      <g id="_Group_14" data-name="&lt;Group&gt;">
        <g id="_Group_15" data-name="&lt;Group&gt;" transform="translate(144.044 243.543)">
          <path id="_Path_10" data-name="&lt;Path&gt;" d="M332.458,528.6H299.727a2.263,2.263,0,0,1-2.227-2.276v-26.1A2.253,2.253,0,0,1,299.727,498h32.731a2.221,2.221,0,0,1,2.227,2.227v26.1A2.232,2.232,0,0,1,332.458,528.6Z" transform="translate(-297.5 -498)" fill="#bce2f5"/>
        </g>
        <g id="_Group_16" data-name="&lt;Group&gt;" transform="translate(144.044 243.543)">
          <path id="_Path_11" data-name="&lt;Path&gt;" d="M334.685,504.924H297.5v-4.7A2.253,2.253,0,0,1,299.727,498h32.731a2.221,2.221,0,0,1,2.227,2.227Z" transform="translate(-297.5 -498)" fill="#e9847c"/>
        </g>
        <g id="_Group_17" data-name="&lt;Group&gt;" transform="translate(167.672 252.259)">
          <g id="_Group_18" data-name="&lt;Group&gt;">
            <path id="_Path_12" data-name="&lt;Path&gt;" d="M357.678,521.713a5.689,5.689,0,0,1-11.378,0,5.689,5.689,0,1,1,11.378,0Z" transform="translate(-346.3 -516)" fill="#f8fcfd"/>
          </g>
          <g id="_Group_19" data-name="&lt;Group&gt;" transform="translate(4.842 1.646)">
            <g id="_Group_20" data-name="&lt;Group&gt;">
              <path id="_Path_13" data-name="&lt;Path&gt;" d="M357.172,525.21a.7.7,0,0,1-.726-.678l-.145-4.358a.726.726,0,0,1,.726-.775h.291a.726.726,0,0,1,.726.775l-.145,4.358A.7.7,0,0,1,357.172,525.21Z" transform="translate(-356.3 -519.4)" fill="#e9847c"/>
            </g>
            <g id="_Group_21" data-name="&lt;Group&gt;" transform="translate(0 6.391)">
              <path id="_Path_14" data-name="&lt;Path&gt;" d="M358.043,533.472a.872.872,0,1,1-.872-.872A.868.868,0,0,1,358.043,533.472Z" transform="translate(-356.3 -532.6)" fill="#e9847c"/>
            </g>
          </g>
        </g>
        <g id="_Group_22" data-name="&lt;Group&gt;" transform="translate(146.223 254.583)">
          <g id="_Group_23" data-name="&lt;Group&gt;">
            <path id="_Path_15" data-name="&lt;Path&gt;" d="M320.157,523.027H302V520.8h18.157Z" transform="translate(-302 -520.8)" fill="#f8fcfd"/>
          </g>
          <g id="_Group_24" data-name="&lt;Group&gt;" transform="translate(0 6.585)">
            <path id="_Path_16" data-name="&lt;Path&gt;" d="M320.157,536.627H302V534.4h18.157Z" transform="translate(-302 -534.4)" fill="#f8fcfd"/>
          </g>
          <g id="_Group_25" data-name="&lt;Group&gt;" transform="translate(0 13.17)">
            <path id="_Path_17" data-name="&lt;Path&gt;" d="M334.827,550.227H302V548h32.828Z" transform="translate(-302 -548)" fill="#f8fcfd"/>
          </g>
        </g>
        <text id="INFODEMIC_2" data-name="INFODEMIC " transform="translate(0 1)" fill="#f8fcfd" font-size="1" font-family="Roboto-Medium, Roboto" font-weight="500"><tspan x="0" y="0">INFODEMIC</tspan></text>
      </g>
      <g id="_Group_26" data-name="&lt;Group&gt;">
        <g id="_Group_27" data-name="&lt;Group&gt;" transform="translate(206.697 121.723)">
          <path id="_Path_18" data-name="&lt;Path&gt;" d="M461.858,276.952H429.127a2.221,2.221,0,0,1-2.227-2.227v-26.1a2.253,2.253,0,0,1,2.227-2.227h32.731a2.221,2.221,0,0,1,2.227,2.227v26.1A2.191,2.191,0,0,1,461.858,276.952Z" transform="translate(-426.9 -246.4)" fill="#bce2f5"/>
        </g>
        <g id="_Group_28" data-name="&lt;Group&gt;" transform="translate(206.697 121.723)">
          <path id="_Path_19" data-name="&lt;Path&gt;" d="M464.085,253.275H426.9v-4.648a2.253,2.253,0,0,1,2.227-2.227h32.731a2.221,2.221,0,0,1,2.227,2.227Z" transform="translate(-426.9 -246.4)" fill="#e9847c"/>
        </g>
        <g id="_Group_29" data-name="&lt;Group&gt;" transform="translate(230.325 130.439)">
          <g id="_Group_30" data-name="&lt;Group&gt;">
            <path id="_Path_20" data-name="&lt;Path&gt;" d="M487.078,270.113a5.689,5.689,0,0,1-11.378,0,5.689,5.689,0,1,1,11.378,0Z" transform="translate(-475.7 -264.4)" fill="#f8fcfd"/>
          </g>
          <g id="_Group_31" data-name="&lt;Group&gt;" transform="translate(4.842 1.646)">
            <g id="_Group_32" data-name="&lt;Group&gt;">
              <path id="_Path_21" data-name="&lt;Path&gt;" d="M486.572,273.61a.7.7,0,0,1-.726-.678l-.145-4.406a.713.713,0,0,1,.726-.726h.291a.745.745,0,0,1,.726.726l-.145,4.406A.736.736,0,0,1,486.572,273.61Z" transform="translate(-485.7 -267.8)" fill="#e9847c"/>
            </g>
            <g id="_Group_33" data-name="&lt;Group&gt;" transform="translate(0 6.343)">
              <path id="_Path_22" data-name="&lt;Path&gt;" d="M487.443,281.772a.872.872,0,0,1-1.743,0,.872.872,0,1,1,1.743,0Z" transform="translate(-485.7 -280.9)" fill="#e9847c"/>
            </g>
          </g>
        </g>
        <g id="_Group_34" data-name="&lt;Group&gt;" transform="translate(208.876 132.763)">
          <g id="_Group_35" data-name="&lt;Group&gt;">
            <path id="_Path_23" data-name="&lt;Path&gt;" d="M449.557,271.427H431.4V269.2h18.157Z" transform="translate(-431.4 -269.2)" fill="#f8fcfd"/>
          </g>
          <g id="_Group_36" data-name="&lt;Group&gt;" transform="translate(0 6.585)">
            <path id="_Path_24" data-name="&lt;Path&gt;" d="M449.557,285.027H431.4V282.8h18.157Z" transform="translate(-431.4 -282.8)" fill="#f8fcfd"/>
          </g>
          <g id="_Group_37" data-name="&lt;Group&gt;" transform="translate(0 13.17)">
            <path id="_Path_25" data-name="&lt;Path&gt;" d="M464.228,298.627H431.4V296.4h32.828Z" transform="translate(-431.4 -296.4)" fill="#f8fcfd"/>
          </g>
        </g>
        <text id="INFODEMIC_3" data-name="INFODEMIC " transform="translate(0 1)" fill="#f8fcfd" font-size="1" font-family="Roboto-Medium, Roboto" font-weight="500"><tspan x="0" y="0">INFODEMIC</tspan></text>
      </g>
      <g id="_Group_38" data-name="&lt;Group&gt;">
        <g id="_Group_39" data-name="&lt;Group&gt;" transform="translate(145.448 119.69)">
          <path id="_Path_26" data-name="&lt;Path&gt;" d="M335.358,272.8H302.627a2.221,2.221,0,0,1-2.227-2.227v-26.1a2.232,2.232,0,0,1,2.227-2.276h32.731a2.263,2.263,0,0,1,2.227,2.276v26.1A2.253,2.253,0,0,1,335.358,272.8Z" transform="translate(-300.4 -242.2)" fill="#bce2f5"/>
        </g>
        <g id="_Group_40" data-name="&lt;Group&gt;" transform="translate(145.448 119.69)">
          <path id="_Path_27" data-name="&lt;Path&gt;" d="M337.585,249.124H300.4v-4.648a2.232,2.232,0,0,1,2.227-2.276h32.731a2.263,2.263,0,0,1,2.227,2.276Z" transform="translate(-300.4 -242.2)" fill="#e9847c"/>
        </g>
        <g id="_Group_41" data-name="&lt;Group&gt;" transform="translate(169.076 128.453)">
          <g id="_Group_42" data-name="&lt;Group&gt;">
            <path id="_Path_28" data-name="&lt;Path&gt;" d="M360.578,265.965a5.689,5.689,0,1,1-5.665-5.665A5.714,5.714,0,0,1,360.578,265.965Z" transform="translate(-349.2 -260.3)" fill="#f8fcfd"/>
          </g>
          <g id="_Group_43" data-name="&lt;Group&gt;" transform="translate(4.837 1.598)">
            <g id="_Group_44" data-name="&lt;Group&gt;">
              <path id="_Path_29" data-name="&lt;Path&gt;" d="M360.067,269.41a.7.7,0,0,1-.726-.678l-.145-4.358a.689.689,0,0,1,.678-.775h.339a.756.756,0,0,1,.726.775l-.194,4.358a.662.662,0,0,1-.678.678Z" transform="translate(-359.19 -263.6)" fill="#e9847c"/>
            </g>
            <g id="_Group_45" data-name="&lt;Group&gt;" transform="translate(0.005 6.391)">
              <path id="_Path_30" data-name="&lt;Path&gt;" d="M360.943,277.672a.9.9,0,0,1-.871.872.872.872,0,1,1,0-1.743A.9.9,0,0,1,360.943,277.672Z" transform="translate(-359.2 -276.8)" fill="#e9847c"/>
            </g>
          </g>
        </g>
        <g id="_Group_46" data-name="&lt;Group&gt;" transform="translate(147.579 130.729)">
          <g id="_Group_47" data-name="&lt;Group&gt;">
            <path id="_Path_31" data-name="&lt;Path&gt;" d="M323.005,267.227H304.8V265h18.205Z" transform="translate(-304.8 -265)" fill="#f8fcfd"/>
          </g>
          <g id="_Group_48" data-name="&lt;Group&gt;" transform="translate(0 6.585)">
            <path id="_Path_32" data-name="&lt;Path&gt;" d="M323.005,280.827H304.8V278.6h18.205Z" transform="translate(-304.8 -278.6)" fill="#f8fcfd"/>
          </g>
          <g id="_Group_49" data-name="&lt;Group&gt;" transform="translate(0 13.17)">
            <path id="_Path_33" data-name="&lt;Path&gt;" d="M337.676,294.427H304.8V292.2h32.876Z" transform="translate(-304.8 -292.2)" fill="#f8fcfd"/>
          </g>
        </g>
        <text id="INFODEMIC_4" data-name="INFODEMIC " transform="translate(0 1)" fill="#f8fcfd" font-size="1" font-family="Roboto-Medium, Roboto" font-weight="500"><tspan x="0" y="0">INFODEMIC</tspan></text>
      </g>
      <g id="_Group_50" data-name="&lt;Group&gt;">
        <g id="_Group_51" data-name="&lt;Group&gt;" transform="translate(109.473 198.127)">
          <path id="_Path_34" data-name="&lt;Path&gt;" d="M261.058,434.752H228.327a2.221,2.221,0,0,1-2.227-2.227v-26.1a2.253,2.253,0,0,1,2.227-2.227h32.731a2.221,2.221,0,0,1,2.227,2.227v26.1A2.191,2.191,0,0,1,261.058,434.752Z" transform="translate(-226.1 -404.2)" fill="#bce2f5"/>
        </g>
        <g id="_Group_52" data-name="&lt;Group&gt;" transform="translate(109.473 198.127)">
          <path id="_Path_35" data-name="&lt;Path&gt;" d="M263.285,411.075H226.1v-4.648a2.253,2.253,0,0,1,2.227-2.227h32.731a2.221,2.221,0,0,1,2.227,2.227Z" transform="translate(-226.1 -404.2)" fill="#e9847c"/>
        </g>
        <g id="_Group_53" data-name="&lt;Group&gt;" transform="translate(133.15 206.842)">
          <g id="_Group_54" data-name="&lt;Group&gt;">
            <path id="_Path_36" data-name="&lt;Path&gt;" d="M286.378,427.913a5.689,5.689,0,1,1-5.713-5.713A5.683,5.683,0,0,1,286.378,427.913Z" transform="translate(-275 -422.2)" fill="#f8fcfd"/>
          </g>
          <g id="_Group_55" data-name="&lt;Group&gt;" transform="translate(4.793 1.646)">
            <g id="_Group_56" data-name="&lt;Group&gt;">
              <path id="_Path_37" data-name="&lt;Path&gt;" d="M285.772,431.41a.736.736,0,0,1-.726-.678l-.145-4.406a.745.745,0,0,1,.726-.726h.291a.713.713,0,0,1,.726.726l-.145,4.406a.7.7,0,0,1-.726.678Z" transform="translate(-284.9 -425.6)" fill="#e9847c"/>
            </g>
            <g id="_Group_57" data-name="&lt;Group&gt;" transform="translate(0 6.343)">
              <path id="_Path_38" data-name="&lt;Path&gt;" d="M286.643,439.572a.872.872,0,0,1-1.743,0,.872.872,0,1,1,1.743,0Z" transform="translate(-284.9 -438.7)" fill="#e9847c"/>
            </g>
          </g>
        </g>
        <g id="_Group_58" data-name="&lt;Group&gt;" transform="translate(111.652 209.166)">
          <g id="_Group_59" data-name="&lt;Group&gt;">
            <path id="_Path_39" data-name="&lt;Path&gt;" d="M248.757,429.227H230.6V427h18.157Z" transform="translate(-230.6 -427)" fill="#f8fcfd"/>
          </g>
          <g id="_Group_60" data-name="&lt;Group&gt;" transform="translate(0 6.585)">
            <path id="_Path_40" data-name="&lt;Path&gt;" d="M248.757,442.827H230.6V440.6h18.157Z" transform="translate(-230.6 -440.6)" fill="#f8fcfd"/>
          </g>
          <g id="_Group_61" data-name="&lt;Group&gt;" transform="translate(0 13.17)">
            <path id="_Path_41" data-name="&lt;Path&gt;" d="M263.476,456.427H230.6V454.2h32.876Z" transform="translate(-230.6 -454.2)" fill="#f8fcfd"/>
          </g>
        </g>
        <text id="INFODEMIC_5" data-name="INFODEMIC " transform="translate(0 1)" fill="#f8fcfd" font-size="1" font-family="Roboto-Medium, Roboto" font-weight="500"><tspan x="0" y="0">INFODEMIC</tspan></text>
      </g>
      <g id="_Group_62" data-name="&lt;Group&gt;">
        <g id="_Group_63" data-name="&lt;Group&gt;" transform="translate(232.552 233.424)">
          <path id="_Path_42" data-name="&lt;Path&gt;" d="M515.258,507.7H482.576a2.263,2.263,0,0,1-2.276-2.227v-26.1a2.273,2.273,0,0,1,2.276-2.276h32.682a2.273,2.273,0,0,1,2.276,2.276v26.1A2.263,2.263,0,0,1,515.258,507.7Z" transform="translate(-480.3 -477.1)" fill="#bce2f5"/>
        </g>
        <g id="_Group_64" data-name="&lt;Group&gt;" transform="translate(232.552 233.424)">
          <path id="_Path_43" data-name="&lt;Path&gt;" d="M517.534,484.024H480.3v-4.648a2.273,2.273,0,0,1,2.276-2.276h32.682a2.273,2.273,0,0,1,2.276,2.276Z" transform="translate(-480.3 -477.1)" fill="#e9847c"/>
        </g>
        <g id="_Group_65" data-name="&lt;Group&gt;" transform="translate(256.229 242.188)">
          <g id="_Group_66" data-name="&lt;Group&gt;">
            <path id="_Path_44" data-name="&lt;Path&gt;" d="M540.578,500.865a5.689,5.689,0,1,1-11.378,0,5.689,5.689,0,0,1,11.378,0Z" transform="translate(-529.2 -495.2)" fill="#f8fcfd"/>
          </g>
          <g id="_Group_67" data-name="&lt;Group&gt;" transform="translate(4.793 1.598)">
            <g id="_Group_68" data-name="&lt;Group&gt;">
              <path id="_Path_45" data-name="&lt;Path&gt;" d="M539.972,504.31a.736.736,0,0,1-.726-.678l-.145-4.358a.756.756,0,0,1,.726-.775h.291a.7.7,0,0,1,.726.775l-.145,4.358A.7.7,0,0,1,539.972,504.31Z" transform="translate(-539.1 -498.5)" fill="#e9847c"/>
            </g>
            <g id="_Group_69" data-name="&lt;Group&gt;" transform="translate(0 6.391)">
              <path id="_Path_46" data-name="&lt;Path&gt;" d="M540.843,512.572a.871.871,0,1,1-.871-.872A.868.868,0,0,1,540.843,512.572Z" transform="translate(-539.1 -511.7)" fill="#e9847c"/>
            </g>
          </g>
        </g>
        <g id="_Group_70" data-name="&lt;Group&gt;" transform="translate(234.731 244.463)">
          <g id="_Group_71" data-name="&lt;Group&gt;">
            <path id="_Path_47" data-name="&lt;Path&gt;" d="M502.957,502.127H484.8V499.9h18.157Z" transform="translate(-484.8 -499.9)" fill="#f8fcfd"/>
          </g>
          <g id="_Group_72" data-name="&lt;Group&gt;" transform="translate(0 6.585)">
            <path id="_Path_48" data-name="&lt;Path&gt;" d="M502.957,515.727H484.8V513.5h18.157Z" transform="translate(-484.8 -513.5)" fill="#f8fcfd"/>
          </g>
          <g id="_Group_73" data-name="&lt;Group&gt;" transform="translate(0 13.17)">
            <path id="_Path_49" data-name="&lt;Path&gt;" d="M517.676,529.327H484.8V527.1h32.876Z" transform="translate(-484.8 -527.1)" fill="#f8fcfd"/>
          </g>
        </g>
        <text id="INFODEMIC_6" data-name="INFODEMIC " transform="translate(0 1)" fill="#f8fcfd" font-size="1" font-family="Roboto-Medium, Roboto" font-weight="500"><tspan x="0" y="0">INFODEMIC</tspan></text>
      </g>
      <g id="_Group_74" data-name="&lt;Group&gt;">
        <g id="_Group_75" data-name="&lt;Group&gt;" transform="translate(60.281 216.332)">
          <path id="_Path_50" data-name="&lt;Path&gt;" d="M159.458,472.352H126.727a2.191,2.191,0,0,1-2.227-2.227v-26.1a2.221,2.221,0,0,1,2.227-2.227h32.731a2.253,2.253,0,0,1,2.227,2.227v26.1A2.221,2.221,0,0,1,159.458,472.352Z" transform="translate(-124.5 -441.8)" fill="#bce2f5"/>
        </g>
        <g id="_Group_76" data-name="&lt;Group&gt;" transform="translate(60.281 216.332)">
          <path id="_Path_51" data-name="&lt;Path&gt;" d="M161.685,448.675H124.5v-4.648a2.221,2.221,0,0,1,2.227-2.227h32.731a2.253,2.253,0,0,1,2.227,2.227Z" transform="translate(-124.5 -441.8)" fill="#e9847c"/>
        </g>
        <g id="_Group_77" data-name="&lt;Group&gt;" transform="translate(83.909 225.048)">
          <g id="_Group_78" data-name="&lt;Group&gt;" transform="translate(0 0)">
            <path id="_Path_52" data-name="&lt;Path&gt;" d="M184.678,465.513a5.689,5.689,0,0,1-11.378,0,5.689,5.689,0,1,1,11.378,0Z" transform="translate(-173.3 -459.8)" fill="#f8fcfd"/>
          </g>
          <g id="_Group_79" data-name="&lt;Group&gt;" transform="translate(4.837 1.646)">
            <g id="_Group_80" data-name="&lt;Group&gt;">
              <path id="_Path_53" data-name="&lt;Path&gt;" d="M184.167,469.01a.7.7,0,0,1-.726-.678l-.145-4.406a.685.685,0,0,1,.726-.726h.291a.745.745,0,0,1,.726.726l-.145,4.406A.736.736,0,0,1,184.167,469.01Z" transform="translate(-183.29 -463.2)" fill="#e9847c"/>
            </g>
            <g id="_Group_81" data-name="&lt;Group&gt;" transform="translate(0.005 6.391)">
              <path id="_Path_54" data-name="&lt;Path&gt;" d="M185.043,477.272a.872.872,0,1,1-.872-.872A.868.868,0,0,1,185.043,477.272Z" transform="translate(-183.3 -476.4)" fill="#e9847c"/>
            </g>
          </g>
        </g>
        <g id="_Group_82" data-name="&lt;Group&gt;" transform="translate(62.459 227.372)">
          <g id="_Group_83" data-name="&lt;Group&gt;">
            <path id="_Path_55" data-name="&lt;Path&gt;" d="M147.157,466.827H129V464.6h18.157Z" transform="translate(-129 -464.6)" fill="#f8fcfd"/>
          </g>
          <g id="_Group_84" data-name="&lt;Group&gt;" transform="translate(0 6.585)">
            <path id="_Path_56" data-name="&lt;Path&gt;" d="M147.157,480.427H129V478.2h18.157Z" transform="translate(-129 -478.2)" fill="#f8fcfd"/>
          </g>
          <g id="_Group_85" data-name="&lt;Group&gt;" transform="translate(0 13.17)">
            <path id="_Path_57" data-name="&lt;Path&gt;" d="M161.828,494.027H129V491.8h32.828Z" transform="translate(-129 -491.8)" fill="#f8fcfd"/>
          </g>
        </g>
        <text id="INFODEMIC_7" data-name="INFODEMIC " transform="translate(0 1)" fill="#f8fcfd" font-size="1" font-family="Roboto-Medium, Roboto" font-weight="500"><tspan x="0" y="0">INFODEMIC</tspan></text>
      </g>
      <g id="_Group_86" data-name="&lt;Group&gt;" transform="translate(180.833 280.535)">
        <g id="_Group_87" data-name="&lt;Group&gt;" transform="translate(0.767 67.446)">
          <path id="_Path_58" data-name="&lt;Path&gt;" d="M404.182,713.7l-1.695,5.617-1.259,3.97-19.319,62.6a1.605,1.605,0,0,1-1.453,1.065h-3.873a1.545,1.545,0,0,1-1.453-1.985l19.077-61.685,1.21-3.97,1.743-5.617Z" transform="translate(-375.067 -713.7)" fill="#b89994"/>
        </g>
        <g id="_Group_88" data-name="&lt;Group&gt;" transform="translate(25.05 67.446)">
          <path id="_Path_59" data-name="&lt;Path&gt;" d="M457.6,713.7l-1.985,5.617-1.4,3.97L431.988,785.94a1.632,1.632,0,0,1-1.453,1.017H426.71a1.513,1.513,0,0,1-1.4-2.034l21.885-61.636,1.4-3.97,1.985-5.617Z" transform="translate(-425.218 -713.7)" fill="#b89994"/>
        </g>
        <g id="_Group_89" data-name="&lt;Group&gt;" transform="translate(94.86 67.446)">
          <path id="_Path_60" data-name="&lt;Path&gt;" d="M597.047,786.957h-3.873a1.511,1.511,0,0,1-1.453-1.065l-19.367-62.6-1.21-3.97L569.4,713.7h7.021l1.743,5.617,1.21,3.97L598.5,784.971A1.545,1.545,0,0,1,597.047,786.957Z" transform="translate(-569.4 -713.7)" fill="#b89994"/>
        </g>
        <g id="_Group_90" data-name="&lt;Group&gt;" transform="translate(67.794 67.446)">
          <path id="_Path_61" data-name="&lt;Path&gt;" d="M544.439,786.957h-3.873a1.516,1.516,0,0,1-1.4-1.017l-22.272-62.653-1.4-3.97L513.5,713.7h7.069l1.985,5.617,1.4,3.97,21.885,61.636A1.534,1.534,0,0,1,544.439,786.957Z" transform="translate(-513.5 -713.7)" fill="#b89994"/>
        </g>
        <g id="_Group_91" data-name="&lt;Group&gt;" transform="translate(2.091)">
          <path id="_Path_62" data-name="&lt;Path&gt;" d="M377.8,574.4h32.731a9.462,9.462,0,0,1,8.425,5.278l28.179,57.472H391.454Z" transform="translate(-377.8 -574.4)" fill="#a98b81"/>
        </g>
        <g id="_Group_92" data-name="&lt;Group&gt;" transform="translate(0 0.013)">
          <path id="_Path_63" data-name="&lt;Path&gt;" d="M486.4,640.5v3.631a3.348,3.348,0,0,1-3.341,3.341H394.456a6.528,6.528,0,0,1-6.391-5.084c-3.438-15.155-13.509-59.264-14.283-62.363-1.6-6.343,3.583-8.522,6.585,0,1.6,4.6,17.43,57.133,17.43,57.133h85.264A3.348,3.348,0,0,1,486.4,640.5Z" transform="translate(-373.482 -574.426)" fill="#b89994"/>
        </g>
        <g id="_Group_93" data-name="&lt;Group&gt;" transform="translate(66.68 62.75)">
          <path id="_Path_64" data-name="&lt;Path&gt;" d="M517.2,704H554.1a3.317,3.317,0,0,1,3.341,3.341v3.631a3.317,3.317,0,0,1-3.341,3.341H517.2a5.157,5.157,0,1,0,0-10.313Z" transform="translate(-511.2 -704)" fill="#a98b81"/>
        </g>
        <g id="_Group_94" data-name="&lt;Group&gt;" transform="translate(19.909 73.063)" opacity="0.4">
          <path id="_Path_65" data-name="&lt;Path&gt;" d="M422.88,725.3l-1.259,3.97H414.6l1.21-3.97Z" transform="translate(-414.6 -725.3)" fill="#b89994"/>
        </g>
        <g id="_Group_95" data-name="&lt;Group&gt;" transform="translate(47.023 73.063)" opacity="0.4">
          <path id="_Path_66" data-name="&lt;Path&gt;" d="M479.025,725.3l-1.4,3.97H470.6l1.4-3.97Z" transform="translate(-470.6 -725.3)" fill="#b89994"/>
        </g>
        <g id="_Group_96" data-name="&lt;Group&gt;" transform="translate(69.779 73.063)" opacity="0.4">
          <path id="_Path_67" data-name="&lt;Path&gt;" d="M526.073,729.27H519l-1.4-3.97h7.069Z" transform="translate(-517.6 -725.3)" fill="#b89994"/>
        </g>
        <g id="_Group_97" data-name="&lt;Group&gt;" transform="translate(96.603 73.063)" opacity="0.4">
          <path id="_Path_68" data-name="&lt;Path&gt;" d="M581.231,729.27H574.21L573,725.3h7.021Z" transform="translate(-573 -725.3)" fill="#b89994"/>
        </g>
      </g>
      <g id="_Group_98" data-name="&lt;Group&gt;" transform="translate(195.117 202.695)">
        <g id="_Group_99" data-name="&lt;Group&gt;" transform="translate(87.161 99.64)">
          <path id="_Path_69" data-name="&lt;Path&gt;" d="M602.609,629.29c-1.259-.581-2.663-1.985-3.486-2.082-1.4-.145-2.663,1.6-5.907,1.646-2.179.048-2.857-.339-4.7-.387-.872,0-5.52.048-5.52.048l2.808-7.8h2.857s7.456-1.549,9.587-1.259A12.847,12.847,0,0,1,603,621.4c.339.291,3.1,3.244,3.777,3.97.775.775-.29,1.888-1.4.92a7.685,7.685,0,0,1-.872-.823s.823,1.307,1.211,2.034c.339.775-.533,1.549-1.114,1.211-.29.484-.775.726-1.21.291C603.432,629.242,603.093,629.532,602.609,629.29Z" transform="translate(-583 -619.425)" fill="#fcc4be"/>
          <path id="_Path_70" data-name="&lt;Path&gt;" d="M611.2,632.774a21.458,21.458,0,0,1,3.1-.387,28.119,28.119,0,0,1,3.244,2.566" transform="translate(-597.546 -626.104)" fill="none" stroke="#efaca8" stroke-linecap="round" stroke-linejoin="round" stroke-width="1"/>
          <path id="_Path_71" data-name="&lt;Path&gt;" d="M613.2,629.461a15.043,15.043,0,0,1,3.438.145,40.9,40.9,0,0,1,3.2,3.631" transform="translate(-598.578 -624.583)" fill="none" stroke="#efaca8" stroke-linecap="round" stroke-linejoin="round" stroke-width="1"/>
          <path id="_Path_72" data-name="&lt;Path&gt;" d="M614.1,625.2a34.465,34.465,0,0,1,3.777,1.114c.339.145,2.324,1.792,2.324,1.792" transform="translate(-599.042 -622.404)" fill="none" stroke="#efaca8" stroke-linecap="round" stroke-linejoin="round" stroke-width="1"/>
          <path id="_Path_73" data-name="&lt;Path&gt;" d="M600.908,630.063l3.2.533,3.97,1.307,1.937,2.615a.287.287,0,0,1-.145.436c-1.162.242-2.324.242-3.1-.823-.872-1.162-2.857.145-4.6.29-2.324.194-4.116-.145-4.5-.968A2.728,2.728,0,0,1,600.908,630.063Z" transform="translate(-590.498 -624.894)" fill="#fcc4be"/>
          <path id="_Path_74" data-name="&lt;Path&gt;" d="M604.5,630.1s2.421.339,3.2.533c1.017.242,3.97,1.307,3.97,1.307l1.695,2.276" transform="translate(-594.09 -624.931)" fill="none" stroke="#efaca8" stroke-linecap="round" stroke-linejoin="round" stroke-width="1"/>
          <path id="_Path_75" data-name="&lt;Path&gt;" d="M606,627.418a5.076,5.076,0,0,0,1.937-2.518" transform="translate(-594.864 -622.249)" fill="none" stroke="#efaca8" stroke-linecap="round" stroke-linejoin="round" stroke-width="1"/>
          <path id="_Path_76" data-name="&lt;Path&gt;" d="M606.8,626.46a7.166,7.166,0,0,0,3.1-2.76" transform="translate(-595.276 -621.63)" fill="none" stroke="#efaca8" stroke-linecap="round" stroke-linejoin="round" stroke-width="1"/>
        </g>
        <path id="_Path_77" data-name="&lt;Path&gt;" d="M590.743,835.156s-1.114,3.583-.145,4.454c.92.823,12.928,3.244,14.961,5.035,1.5,1.259,1.646,2.034,1.453,3.2a1.3,1.3,0,0,1-1.259,1.065H577.235a1.379,1.379,0,0,1-1.307-1.792l3.825-13.315Z" transform="translate(-492.156 -630.363)" fill="#38323e"/>
        <g id="_Group_100" data-name="&lt;Group&gt;" transform="translate(35.449 112.461)">
          <path id="_Path_78" data-name="&lt;Path&gt;" d="M491.5,646.047S542.968,659.6,544.42,660.04c5.035,1.453,9.393,6.972,8.522,15.445-.29,2.808-13.46,63.234-13.9,64.4-.436,1.114-12.443,1.21-12.782.048-.29-1.114,6.536-62.024,6.536-62.024s-49.435-6.44-54.713-14.574c-5.278-8.183.92-18.786,13.412-17.285Z" transform="translate(-476.199 -645.904)" fill="#3a3d68"/>
        </g>
        <path id="_Path_79" data-name="&lt;Path&gt;" d="M537.618,835.253s-1.84,3.486-.92,4.358c.92.823,12.928,3.244,15.01,5.035,1.453,1.259,1.6,2.034,1.4,3.2a1.247,1.247,0,0,1-1.21,1.065H523.335a1.379,1.379,0,0,1-1.307-1.792l3.825-13.315Z" transform="translate(-464.353 -630.363)" fill="#4b4751"/>
        <g id="_Group_101" data-name="&lt;Group&gt;" transform="translate(8.583 112.604)">
          <path id="_Path_80" data-name="&lt;Path&gt;" d="M452.419,646.2s51.372,16.026,54.083,16.85c5.859,1.743,6.44,12.637,5.81,15.591-.581,3-26.824,60.281-27.55,61.394-.726,1.065-13.17,1.162-13.412,0-.194-1.162,17.14-61.1,17.14-61.1s-46.481-1.453-53.6-3.244c-7.166-1.791-12.492-4.212-14.138-13.848C419.349,653.656,452.419,646.2,452.419,646.2Z" transform="translate(-420.71 -646.2)" fill="#57548d"/>
        </g>
        <g id="_Group_102" data-name="&lt;Group&gt;" transform="translate(28.202 43.146)">
          <path id="_Path_81" data-name="&lt;Path&gt;" d="M466.445,502.771a20.972,20.972,0,0,1,12.2,8.715c3.777,5.713,12.831,35.3,15.445,38.638s30.794,9.829,30.794,9.829l-.242,8.522s-25.662-.629-29.535-1.162c-17.527-2.372-27.55-39.751-28.47-42.317s-11.572-23.1-.194-22.224Z" transform="translate(-461.23 -502.744)" fill="#e9847c"/>
        </g>
        <g id="_Group_103" data-name="&lt;Group&gt;" transform="translate(1.465 41.102)">
          <path id="_Path_82" data-name="&lt;Path&gt;" d="M437.379,500.4c15.01,4.648,14.38,20.287,15.106,24.79.726,4.551-2.469,35.878-.726,40.429,1.792,4.5,4.406,4.406,6.294,5.084.484.194-5.181-.145-10.652,1.84-7.892,2.905-29.583,23.241-32.537,19.609-.823-1.017-6.73-27.356-7.844-41.833-1.356-17.769-1.743-32.44,1.356-38.589,2.808-5.568,10.6-11.281,13.024-12.2,4.406-1.646,9.345-1.21,15.978.872Z" transform="translate(-406.008 -498.524)" fill="#e9847c"/>
        </g>
        <g id="_Group_104" data-name="&lt;Group&gt;" transform="translate(63.581 99.097)">
          <path id="_Path_83" data-name="&lt;Path&gt;" d="M553.909,628.179c-1.259-.581-2.663-1.985-3.486-2.082-1.4-.145-2.663,1.6-5.907,1.646-2.179.048-2.857-.339-4.7-.387-.871,0-5.52.048-5.52.048l2.808-7.8h2.857s7.456-1.6,9.587-1.259a14.8,14.8,0,0,1,4.842,1.211c.436.242,4.067,4.987,4.309,5.326.242.291-.678,1.6-1.307,1.017-.678-.629-1.6-1.549-1.6-1.549s.823,1.307,1.162,2.034c.387.775-.484,1.549-1.065,1.21-.29.484-.775.726-1.211.291C554.732,628.13,554.393,628.421,553.909,628.179Z" transform="translate(-534.3 -618.303)" fill="#fcc4be"/>
          <path id="_Path_84" data-name="&lt;Path&gt;" d="M562.2,631.283a29.709,29.709,0,0,1,3.1-.387,32.029,32.029,0,0,1,3.2,2.566" transform="translate(-548.691 -624.797)" fill="none" stroke="#efaca8" stroke-linecap="round" stroke-linejoin="round" stroke-width="1"/>
          <path id="_Path_85" data-name="&lt;Path&gt;" d="M564.1,628.033a14.315,14.315,0,0,1,3.438.1,34.958,34.958,0,0,1,3.292,3.2" transform="translate(-549.671 -623.289)" fill="none" stroke="#efaca8" stroke-linecap="round" stroke-linejoin="round" stroke-width="1"/>
          <path id="_Path_86" data-name="&lt;Path&gt;" d="M565.1,623.7a18.421,18.421,0,0,1,4.164.533,17.457,17.457,0,0,1,1.888,2.372" transform="translate(-550.187 -621.087)" fill="none" stroke="#efaca8" stroke-linecap="round" stroke-linejoin="round" stroke-width="1"/>
        </g>
        <g id="_Group_105" data-name="&lt;Group&gt;" transform="translate(5.26 53.248)">
          <path id="_Path_87" data-name="&lt;Path&gt;" d="M431.884,528.979c4.5,6.875,11.233,32.924,11.233,32.924l33.941,7.941-1.307,9.2s-39.7-1.5-43.722-5.326c-3.777-3.583-14.816-30.213-17.624-36.556C411.064,529.56,423.46,516.051,431.884,528.979Z" transform="translate(-413.847 -523.608)" fill="#e9847c"/>
        </g>
        <g id="_Group_106" data-name="&lt;Group&gt;">
          <path id="_Path_88" data-name="&lt;Path&gt;" d="M453.142,485.375s1.356,13.8,2.082,14.864c.678,1.017,5.374,13.121,2.324,11.281-3.873-2.324-9.248-10.41-12.347-12.3-2.324-1.356-7.65-1.695-7.6-2.711.048-1.065.339-11.911.339-11.911Z" transform="translate(-420.839 -450.24)" fill="#efaca8"/>
          <path id="_Path_89" data-name="&lt;Path&gt;" d="M442.054,429.413c2.518,6.875,8.134,22.466-2.76,26.1-10.216,3.341-23.483-7.408-24.064-15.833C414.7,431.2,413,423.651,420.7,420.649c7.65-3,15.106-6,17.237-2.518,2.227,3.631,3.1,8.57,4.116,11.281Z" transform="translate(-409.025 -415.146)" fill="#fcc4be"/>
          <g id="_Group_107" data-name="&lt;Group&gt;" transform="translate(27.655 22.304)">
            <path id="_Path_90" data-name="&lt;Path&gt;" d="M460.1,459.7c.678,2.324,4.406,4.212,4.116,5.229-.242,1.017-1.743,1.4-1.743,1.4" transform="translate(-460.1 -459.7)" fill="none" stroke="#38323e" stroke-linecap="round" stroke-linejoin="round" stroke-width="1"/>
          </g>
          <path id="_Path_91" data-name="&lt;Path&gt;" d="M467.219,476.832a3.03,3.03,0,0,0,.339,1.743c.048.048,0,.145-.1.194-1.5.436-3.389,1.162-4.067,1.453a.208.208,0,0,1-.194-.194c.726-2.227,3.147-3.147,3.873-3.341C467.122,476.638,467.219,476.735,467.219,476.832Z" transform="translate(-434.044 -446.151)" fill="#38323e"/>
          <path id="_Path_92" data-name="&lt;Path&gt;" d="M443.806,447.5a6.747,6.747,0,0,1-4.406,3.583" transform="translate(-421.768 -431.103)" fill="none" stroke="#38323e" stroke-linecap="round" stroke-linejoin="round" stroke-width="1"/>
          <path id="_Path_93" data-name="&lt;Path&gt;" d="M458.9,444.7a5.45,5.45,0,0,0,5.084.387" transform="translate(-431.826 -429.658)" fill="none" stroke="#38323e" stroke-linecap="round" stroke-linejoin="round" stroke-width="1"/>
          <path id="_Path_94" data-name="&lt;Path&gt;" d="M416.742,430.031s4.987,6.779,2.808,12.443c-.194.484-2.857-2.76-4.406.1-1.6,2.808,1.985,5.907,4.648,6.391.775.145,1.307,3.1.533,3.2-3.438.581-8.183-3.486-12.443-9.1-3.583-4.7-7.117-11.911-3.147-15.881a5.262,5.262,0,0,1,3.147-1.162s-2.905-4.116-1.017-7.117c0,0,1.259,4.406,2.227,4.406,0,0-1.162-10.313,17.624-9.635,9.393.339,13.17,3.631,11.62,3.1-3.438-1.21-5.471-.872-4.745-.872,2.421-.048,8.086,3.922,6.682,4.939-1.162.823-5.374,1.646-7.553,1.4a9.11,9.11,0,0,0,3.873.048c-.145.823-1.453,5.52-19.851,7.747Z" transform="translate(-402.983 -413.634)" fill="#38323e"/>
          <path id="_Path_95" data-name="&lt;Path&gt;" d="M448.133,457.268c.339.823.194,1.646-.29,1.84s-1.162-.291-1.5-1.114c-.291-.823-.145-1.646.339-1.84S447.842,456.445,448.133,457.268Z" transform="translate(-425.271 -435.545)" fill="#38323e"/>
          <path id="_Path_96" data-name="&lt;Path&gt;" d="M465.3,451.22c.29.823.145,1.646-.339,1.84s-1.162-.339-1.453-1.162c-.339-.823-.194-1.646.339-1.84C464.329,449.864,464.958,450.4,465.3,451.22Z" transform="translate(-434.108 -432.401)" fill="#38323e"/>
        </g>
        <g id="_Group_108" data-name="&lt;Group&gt;" transform="translate(12.113 53.244)">
          <path id="_Path_97" data-name="&lt;Path&gt;" d="M481.5,569.161s-29.874-6.972-31.084-7.263c-1.162-.29-7.553-24.887-10.168-31.085C437.635,524.665,428,523.6,428,523.6" transform="translate(-428 -523.6)" fill="none" stroke="#dd6f70" stroke-linecap="round" stroke-linejoin="round" stroke-width="2"/>
        </g>
        <g id="_Group_109" data-name="&lt;Group&gt;" transform="translate(7.513 70.722)">
          <path id="_Path_98" data-name="&lt;Path&gt;" d="M457.041,596.256s-19.755-2.663-22.611-3.922c-2.857-1.307-15.93-32.634-15.93-32.634" transform="translate(-418.5 -559.7)" fill="none" stroke="#dd6f70" stroke-linecap="round" stroke-linejoin="round" stroke-width="2"/>
        </g>
        <g id="_Group_110" data-name="&lt;Group&gt;" transform="translate(40.147 48.741)">
          <path id="_Path_99" data-name="&lt;Path&gt;" d="M485.9,514.3s8.086,5.616,7.456,15.978c-.581,10.313-1.549,26.824-1.549,26.824" transform="translate(-485.9 -514.3)" fill="none" stroke="#dd6f70" stroke-linecap="round" stroke-linejoin="round" stroke-width="2"/>
        </g>
      </g>
      <g id="_Group_111" data-name="&lt;Group&gt;" transform="translate(247.175 200.451)">
        <g id="_Group_112" data-name="&lt;Group&gt;">
          <path id="_Path_100" data-name="&lt;Path&gt;" d="M547.685,410.356v22.757a1.386,1.386,0,0,1-1.356,1.356H529.093l-7.5,6.875,2.711-6.875H511.856a1.386,1.386,0,0,1-1.356-1.356V410.356A1.353,1.353,0,0,1,511.856,409h34.474A1.353,1.353,0,0,1,547.685,410.356Z" transform="translate(-510.5 -409)" fill="#bce2f5"/>
        </g>
        <g id="_Group_113" data-name="&lt;Group&gt;" transform="translate(6.875 10.652)">
          <g id="_Group_114" data-name="&lt;Group&gt;">
            <g id="_Group_115" data-name="&lt;Group&gt;">
              <path id="_Path_101" data-name="&lt;Path&gt;" d="M528.912,433.082a2.106,2.106,0,1,1-2.13-2.082A2.108,2.108,0,0,1,528.912,433.082Z" transform="translate(-524.7 -431)" fill="#f8fcfd"/>
            </g>
            <g id="_Group_116" data-name="&lt;Group&gt;" transform="translate(9.635)">
              <path id="_Path_102" data-name="&lt;Path&gt;" d="M548.764,433.082A2.082,2.082,0,1,1,546.682,431,2.067,2.067,0,0,1,548.764,433.082Z" transform="translate(-544.6 -431)" fill="#f8fcfd"/>
            </g>
            <g id="_Group_117" data-name="&lt;Group&gt;" transform="translate(19.222)">
              <path id="_Path_103" data-name="&lt;Path&gt;" d="M568.612,433.082A2.106,2.106,0,1,1,566.53,431,2.1,2.1,0,0,1,568.612,433.082Z" transform="translate(-564.4 -431)" fill="#f8fcfd"/>
            </g>
          </g>
        </g>
      </g>
      <g id="_Group_118" data-name="&lt;Group&gt;" transform="translate(176.533 89.913)">
        <g id="_Group_119" data-name="&lt;Group&gt;">
          <path id="_Path_104" data-name="&lt;Path&gt;" d="M401.785,182.1v22.708a1.4,1.4,0,0,1-1.356,1.4H383.193l-7.5,6.875,2.663-6.875h-12.4a1.4,1.4,0,0,1-1.356-1.4V182.1a1.4,1.4,0,0,1,1.356-1.4h34.474A1.4,1.4,0,0,1,401.785,182.1Z" transform="translate(-364.6 -180.7)" fill="#bce2f5"/>
        </g>
        <g id="_Group_120" data-name="&lt;Group&gt;" transform="translate(6.875 10.652)">
          <g id="_Group_121" data-name="&lt;Group&gt;">
            <g id="_Group_122" data-name="&lt;Group&gt;">
              <path id="_Path_105" data-name="&lt;Path&gt;" d="M383.012,204.782a2.106,2.106,0,1,1-2.13-2.082A2.149,2.149,0,0,1,383.012,204.782Z" transform="translate(-378.8 -202.7)" fill="#f8fcfd"/>
            </g>
            <g id="_Group_123" data-name="&lt;Group&gt;" transform="translate(9.635)">
              <path id="_Path_106" data-name="&lt;Path&gt;" d="M402.864,204.782a2.082,2.082,0,1,1-2.082-2.082A2.108,2.108,0,0,1,402.864,204.782Z" transform="translate(-398.7 -202.7)" fill="#f8fcfd"/>
            </g>
            <g id="_Group_124" data-name="&lt;Group&gt;" transform="translate(19.222)">
              <path id="_Path_107" data-name="&lt;Path&gt;" d="M422.712,204.782a2.106,2.106,0,1,1-2.13-2.082A2.149,2.149,0,0,1,422.712,204.782Z" transform="translate(-418.5 -202.7)" fill="#f8fcfd"/>
            </g>
          </g>
        </g>
      </g>
      <g id="_Group_125" data-name="&lt;Group&gt;" transform="translate(191.349 265.041)">
        <g id="_Group_126" data-name="&lt;Group&gt;">
          <path id="_Path_108" data-name="&lt;Path&gt;" d="M396.556,542.4h34.474a1.4,1.4,0,0,1,1.356,1.4v22.708a1.4,1.4,0,0,1-1.356,1.4H418.586l2.711,6.875-7.5-6.875H396.556a1.4,1.4,0,0,1-1.356-1.4V543.8A1.4,1.4,0,0,1,396.556,542.4Z" transform="translate(-395.2 -542.4)" fill="#bce2f5"/>
        </g>
        <g id="_Group_127" data-name="&lt;Group&gt;" transform="translate(6.875 10.652)">
          <g id="_Group_128" data-name="&lt;Group&gt;">
            <g id="_Group_129" data-name="&lt;Group&gt;" transform="translate(19.222)">
              <path id="_Path_109" data-name="&lt;Path&gt;" d="M451.182,564.4a2.106,2.106,0,1,1-2.082,2.13A2.149,2.149,0,0,1,451.182,564.4Z" transform="translate(-449.1 -564.4)" fill="#f8fcfd"/>
            </g>
            <g id="_Group_130" data-name="&lt;Group&gt;" transform="translate(9.635)">
              <path id="_Path_110" data-name="&lt;Path&gt;" d="M431.382,564.4a2.106,2.106,0,1,1-2.082,2.13A2.108,2.108,0,0,1,431.382,564.4Z" transform="translate(-429.3 -564.4)" fill="#f8fcfd"/>
            </g>
            <g id="_Group_131" data-name="&lt;Group&gt;">
              <path id="_Path_111" data-name="&lt;Path&gt;" d="M411.482,564.4a2.106,2.106,0,1,1-2.082,2.13A2.149,2.149,0,0,1,411.482,564.4Z" transform="translate(-409.4 -564.4)" fill="#f8fcfd"/>
            </g>
          </g>
        </g>
      </g>
      <g id="_Group_132" data-name="&lt;Group&gt;" transform="translate(99.887 233.908)">
        <g id="_Group_133" data-name="&lt;Group&gt;">
          <path id="_Path_112" data-name="&lt;Path&gt;" d="M207.656,478.1h34.425a1.365,1.365,0,0,1,1.4,1.356v22.757a1.4,1.4,0,0,1-1.4,1.356h-12.4l2.711,6.875-7.5-6.875H207.656a1.353,1.353,0,0,1-1.356-1.356V479.456a1.324,1.324,0,0,1,1.356-1.356Z" transform="translate(-206.3 -478.1)" fill="#bce2f5"/>
        </g>
        <g id="_Group_134" data-name="&lt;Group&gt;" transform="translate(6.875 10.652)">
          <g id="_Group_135" data-name="&lt;Group&gt;">
            <g id="_Group_136" data-name="&lt;Group&gt;" transform="translate(19.222)">
              <path id="_Path_113" data-name="&lt;Path&gt;" d="M262.282,500.1a2.082,2.082,0,1,1-2.082,2.082A2.067,2.067,0,0,1,262.282,500.1Z" transform="translate(-260.2 -500.1)" fill="#f8fcfd"/>
            </g>
            <g id="_Group_137" data-name="&lt;Group&gt;" transform="translate(9.635)">
              <path id="_Path_114" data-name="&lt;Path&gt;" d="M242.482,500.1a2.082,2.082,0,1,1-2.082,2.082A2.067,2.067,0,0,1,242.482,500.1Z" transform="translate(-240.4 -500.1)" fill="#f8fcfd"/>
            </g>
            <g id="_Group_138" data-name="&lt;Group&gt;">
              <path id="_Path_115" data-name="&lt;Path&gt;" d="M222.582,500.1a2.082,2.082,0,1,1-2.082,2.082A2.067,2.067,0,0,1,222.582,500.1Z" transform="translate(-220.5 -500.1)" fill="#f8fcfd"/>
            </g>
          </g>
        </g>
      </g>
      <g id="_Group_139" data-name="&lt;Group&gt;" transform="translate(153.921 203.84)">
        <g id="_Group_140" data-name="&lt;Group&gt;">
          <path id="_Path_116" data-name="&lt;Path&gt;" d="M319.256,416h34.474a1.353,1.353,0,0,1,1.356,1.356v22.708a1.4,1.4,0,0,1-1.356,1.4H341.286L344,448.343l-7.5-6.875H319.256a1.4,1.4,0,0,1-1.356-1.4V417.356A1.353,1.353,0,0,1,319.256,416Z" transform="translate(-317.9 -416)" fill="#bce2f5"/>
        </g>
        <g id="_Group_141" data-name="&lt;Group&gt;" transform="translate(6.875 10.652)">
          <g id="_Group_142" data-name="&lt;Group&gt;">
            <g id="_Group_143" data-name="&lt;Group&gt;" transform="translate(19.222)">
              <path id="_Path_117" data-name="&lt;Path&gt;" d="M373.882,438a2.082,2.082,0,1,1-2.082,2.082A2.108,2.108,0,0,1,373.882,438Z" transform="translate(-371.8 -438)" fill="#f8fcfd"/>
            </g>
            <g id="_Group_144" data-name="&lt;Group&gt;" transform="translate(9.635)">
              <path id="_Path_118" data-name="&lt;Path&gt;" d="M354.082,438A2.082,2.082,0,1,1,352,440.082,2.067,2.067,0,0,1,354.082,438Z" transform="translate(-352 -438)" fill="#f8fcfd"/>
            </g>
            <g id="_Group_145" data-name="&lt;Group&gt;">
              <path id="_Path_119" data-name="&lt;Path&gt;" d="M334.182,438a2.082,2.082,0,1,1-2.082,2.082A2.108,2.108,0,0,1,334.182,438Z" transform="translate(-332.1 -438)" fill="#f8fcfd"/>
            </g>
          </g>
        </g>
      </g>
      <g id="_Group_146" data-name="&lt;Group&gt;" transform="translate(101.969 149.951)">
        <g id="_Group_147" data-name="&lt;Group&gt;">
          <path id="_Path_120" data-name="&lt;Path&gt;" d="M211.956,304.7h34.474a1.386,1.386,0,0,1,1.356,1.356v22.757a1.353,1.353,0,0,1-1.356,1.356H233.986l2.711,6.875-7.5-6.875H211.956a1.353,1.353,0,0,1-1.356-1.356V306.056A1.386,1.386,0,0,1,211.956,304.7Z" transform="translate(-210.6 -304.7)" fill="#bce2f5"/>
        </g>
        <g id="_Group_148" data-name="&lt;Group&gt;" transform="translate(6.875 10.652)">
          <g id="_Group_149" data-name="&lt;Group&gt;">
            <g id="_Group_150" data-name="&lt;Group&gt;" transform="translate(19.222)">
              <path id="_Path_121" data-name="&lt;Path&gt;" d="M266.582,326.7a2.082,2.082,0,1,1-2.082,2.082A2.108,2.108,0,0,1,266.582,326.7Z" transform="translate(-264.5 -326.7)" fill="#f8fcfd"/>
            </g>
            <g id="_Group_151" data-name="&lt;Group&gt;" transform="translate(9.635)">
              <path id="_Path_122" data-name="&lt;Path&gt;" d="M246.782,326.7a2.082,2.082,0,1,1-2.082,2.082A2.067,2.067,0,0,1,246.782,326.7Z" transform="translate(-244.7 -326.7)" fill="#f8fcfd"/>
            </g>
            <g id="_Group_152" data-name="&lt;Group&gt;">
              <path id="_Path_123" data-name="&lt;Path&gt;" d="M226.882,326.7a2.082,2.082,0,1,1-2.082,2.082A2.108,2.108,0,0,1,226.882,326.7Z" transform="translate(-224.8 -326.7)" fill="#f8fcfd"/>
            </g>
          </g>
        </g>
      </g>
      <g id="_Group_153" data-name="&lt;Group&gt;" transform="translate(274.095 243.543)">
        <g id="_Group_154" data-name="&lt;Group&gt;">
          <path id="_Path_124" data-name="&lt;Path&gt;" d="M603.285,499.4v22.708a1.4,1.4,0,0,1-1.356,1.4H584.693l-7.5,6.875,2.711-6.875H567.456a1.4,1.4,0,0,1-1.356-1.4V499.4a1.4,1.4,0,0,1,1.356-1.4h34.474A1.4,1.4,0,0,1,603.285,499.4Z" transform="translate(-566.1 -498)" fill="#bce2f5"/>
        </g>
        <g id="_Group_155" data-name="&lt;Group&gt;" transform="translate(6.875 10.652)">
          <g id="_Group_156" data-name="&lt;Group&gt;">
            <g id="_Group_157" data-name="&lt;Group&gt;">
              <path id="_Path_125" data-name="&lt;Path&gt;" d="M584.512,522.082A2.106,2.106,0,1,1,582.43,520,2.14,2.14,0,0,1,584.512,522.082Z" transform="translate(-580.3 -520)" fill="#f8fcfd"/>
            </g>
            <g id="_Group_158" data-name="&lt;Group&gt;" transform="translate(9.635)">
              <path id="_Path_126" data-name="&lt;Path&gt;" d="M604.364,522.082A2.082,2.082,0,1,1,602.282,520,2.108,2.108,0,0,1,604.364,522.082Z" transform="translate(-600.2 -520)" fill="#f8fcfd"/>
            </g>
            <g id="_Group_159" data-name="&lt;Group&gt;" transform="translate(19.222)">
              <path id="_Path_127" data-name="&lt;Path&gt;" d="M624.212,522.082A2.106,2.106,0,1,1,622.13,520,2.14,2.14,0,0,1,624.212,522.082Z" transform="translate(-620 -520)" fill="#f8fcfd"/>
            </g>
          </g>
        </g>
      </g>
      <g id="_Group_160" data-name="&lt;Group&gt;" transform="translate(189.267 155.471)">
        <g id="_Group_161" data-name="&lt;Group&gt;">
          <path id="_Path_128" data-name="&lt;Path&gt;" d="M428.085,317.5v22.708a1.4,1.4,0,0,1-1.356,1.4H409.493l-7.5,6.875,2.663-6.875h-12.4a1.4,1.4,0,0,1-1.356-1.4V317.5a1.4,1.4,0,0,1,1.356-1.4h34.474A1.4,1.4,0,0,1,428.085,317.5Z" transform="translate(-390.9 -316.1)" fill="#bce2f5"/>
        </g>
        <g id="_Group_162" data-name="&lt;Group&gt;" transform="translate(6.875 10.652)">
          <g id="_Group_163" data-name="&lt;Group&gt;">
            <g id="_Group_164" data-name="&lt;Group&gt;">
              <path id="_Path_129" data-name="&lt;Path&gt;" d="M409.312,340.182a2.106,2.106,0,1,1-2.13-2.082A2.149,2.149,0,0,1,409.312,340.182Z" transform="translate(-405.1 -338.1)" fill="#f8fcfd"/>
            </g>
            <g id="_Group_165" data-name="&lt;Group&gt;" transform="translate(9.635)">
              <path id="_Path_130" data-name="&lt;Path&gt;" d="M429.164,340.182a2.082,2.082,0,1,1-2.082-2.082A2.108,2.108,0,0,1,429.164,340.182Z" transform="translate(-425 -338.1)" fill="#f8fcfd"/>
            </g>
            <g id="_Group_166" data-name="&lt;Group&gt;" transform="translate(19.222)">
              <path id="_Path_131" data-name="&lt;Path&gt;" d="M449.012,340.182a2.106,2.106,0,1,1-2.13-2.082A2.149,2.149,0,0,1,449.012,340.182Z" transform="translate(-444.8 -338.1)" fill="#f8fcfd"/>
            </g>
          </g>
        </g>
      </g>
      <g id="_Group_167" data-name="&lt;Group&gt;" transform="translate(221.513 311.571)">
        <g id="_Group_168" data-name="&lt;Group&gt;" transform="translate(0)">
          <path id="_Path_132" data-name="&lt;Path&gt;" d="M649.333,646.828H458.468a.971.971,0,0,1-.968-.968v-6.391a.971.971,0,0,1,.968-.968H649.333a.971.971,0,0,1,.968.968v6.391A.971.971,0,0,1,649.333,646.828Z" transform="translate(-457.5 -638.5)" fill="#b89994"/>
        </g>
        <g id="_Group_169" data-name="&lt;Group&gt;" opacity="0.4">
          <path id="_Path_133" data-name="&lt;Path&gt;" d="M509.114,646.828H458.468a.971.971,0,0,1-.968-.968v-6.391a.971.971,0,0,1,.968-.968h50.645a.941.941,0,0,1,.968.968v6.391A.941.941,0,0,1,509.114,646.828Z" transform="translate(-457.5 -638.5)" fill="#dbc3ab"/>
        </g>
        <g id="_Group_170" data-name="&lt;Group&gt;" transform="translate(3.825 8.328)">
          <path id="_Path_134" data-name="&lt;Path&gt;" d="M471.936,757.039h-5.665a.868.868,0,0,1-.871-.872V655.7h7.408V756.168A.868.868,0,0,1,471.936,757.039Z" transform="translate(-465.4 -655.7)" fill="#a98b81"/>
        </g>
        <g id="_Group_171" data-name="&lt;Group&gt;" transform="translate(3.825 8.328)" opacity="0.4">
          <path id="_Path_135" data-name="&lt;Path&gt;" d="M472.808,661.171H465.4V655.7h7.408Z" transform="translate(-465.4 -655.7)" fill="#a98b81"/>
        </g>
        <g id="_Group_172" data-name="&lt;Group&gt;" transform="translate(50.5 8.328)">
          <path id="_Path_136" data-name="&lt;Path&gt;" d="M568.336,757.039h-5.665a.868.868,0,0,1-.872-.872V655.7h7.408V756.168A.868.868,0,0,1,568.336,757.039Z" transform="translate(-561.8 -655.7)" fill="#a98b81"/>
        </g>
        <g id="_Group_173" data-name="&lt;Group&gt;" transform="translate(50.5 8.328)" opacity="0.4">
          <path id="_Path_137" data-name="&lt;Path&gt;" d="M569.208,661.171H561.8V655.7h7.408Z" transform="translate(-561.8 -655.7)" fill="#a98b81"/>
        </g>
        <g id="_Group_174" data-name="&lt;Group&gt;" transform="translate(134.457 8.328)">
          <path id="_Path_138" data-name="&lt;Path&gt;" d="M741.688,757.039h-5.665a.828.828,0,0,1-.823-.872V655.7h7.36V756.168A.868.868,0,0,1,741.688,757.039Z" transform="translate(-735.2 -655.7)" fill="#a98b81"/>
        </g>
        <g id="_Group_175" data-name="&lt;Group&gt;" transform="translate(134.457 8.328)" opacity="0.4">
          <path id="_Path_139" data-name="&lt;Path&gt;" d="M742.56,661.171H735.2V655.7h7.36Z" transform="translate(-735.2 -655.7)" fill="#a98b81"/>
        </g>
        <g id="_Group_176" data-name="&lt;Group&gt;" transform="translate(181.084 8.328)">
          <path id="_Path_140" data-name="&lt;Path&gt;" d="M838.036,757.039h-5.665a.868.868,0,0,1-.871-.872V655.7h7.408V756.168A.868.868,0,0,1,838.036,757.039Z" transform="translate(-831.5 -655.7)" fill="#a98b81"/>
        </g>
        <g id="_Group_177" data-name="&lt;Group&gt;" transform="translate(181.084 8.328)" opacity="0.4">
          <path id="_Path_141" data-name="&lt;Path&gt;" d="M838.908,661.171H831.5V655.7h7.408Z" transform="translate(-831.5 -655.7)" fill="#a98b81"/>
        </g>
      </g>
      <g id="_Group_178" data-name="&lt;Group&gt;" transform="translate(266.736 310.457)">
        <g id="_Group_179" data-name="&lt;Group&gt;">
          <path id="_Path_142" data-name="&lt;Path&gt;" d="M611.713,637.314H550.9V636.2h60.813Z" transform="translate(-550.9 -636.2)" fill="#57548d"/>
        </g>
        <g id="_Group_180" data-name="&lt;Group&gt;" opacity="0.4">
          <path id="_Path_143" data-name="&lt;Path&gt;" d="M568.815,637.314H550.9V636.2h17.915Z" transform="translate(-550.9 -636.2)" fill="#d5e8f7"/>
        </g>
      </g>
      <g id="_Group_181" data-name="&lt;Group&gt;" transform="translate(352.194 300.967)">
        <g id="_Group_182" data-name="&lt;Group&gt;">
          <path id="_Path_144" data-name="&lt;Path&gt;" d="M763.714,621.151H728.368a.971.971,0,0,1-.968-.968v-2.615a.971.971,0,0,1,.968-.968h35.345Z" transform="translate(-727.4 -616.6)" fill="#a8acec"/>
        </g>
        <g id="_Group_183" data-name="&lt;Group&gt;" transform="translate(29.438 0)">
          <path id="_Path_145" data-name="&lt;Path&gt;" d="M804.033,616.794v4.116h.581v.242H788.975a.765.765,0,0,1-.775-.775v-3.05a.756.756,0,0,1,.775-.726h15.639v.194Z" transform="translate(-788.2 -616.6)" fill="#888cf0"/>
        </g>
      </g>
      <g id="_Group_184" data-name="&lt;Group&gt;" transform="translate(349.531 305.519)">
        <g id="_Group_185" data-name="&lt;Group&gt;">
          <path id="_Path_146" data-name="&lt;Path&gt;" d="M758.262,632.052H722.868a.971.971,0,0,1-.968-.968v-4.116a.971.971,0,0,1,.968-.968h35.394Z" transform="translate(-721.9 -626)" fill="#57548d"/>
        </g>
        <g id="_Group_186" data-name="&lt;Group&gt;" transform="translate(29.487)">
          <path id="_Path_147" data-name="&lt;Path&gt;" d="M798.633,626.194v5.616h.581v.242H783.575a.756.756,0,0,1-.775-.726v-4.551a.765.765,0,0,1,.775-.775h15.639v.194Z" transform="translate(-782.8 -626)" fill="#474784"/>
        </g>
      </g>
      <g id="_Group_187" data-name="&lt;Group&gt;" transform="translate(282.271 246.448)">
        <g id="_Group_188" data-name="&lt;Group&gt;">
          <path id="_Path_148" data-name="&lt;Path&gt;" d="M662.834,560.891h-77.9a1.947,1.947,0,0,1-1.937-2.082l4.406-53.066A1.9,1.9,0,0,1,589.287,504h77.9a1.869,1.869,0,0,1,1.888,2.034l-4.358,53.115A1.934,1.934,0,0,1,662.834,560.891Z" transform="translate(-582.985 -504)" fill="#3a3d68"/>
        </g>
        <g id="_Group_189" data-name="&lt;Group&gt;" transform="translate(2.759)">
          <path id="_Path_149" data-name="&lt;Path&gt;" d="M668.485,560.891h-77.9a1.909,1.909,0,0,1-1.888-2.082l4.406-53.066A1.9,1.9,0,0,1,594.986,504h77.9a1.869,1.869,0,0,1,1.888,2.034l-4.406,53.115A1.865,1.865,0,0,1,668.485,560.891Z" transform="translate(-588.685 -504)" fill="#57548d"/>
        </g>
        <g id="_Group_190" data-name="&lt;Group&gt;" transform="translate(38.54 35.394)">
          <path id="_Path_150" data-name="&lt;Path&gt;" d="M687.624,606.829H667.047a.417.417,0,0,1-.339-.678l.823-1.259a.407.407,0,0,0,.048-.339l-4.987-26.92a.437.437,0,0,1,.436-.533h13.944a.465.465,0,0,1,.436.29l11.814,27.066a1.707,1.707,0,0,1-1.6,2.372Z" transform="translate(-662.585 -577.1)" fill="#474784"/>
        </g>
        <g id="_Group_191" data-name="&lt;Group&gt;" transform="translate(35.449 35.394)">
          <path id="_Path_151" data-name="&lt;Path&gt;" d="M663.463,606.829H656.49a.279.279,0,0,1-.29-.291v-1.065a.312.312,0,0,1,.29-.29h5.181a.854.854,0,0,0,.823-.968L659.2,582.281v-4.7a.4.4,0,0,1,.145-.339.328.328,0,0,1,.291-.145h0a.446.446,0,0,0-.339.533l5.181,27.986A1.022,1.022,0,0,1,663.463,606.829Z" transform="translate(-656.2 -577.1)" fill="#3a3d68"/>
        </g>
      </g>
      <g id="_Group_192" data-name="&lt;Group&gt;" transform="translate(184.037 225.798)">
        <g id="_Group_193" data-name="&lt;Group&gt;" transform="translate(0 13.436)">
          <path id="_Path_152" data-name="&lt;Path&gt;" d="M414.38,510.791H383.005a2.914,2.914,0,0,1-2.905-2.905V489.1h37.185v18.786a2.883,2.883,0,0,1-2.905,2.905Z" transform="translate(-380.1 -489.1)" fill="#fed257"/>
        </g>
        <g id="_Group_194" data-name="&lt;Group&gt;" transform="translate(1.985 26.848)">
          <path id="_Path_153" data-name="&lt;Path&gt;" d="M384.2,524.159l16.026-7.214a1.333,1.333,0,0,1,1.21,0l15.978,7.214" transform="translate(-384.2 -516.8)" fill="none" stroke="#edbf4f" stroke-width="2"/>
        </g>
        <g id="_Group_195" data-name="&lt;Group&gt;" transform="translate(0)">
          <path id="_Path_154" data-name="&lt;Path&gt;" d="M380.1,474.786l17.527-13.073a1.744,1.744,0,0,1,2.13,0l17.527,13.073-17.527,12.492a1.821,1.821,0,0,1-2.082,0Z" transform="translate(-380.1 -461.35)" fill="#edbf4f"/>
        </g>
        <g id="_Group_196" data-name="&lt;Group&gt;" transform="translate(4.309 6.222)">
          <path id="_Path_155" data-name="&lt;Path&gt;" d="M417.567,484.465l-13.218,9.442a1.821,1.821,0,0,1-2.082,0L389,484.465V474.2h28.567Z" transform="translate(-389 -474.2)" fill="#bce2f5"/>
        </g>
        <g id="_Group_197" data-name="&lt;Group&gt;" transform="translate(7.36 9.902)">
          <path id="_Path_156" data-name="&lt;Path&gt;" d="M417.814,484.076H395.3V481.8h22.514Z" transform="translate(-395.3 -481.8)" fill="#f8fcfd"/>
        </g>
        <g id="_Group_198" data-name="&lt;Group&gt;" transform="translate(7.36 14.695)">
          <path id="_Path_157" data-name="&lt;Path&gt;" d="M417.814,493.976H395.3V491.7h22.514Z" transform="translate(-395.3 -491.7)" fill="#f8fcfd"/>
        </g>
        <g id="_Group_199" data-name="&lt;Group&gt;" transform="translate(8.57 19.488)">
          <path id="_Path_158" data-name="&lt;Path&gt;" d="M414.746,503.876h-13.8L397.8,501.6h20.094Z" transform="translate(-397.8 -501.6)" fill="#f8fcfd"/>
        </g>
      </g>
      <g id="_Group_200" data-name="&lt;Group&gt;" transform="translate(234.925 264.29)">
        <g id="_Group_201" data-name="&lt;Group&gt;" transform="translate(0 13.436)">
          <path id="_Path_159" data-name="&lt;Path&gt;" d="M519.48,590.291H488.105a2.914,2.914,0,0,1-2.905-2.905V568.6h37.185v18.786A2.914,2.914,0,0,1,519.48,590.291Z" transform="translate(-485.2 -568.6)" fill="#fed257"/>
        </g>
        <g id="_Group_202" data-name="&lt;Group&gt;" transform="translate(1.985 26.848)">
          <path id="_Path_160" data-name="&lt;Path&gt;" d="M489.3,603.659l16.026-7.214a1.233,1.233,0,0,1,1.162,0l16.026,7.214" transform="translate(-489.3 -596.3)" fill="none" stroke="#edbf4f" stroke-width="2"/>
        </g>
        <g id="_Group_203" data-name="&lt;Group&gt;">
          <path id="_Path_161" data-name="&lt;Path&gt;" d="M485.2,554.286l17.527-13.073a1.744,1.744,0,0,1,2.13,0l17.527,13.073-17.576,12.492a1.821,1.821,0,0,1-2.082,0Z" transform="translate(-485.2 -540.85)" fill="#edbf4f"/>
        </g>
        <g id="_Group_204" data-name="&lt;Group&gt;" transform="translate(4.309 6.222)">
          <path id="_Path_162" data-name="&lt;Path&gt;" d="M522.667,563.965,509.4,573.406a1.821,1.821,0,0,1-2.082,0L494.1,563.965V553.7h28.567Z" transform="translate(-494.1 -553.7)" fill="#bce2f5"/>
        </g>
        <g id="_Group_205" data-name="&lt;Group&gt;" transform="translate(7.311 9.902)">
          <path id="_Path_163" data-name="&lt;Path&gt;" d="M522.863,563.576H500.3V561.3h22.563Z" transform="translate(-500.3 -561.3)" fill="#f8fcfd"/>
        </g>
        <g id="_Group_206" data-name="&lt;Group&gt;" transform="translate(7.311 14.695)">
          <path id="_Path_164" data-name="&lt;Path&gt;" d="M522.863,573.476H500.3V571.2h22.563Z" transform="translate(-500.3 -571.2)" fill="#f8fcfd"/>
        </g>
        <g id="_Group_207" data-name="&lt;Group&gt;" transform="translate(8.522 19.488)">
          <path id="_Path_165" data-name="&lt;Path&gt;" d="M519.795,583.376H505.947L502.8,581.1h20.142Z" transform="translate(-502.8 -581.1)" fill="#f8fcfd"/>
        </g>
      </g>
      <g id="_Group_208" data-name="&lt;Group&gt;" transform="translate(236.571 154.091)">
        <g id="_Group_209" data-name="&lt;Group&gt;" transform="translate(0 13.436)">
          <path id="_Path_166" data-name="&lt;Path&gt;" d="M522.88,362.691H491.505a2.914,2.914,0,0,1-2.905-2.905V341h37.185v18.786A2.914,2.914,0,0,1,522.88,362.691Z" transform="translate(-488.6 -341)" fill="#fed257"/>
        </g>
        <g id="_Group_210" data-name="&lt;Group&gt;" transform="translate(1.985 26.884)">
          <path id="_Path_167" data-name="&lt;Path&gt;" d="M492.7,376.147l15.978-7.263a1.736,1.736,0,0,1,1.21,0l16.026,7.263" transform="translate(-492.7 -368.775)" fill="none" stroke="#edbf4f" stroke-width="2"/>
        </g>
        <g id="_Group_211" data-name="&lt;Group&gt;">
          <path id="_Path_168" data-name="&lt;Path&gt;" d="M488.6,326.686l17.527-13.073a1.744,1.744,0,0,1,2.13,0l17.527,13.073-17.576,12.492a1.821,1.821,0,0,1-2.082,0Z" transform="translate(-488.6 -313.25)" fill="#edbf4f"/>
        </g>
        <g id="_Group_212" data-name="&lt;Group&gt;" transform="translate(4.309 6.27)">
          <path id="_Path_169" data-name="&lt;Path&gt;" d="M526.067,336.465,512.8,345.858a1.821,1.821,0,0,1-2.082,0L497.5,336.465V326.2h28.567Z" transform="translate(-497.5 -326.2)" fill="#bce2f5"/>
        </g>
        <g id="_Group_213" data-name="&lt;Group&gt;" transform="translate(7.311 9.95)">
          <path id="_Path_170" data-name="&lt;Path&gt;" d="M526.263,336.027H503.7V333.8h22.563Z" transform="translate(-503.7 -333.8)" fill="#f8fcfd"/>
        </g>
        <g id="_Group_214" data-name="&lt;Group&gt;" transform="translate(7.311 14.743)">
          <path id="_Path_171" data-name="&lt;Path&gt;" d="M526.263,345.927H503.7V343.7h22.563Z" transform="translate(-503.7 -343.7)" fill="#f8fcfd"/>
        </g>
        <g id="_Group_215" data-name="&lt;Group&gt;" transform="translate(8.522 19.537)">
          <path id="_Path_172" data-name="&lt;Path&gt;" d="M523.195,355.827H509.347L506.2,353.6h20.142Z" transform="translate(-506.2 -353.6)" fill="#f8fcfd"/>
        </g>
      </g>
      <g id="_Group_216" data-name="&lt;Group&gt;" transform="translate(149.08 162.806)">
        <g id="_Group_217" data-name="&lt;Group&gt;" transform="translate(0 13.436)">
          <path id="_Path_173" data-name="&lt;Path&gt;" d="M342.228,380.691H310.805a2.914,2.914,0,0,1-2.905-2.905V359h37.234v18.786A2.914,2.914,0,0,1,342.228,380.691Z" transform="translate(-307.9 -359)" fill="#fed257"/>
        </g>
        <g id="_Group_218" data-name="&lt;Group&gt;" transform="translate(1.985 26.848)">
          <path id="_Path_174" data-name="&lt;Path&gt;" d="M312,394.06l16.026-7.214a1.333,1.333,0,0,1,1.21,0l16.026,7.214" transform="translate(-312 -386.7)" fill="none" stroke="#edbf4f" stroke-width="2"/>
        </g>
        <g id="_Group_219" data-name="&lt;Group&gt;">
          <path id="_Path_175" data-name="&lt;Path&gt;" d="M307.9,344.686l17.527-13.073a1.815,1.815,0,0,1,2.179,0l17.527,13.073-17.576,12.492a1.821,1.821,0,0,1-2.082,0Z" transform="translate(-307.9 -331.25)" fill="#edbf4f"/>
        </g>
        <g id="_Group_220" data-name="&lt;Group&gt;" transform="translate(4.358 6.222)">
          <path id="_Path_176" data-name="&lt;Path&gt;" d="M345.418,354.365,332.2,363.806a1.821,1.821,0,0,1-2.082,0L316.9,354.365V344.1h28.518Z" transform="translate(-316.9 -344.1)" fill="#bce2f5"/>
        </g>
        <g id="_Group_221" data-name="&lt;Group&gt;" transform="translate(7.36 9.902)">
          <path id="_Path_177" data-name="&lt;Path&gt;" d="M345.614,353.976H323.1V351.7h22.514Z" transform="translate(-323.1 -351.7)" fill="#f8fcfd"/>
        </g>
        <g id="_Group_222" data-name="&lt;Group&gt;" transform="translate(7.36 14.695)">
          <path id="_Path_178" data-name="&lt;Path&gt;" d="M345.614,363.876H323.1V361.6h22.514Z" transform="translate(-323.1 -361.6)" fill="#f8fcfd"/>
        </g>
        <g id="_Group_223" data-name="&lt;Group&gt;" transform="translate(8.57 19.488)">
          <path id="_Path_179" data-name="&lt;Path&gt;" d="M342.546,373.776h-13.8L325.6,371.5h20.094Z" transform="translate(-325.6 -371.5)" fill="#f8fcfd"/>
        </g>
      </g>
      <g id="_Group_224" data-name="&lt;Group&gt;" transform="translate(68.415 174.366)">
        <g id="_Group_225" data-name="&lt;Group&gt;" transform="translate(0 13.448)">
          <path id="_Path_180" data-name="&lt;Path&gt;" d="M175.58,404.591H144.205a2.914,2.914,0,0,1-2.905-2.905V382.9h37.185v18.786A2.914,2.914,0,0,1,175.58,404.591Z" transform="translate(-141.3 -382.9)" fill="#fed257"/>
        </g>
        <g id="_Group_226" data-name="&lt;Group&gt;" transform="translate(1.985 26.86)">
          <path id="_Path_181" data-name="&lt;Path&gt;" d="M145.4,417.96l15.978-7.214a1.334,1.334,0,0,1,1.21,0l16.026,7.214" transform="translate(-145.4 -410.6)" fill="none" stroke="#edbf4f" stroke-width="2"/>
        </g>
        <g id="_Group_227" data-name="&lt;Group&gt;">
          <path id="_Path_182" data-name="&lt;Path&gt;" d="M141.3,368.573l17.527-13.121a1.9,1.9,0,0,1,2.13,0l17.527,13.121-17.576,12.492a1.821,1.821,0,0,1-2.082,0Z" transform="translate(-141.3 -355.125)" fill="#edbf4f"/>
        </g>
        <g id="_Group_228" data-name="&lt;Group&gt;" transform="translate(4.309 6.234)">
          <path id="_Path_183" data-name="&lt;Path&gt;" d="M178.767,378.265,165.5,387.706a1.821,1.821,0,0,1-2.082,0L150.2,378.265V368h28.567Z" transform="translate(-150.2 -368)" fill="#bce2f5"/>
        </g>
        <g id="_Group_229" data-name="&lt;Group&gt;" transform="translate(7.311 9.914)">
          <path id="_Path_184" data-name="&lt;Path&gt;" d="M178.914,377.827H156.4V375.6h22.514Z" transform="translate(-156.4 -375.6)" fill="#f8fcfd"/>
        </g>
        <g id="_Group_230" data-name="&lt;Group&gt;" transform="translate(7.311 14.707)">
          <path id="_Path_185" data-name="&lt;Path&gt;" d="M178.914,387.727H156.4V385.5h22.514Z" transform="translate(-156.4 -385.5)" fill="#f8fcfd"/>
        </g>
        <g id="_Group_231" data-name="&lt;Group&gt;" transform="translate(8.522 19.5)">
          <path id="_Path_186" data-name="&lt;Path&gt;" d="M175.846,397.627h-13.8L158.9,395.4h20.142Z" transform="translate(-158.9 -395.4)" fill="#f8fcfd"/>
        </g>
      </g>
      <g id="_Group_232" data-name="&lt;Group&gt;" transform="translate(70.787 288.572)">
        <g id="_Group_233" data-name="&lt;Group&gt;">
          <path id="_Path_187" data-name="&lt;Path&gt;" d="M147.168,591H184.45V723.666H147.168a.971.971,0,0,1-.968-.968V591.968A.971.971,0,0,1,147.168,591Z" transform="translate(-146.2 -591)" fill="#a98b81"/>
        </g>
        <g id="_Group_234" data-name="&lt;Group&gt;" transform="translate(34.958)">
          <path id="_Path_188" data-name="&lt;Path&gt;" d="M289.042,591.968V722.7a.971.971,0,0,1-.968.968H219.368a.971.971,0,0,1-.968-.968V591.968a.971.971,0,0,1,.968-.968h68.705A.971.971,0,0,1,289.042,591.968Z" transform="translate(-218.4 -591)" fill="#b89994"/>
        </g>
        <g id="_Group_235" data-name="&lt;Group&gt;" transform="translate(38.25 36.846)">
          <path id="_Path_189" data-name="&lt;Path&gt;" d="M289.209,691.648H225.2V667.1h64.009Z" transform="translate(-225.2 -667.1)" fill="none" stroke="#f2e9e2" stroke-linecap="round" stroke-linejoin="round" stroke-width="2"/>
        </g>
        <g id="_Group_236" data-name="&lt;Group&gt;" transform="translate(65.122 47.934)">
          <path id="_Path_190" data-name="&lt;Path&gt;" d="M291.013,692.324H280.7V690h10.313Z" transform="translate(-280.7 -690)" fill="#f2e9e2"/>
        </g>
        <g id="_Group_237" data-name="&lt;Group&gt;" transform="translate(38.25 71.272)">
          <path id="_Path_191" data-name="&lt;Path&gt;" d="M289.209,762.748H225.2V738.2h64.009Z" transform="translate(-225.2 -738.2)" fill="none" stroke="#f2e9e2" stroke-linecap="round" stroke-linejoin="round" stroke-width="2"/>
        </g>
        <g id="_Group_238" data-name="&lt;Group&gt;" transform="translate(65.122 82.408)">
          <path id="_Path_192" data-name="&lt;Path&gt;" d="M291.013,763.476H280.7V761.2h10.313Z" transform="translate(-280.7 -761.2)" fill="#f2e9e2"/>
        </g>
        <g id="_Group_239" data-name="&lt;Group&gt;" transform="translate(38.25 2.372)">
          <path id="_Path_193" data-name="&lt;Path&gt;" d="M289.209,620.448H225.2V595.9h64.009Z" transform="translate(-225.2 -595.9)" fill="none" stroke="#f2e9e2" stroke-linecap="round" stroke-linejoin="round" stroke-width="2"/>
        </g>
        <g id="_Group_240" data-name="&lt;Group&gt;" transform="translate(65.122 13.509)">
          <path id="_Path_194" data-name="&lt;Path&gt;" d="M291.013,621.224H280.7V618.9h10.313Z" transform="translate(-280.7 -618.9)" fill="#f2e9e2"/>
        </g>
        <g id="_Group_241" data-name="&lt;Group&gt;" transform="translate(38.25 105.697)">
          <path id="_Path_195" data-name="&lt;Path&gt;" d="M289.209,833.848H225.2V809.3h64.009Z" transform="translate(-225.2 -809.3)" fill="none" stroke="#f2e9e2" stroke-linecap="round" stroke-linejoin="round" stroke-width="2"/>
        </g>
        <g id="_Group_242" data-name="&lt;Group&gt;" transform="translate(65.122 116.833)">
          <path id="_Path_196" data-name="&lt;Path&gt;" d="M291.013,834.576H280.7V832.3h10.313Z" transform="translate(-280.7 -832.3)" fill="#f2e9e2"/>
        </g>
      </g>
      <g id="_Group_243" data-name="&lt;Group&gt;" transform="translate(61.782 421.238)">
        <path id="_Path_197" data-name="&lt;Path&gt;" d="M488.218,869.6H127.6V865H488.218Z" transform="translate(-127.6 -865)" fill="#57548d"/>
      </g>
    </g>
  </g>
</svg>
