<svg xmlns="http://www.w3.org/2000/svg" xmlns:xlink="http://www.w3.org/1999/xlink" width="348.861" height="328.189" viewBox="0 0 348.861 328.189">
  <defs>
    <clipPath id="clip-path">
      <path id="Path_151" data-name="Path 151" d="M621.781,236.53a2.875,2.875,0,0,1,2.235,2.622c.076,2.159-2.273,2.011-2.273,2.011S619.713,238.553,621.781,236.53Z" transform="translate(-620.852 -236.53)"/>
    </clipPath>
  </defs>
  <g id="_3910343-ai" data-name="3910343-ai" transform="translate(-16.793 -8.419)">
    <g id="OBJECTS" transform="translate(16.793 8.419)">
      <g id="_Group_" data-name="&lt;Group&gt;">
        <g id="_Group_2" data-name="&lt;Group&gt;">
          <path id="_Path_" data-name="&lt;Path&gt;" d="M783.2,277.159s2.353-6.793,9.373-6.944c7.058-.19,4.516,4.174,11.953,3.453,7.4-.683,4.668-9.031,16.241-10.777,11.574-1.708,16.469,14.268,16.469,14.268Z" transform="translate(-505.503 -185.344)" fill="#fff"/>
          <path id="_Path_2" data-name="&lt;Path&gt;" d="M461.2,69.5s1.746-5.085,6.982-5.2c5.275-.152,3.377,3.112,8.918,2.58s3.529-6.755,12.143-8.045c8.652-1.29,12.295,10.663,12.295,10.663Z" transform="translate(-305.692 -58.743)" fill="#fff"/>
          <path id="_Path_3" data-name="&lt;Path&gt;" d="M51.4,205.977s1.556-4.554,6.261-4.668,3,2.808,7.969,2.315c4.933-.455,3.112-6.034,10.853-7.172,7.7-1.176,10.967,9.525,10.967,9.525Z" transform="translate(-51.4 -144.14)" fill="#fff"/>
        </g>
        <g id="_Group_3" data-name="&lt;Group&gt;" transform="translate(4.136 32.542)">
          <g id="_Group_4" data-name="&lt;Group&gt;">
            <g id="_Group_5" data-name="&lt;Group&gt;" transform="translate(49.445)">
              <path id="_Path_4" data-name="&lt;Path&gt;" d="M321.81,440.146H214.23a21.612,21.612,0,0,1-21.63-21.592V166.092A21.612,21.612,0,0,1,214.23,144.5H321.81a21.612,21.612,0,0,1,21.63,21.592V418.555A21.612,21.612,0,0,1,321.81,440.146Z" transform="translate(-192.6 -144.5)" fill="#e5edfd"/>
              <g id="_Group_6" data-name="&lt;Group&gt;">
                <path id="_Compound_Path_" data-name="&lt;Compound Path&gt;" d="M343.44,166.092V418.555a21.612,21.612,0,0,1-21.63,21.592H214.23a21.612,21.612,0,0,1-21.63-21.592V166.092A21.612,21.612,0,0,1,214.23,144.5H321.81A21.612,21.612,0,0,1,343.44,166.092ZM214.23,151.9A14.227,14.227,0,0,0,200,166.092V418.555a14.227,14.227,0,0,0,14.23,14.192H321.81a14.227,14.227,0,0,0,14.23-14.192V166.092A14.227,14.227,0,0,0,321.81,151.9Z" transform="translate(-192.6 -144.5)" fill="#060000" fill-rule="evenodd"/>
              </g>
              <g id="_Group_7" data-name="&lt;Group&gt;" transform="translate(41.78 0.721)">
                <path id="_Path_5" data-name="&lt;Path&gt;" d="M370.018,154.255a6.276,6.276,0,0,1-6.3,6.261H308.961a6.267,6.267,0,0,1-6.261-6.261V146.4h67.318Z" transform="translate(-302.7 -146.4)" fill="#060000"/>
              </g>
              <path id="_Path_6" data-name="&lt;Path&gt;" d="M358.3,161.9h25.842" transform="translate(-295.422 -155.297)" fill="none" stroke="#fff" stroke-linecap="round" stroke-linejoin="round" stroke-width="1.5"/>
            </g>
            <g id="_Group_8" data-name="&lt;Group&gt;" transform="translate(0 37.226)">
              <g id="_Group_9" data-name="&lt;Group&gt;" transform="translate(68.836 149.702)">
                <path id="_Path_7" data-name="&lt;Path&gt;" d="M326.615,713.336H249.734a6.017,6.017,0,0,1-6.034-6V643.1a5.992,5.992,0,0,1,6.034-6h76.881a5.992,5.992,0,0,1,6.034,6V707.34A6.017,6.017,0,0,1,326.615,713.336Z" transform="translate(-243.7 -637.1)" fill="#ffc915"/>
                <g id="_Group_10" data-name="&lt;Group&gt;" transform="translate(12.447 10.663)">
                  <path id="_Path_8" data-name="&lt;Path&gt;" d="M296.574,687.627H278.891a2.381,2.381,0,0,1-2.391-2.391V667.591a2.381,2.381,0,0,1,2.391-2.391h17.683a2.381,2.381,0,0,1,2.391,2.391v17.645A2.381,2.381,0,0,1,296.574,687.627Z" transform="translate(-276.5 -665.2)" fill="#fff"/>
                  <path id="_Path_9" data-name="&lt;Path&gt;" d="M355.9,683.8h20.3" transform="translate(-325.77 -676.742)" fill="none" stroke="#000" stroke-linecap="round" stroke-linejoin="round" stroke-width="2.6"/>
                  <path id="_Path_10" data-name="&lt;Path&gt;" d="M355.9,702.9h32.71" transform="translate(-325.77 -688.594)" fill="none" stroke="#000" stroke-linecap="round" stroke-linejoin="round" stroke-width="2.6"/>
                  <path id="_Path_11" data-name="&lt;Path&gt;" d="M276.5,749h22.465" transform="translate(-276.5 -717.2)" fill="none" stroke="#fff" stroke-linecap="round" stroke-linejoin="round" stroke-width="2.6"/>
                  <path id="_Path_12" data-name="&lt;Path&gt;" d="M276.5,768.6h62.841" transform="translate(-276.5 -729.363)" fill="none" stroke="#fff" stroke-linecap="round" stroke-linejoin="round" stroke-width="2.6"/>
                  <path id="_Path_13" data-name="&lt;Path&gt;" d="M276.5,790.3h62.841" transform="translate(-276.5 -742.828)" fill="none" stroke="#fff" stroke-linecap="round" stroke-linejoin="round" stroke-width="2.6"/>
                </g>
              </g>
              <g id="_Group_11" data-name="&lt;Group&gt;" transform="translate(0 17.873)">
                <path id="_Path_14" data-name="&lt;Path&gt;" d="M98.312,307.725A18.006,18.006,0,1,1,80.325,289.7,18.009,18.009,0,0,1,98.312,307.725Z" transform="translate(-62.3 -289.7)" fill="#dc761c"/>
                <path id="_Path_15" data-name="&lt;Path&gt;" d="M105.969,324l-9.714,10.056L90.6,329.882" transform="translate(-79.861 -310.984)" fill="none" stroke="#fff" stroke-linecap="round" stroke-linejoin="round" stroke-width="4.3"/>
              </g>
              <g id="_Group_12" data-name="&lt;Group&gt;" transform="translate(24.134 83.598)">
                <path id="_Path_16" data-name="&lt;Path&gt;" d="M190.145,512.8H129.809a3.911,3.911,0,0,1-3.909-3.947V466.846a3.935,3.935,0,0,1,3.909-3.946h60.336a3.935,3.935,0,0,1,3.909,3.946v42.008A3.911,3.911,0,0,1,190.145,512.8Z" transform="translate(-125.9 -462.9)" fill="#aa8301"/>
                <g id="_Group_13" data-name="&lt;Group&gt;" transform="translate(23.034 10.132)">
                  <path id="_Compound_Path_2" data-name="&lt;Compound Path&gt;" d="M206.674,505.8l-.038.038a9.88,9.88,0,0,1-1.442,1.935L197.377,518.1l-7.817-10.322a12.422,12.422,0,0,1-1.442-1.935l-.038-.038h.038a10.607,10.607,0,0,1-1.518-5.426,10.777,10.777,0,0,1,21.554,0A10.577,10.577,0,0,1,206.674,505.8Zm-4.554-5.5a4.743,4.743,0,1,0-4.743,4.743A4.713,4.713,0,0,0,202.12,500.3Z" transform="translate(-186.6 -489.6)" fill="#fff" fill-rule="evenodd"/>
                </g>
              </g>
              <g id="_Group_14" data-name="&lt;Group&gt;" transform="translate(66.825)">
                <path id="_Path_17" data-name="&lt;Path&gt;" d="M348.409,318.874H244.434a6.025,6.025,0,0,1-6.034-6.034V248.634a6.025,6.025,0,0,1,6.034-6.034H348.409a6.025,6.025,0,0,1,6.034,6.034V312.84A6.025,6.025,0,0,1,348.409,318.874Z" transform="translate(-238.4 -242.6)" fill="#fff"/>
                <g id="_Group_15" data-name="&lt;Group&gt;" transform="translate(9.563 18.215)">
                  <g id="_Group_16" data-name="&lt;Group&gt;">
                    <path id="_Path_18" data-name="&lt;Path&gt;" d="M281.17,310.257H265.687a2.057,2.057,0,0,1-2.087-2.087V292.687a2.057,2.057,0,0,1,2.087-2.087H281.17a2.058,2.058,0,0,1,2.087,2.087V308.17A2.058,2.058,0,0,1,281.17,310.257Z" transform="translate(-263.6 -290.6)" fill="#fcf3d7"/>
                    <path id="_Path_19" data-name="&lt;Path&gt;" d="M347.27,310.257H331.787a2.058,2.058,0,0,1-2.087-2.087V292.687a2.058,2.058,0,0,1,2.087-2.087H347.27a2.057,2.057,0,0,1,2.087,2.087V308.17A2.057,2.057,0,0,1,347.27,310.257Z" transform="translate(-304.617 -290.6)" fill="#fcf3d7"/>
                    <path id="_Path_20" data-name="&lt;Path&gt;" d="M413.37,310.257H397.887a2.057,2.057,0,0,1-2.087-2.087V292.687a2.057,2.057,0,0,1,2.087-2.087H413.37a2.058,2.058,0,0,1,2.087,2.087V308.17A2.058,2.058,0,0,1,413.37,310.257Z" transform="translate(-345.634 -290.6)" fill="#fcf3d7"/>
                    <path id="_Path_21" data-name="&lt;Path&gt;" d="M479.47,310.257H463.987a2.058,2.058,0,0,1-2.087-2.087V292.687a2.058,2.058,0,0,1,2.087-2.087H479.47a2.057,2.057,0,0,1,2.087,2.087V308.17A2.057,2.057,0,0,1,479.47,310.257Z" transform="translate(-386.651 -290.6)" fill="#dfab01"/>
                  </g>
                  <g id="_Group_17" data-name="&lt;Group&gt;" transform="translate(0 26.525)">
                    <path id="_Path_22" data-name="&lt;Path&gt;" d="M281.17,380.195H265.687a2.058,2.058,0,0,1-2.087-2.087V362.625a2.09,2.09,0,0,1,2.087-2.125H281.17a2.09,2.09,0,0,1,2.087,2.125v15.482A2.058,2.058,0,0,1,281.17,380.195Z" transform="translate(-263.6 -360.5)" fill="#fcf3d7"/>
                    <path id="_Path_23" data-name="&lt;Path&gt;" d="M347.27,380.195H331.787a2.058,2.058,0,0,1-2.087-2.087V362.625a2.09,2.09,0,0,1,2.087-2.125H347.27a2.09,2.09,0,0,1,2.087,2.125v15.482A2.058,2.058,0,0,1,347.27,380.195Z" transform="translate(-304.617 -360.5)" fill="#fcf3d7"/>
                    <path id="_Path_24" data-name="&lt;Path&gt;" d="M413.37,380.195H397.887a2.058,2.058,0,0,1-2.087-2.087V362.625a2.09,2.09,0,0,1,2.087-2.125H413.37a2.09,2.09,0,0,1,2.087,2.125v15.482A2.058,2.058,0,0,1,413.37,380.195Z" transform="translate(-345.634 -360.5)" fill="#fcf3d7"/>
                    <path id="_Path_25" data-name="&lt;Path&gt;" d="M479.47,380.195H463.987a2.058,2.058,0,0,1-2.087-2.087V362.625a2.09,2.09,0,0,1,2.087-2.125H479.47a2.089,2.089,0,0,1,2.087,2.125v15.482A2.057,2.057,0,0,1,479.47,380.195Z" transform="translate(-386.651 -360.5)" fill="#fcf3d7"/>
                  </g>
                </g>
              </g>
              <g id="_Group_18" data-name="&lt;Group&gt;" transform="translate(106.935 83.598)">
                <path id="_Path_26" data-name="&lt;Path&gt;" d="M416.086,512.8H348.047a3.943,3.943,0,0,1-3.946-3.947V466.846a3.968,3.968,0,0,1,3.946-3.946h68.039a3.968,3.968,0,0,1,3.946,3.946v42.008A3.943,3.943,0,0,1,416.086,512.8Z" transform="translate(-344.1 -462.9)" fill="#fff"/>
                <path id="_Path_27" data-name="&lt;Path&gt;" d="M425.41,489.208H371.487a2.057,2.057,0,0,1-2.087-2.087v-7.134a2.057,2.057,0,0,1,2.087-2.087H425.41a2.081,2.081,0,0,1,2.087,2.087v7.134A2.081,2.081,0,0,1,425.41,489.208Z" transform="translate(-359.799 -472.208)" fill="#9bbdf9"/>
                <g id="_Group_19" data-name="&lt;Group&gt;" transform="translate(10.36 24.438)">
                  <path id="_Path_28" data-name="&lt;Path&gt;" d="M371.4,527.3h26.487" transform="translate(-371.4 -527.3)" fill="none" stroke="#000" stroke-linecap="round" stroke-linejoin="round" stroke-width="2.6"/>
                  <path id="_Path_29" data-name="&lt;Path&gt;" d="M371.4,544.3h56.579" transform="translate(-371.4 -537.849)" fill="none" stroke="#000" stroke-linecap="round" stroke-linejoin="round" stroke-width="2.6"/>
                  <path id="_Path_30" data-name="&lt;Path&gt;" d="M371.4,563.1h56.579" transform="translate(-371.4 -549.515)" fill="none" stroke="#000" stroke-linecap="round" stroke-linejoin="round" stroke-width="2.6"/>
                </g>
              </g>
              <g id="_Group_20" data-name="&lt;Group&gt;" transform="translate(171.18 165.905)">
                <path id="_Path_31" data-name="&lt;Path&gt;" d="M557.646,723.591H518.181a4.786,4.786,0,0,1-4.781-4.781v-34.19a4.818,4.818,0,0,1,4.781-4.819h39.465a4.818,4.818,0,0,1,4.781,4.819v34.19A4.786,4.786,0,0,1,557.646,723.591Z" transform="translate(-513.4 -679.8)" fill="#dc761c"/>
                <path id="_Compound_Path_3" data-name="&lt;Compound Path&gt;" d="M571.178,719.256v1.366a1.258,1.258,0,0,1-1.025,1.214l-1.632.3a8.274,8.274,0,0,1-.8,1.973l.911,1.366a1.259,1.259,0,0,1-.114,1.594l-.987.949a1.263,1.263,0,0,1-1.594.152l-1.29-.911a9.369,9.369,0,0,1-2.011.835l-.266,1.594a1.291,1.291,0,0,1-1.214,1.025h-1.4a1.258,1.258,0,0,1-1.214-1.025l-.3-1.594a9.622,9.622,0,0,1-1.973-.835l-1.366.911a1.207,1.207,0,0,1-1.556-.114l-.987-.987a1.215,1.215,0,0,1-.152-1.556l.949-1.366a9.368,9.368,0,0,1-.835-2.011l-1.594-.266a1.222,1.222,0,0,1-1.025-1.214v-1.366a1.194,1.194,0,0,1,1.025-1.214l1.594-.3a9.368,9.368,0,0,1,.835-2.011l-.949-1.328a1.268,1.268,0,0,1,.152-1.594l.987-.949a1.211,1.211,0,0,1,1.556-.152l1.328.911a9.369,9.369,0,0,1,2.011-.835l.3-1.594a1.194,1.194,0,0,1,1.214-1.025h1.4a1.213,1.213,0,0,1,1.176,1.025l.266,1.632a9.372,9.372,0,0,1,2.011.835l1.328-.949a1.259,1.259,0,0,1,1.594.114l.987.987a1.207,1.207,0,0,1,.114,1.556l-.911,1.366a8.135,8.135,0,0,1,.8,2.011l1.632.266A1.258,1.258,0,0,1,571.178,719.256Zm-6.451.721v-.038a4.269,4.269,0,1,0,0,.038Z" transform="translate(-535.925 -698.044)" fill="#fff" fill-rule="evenodd"/>
              </g>
            </g>
          </g>
        </g>
      </g>
      <g id="_Group_21" data-name="&lt;Group&gt;" transform="translate(183.675 45.572)">
        <g id="_Group_22" data-name="&lt;Group&gt;" transform="translate(0 0)">
          <g id="_Group_23" data-name="&lt;Group&gt;" transform="translate(62.626 103.148)">
            <g id="_Group_24" data-name="&lt;Group&gt;">
              <g id="_Group_25" data-name="&lt;Group&gt;" transform="translate(0 117.56)">
                <g id="_Group_26" data-name="&lt;Group&gt;" transform="translate(0 36.695)">
                  <path id="_Path_32" data-name="&lt;Path&gt;" d="M682.646,883c2.77,1.708,2.2,15.1,2.2,15.1l-9.183-.038v-2.846s-19.695,3.263-24.134,3.188c-2.011-.038-2.77-.721-3.036-1.632a2.606,2.606,0,0,1,1.252-2.846l8.993-4.971Z" transform="translate(-648.428 -877.839)" fill="#200902"/>
                  <path id="_Path_33" data-name="&lt;Path&gt;" d="M698.254,869.4l1.252,5.161s-8.614,4.478-15.482,7.438-8.424-1.48-8.424-1.48l12.067-9.828Z" transform="translate(-665.289 -869.4)" fill="#ecc696"/>
                </g>
                <path id="_Path_34" data-name="&lt;Path&gt;" d="M707.1,814.556V772.7l11.953.987L717.8,809.395Z" transform="translate(-684.836 -772.7)" fill="#ecc696"/>
              </g>
              <path id="_Path_35" data-name="&lt;Path&gt;" d="M708.571,462.9l-1.176,150.385H684.209L679.2,474.17Z" transform="translate(-667.523 -462.9)" fill="#3a2222"/>
            </g>
            <g id="_Group_27" data-name="&lt;Group&gt;" transform="translate(14.296)">
              <path id="_Path_36" data-name="&lt;Path&gt;" d="M712.853,462.9c11.422,18.594,8.8,32.1,9.942,42.539l2.239,30.813a13.756,13.756,0,0,1-27.284,3.263L686.1,471.7Z" transform="translate(-686.1 -462.9)" fill="#523332"/>
              <g id="_Group_28" data-name="&lt;Group&gt;" transform="translate(13.395 62.803)">
                <g id="_Group_29" data-name="&lt;Group&gt;" transform="translate(32.673 46.789)">
                  <g id="_Group_30" data-name="&lt;Group&gt;" transform="translate(9.9 30.927)">
                    <path id="_Path_37" data-name="&lt;Path&gt;" d="M856.02,843c3.263-.038,9.866,11.612,9.866,11.612l-7.817,4.857-1.518-2.429s-14.951,13.244-18.746,15.52c-1.745,1.025-2.732.873-3.415.228a2.554,2.554,0,0,1-.493-3.074l5.009-8.993Z" transform="translate(-833.589 -839.281)" fill="#200902"/>
                    <path id="_Path_38" data-name="&lt;Path&gt;" d="M860.919,833.2l3.795,3.719s-4.933,8.348-9.183,14.5c-4.25,6.185-7.931,3.225-7.931,3.225l5.009-14.723Z" transform="translate(-842.283 -833.2)" fill="#ecc696"/>
                  </g>
                  <path id="_Path_39" data-name="&lt;Path&gt;" d="M829.7,792.683,807.5,757.2l10.625-5.5,17.911,30.927Z" transform="translate(-807.5 -751.7)" fill="#ecc696"/>
                </g>
                <path id="_Path_40" data-name="&lt;Path&gt;" d="M742.916,628.4l41.628,69.937L764.47,711.2,721.4,646.956Z" transform="translate(-721.4 -628.4)" fill="#523332"/>
              </g>
            </g>
          </g>
          <g id="_Group_31" data-name="&lt;Group&gt;" transform="translate(46.382)">
            <path id="_Path_41" data-name="&lt;Path&gt;" d="M632.1,223.985c-12.295,10.777-23.641,5.5-23.641,5.5s-4.554-4.857-2.125-10.284-.683-8.728.228-15.482c1.252-9.069,10.853-7.817,10.853-7.817Z" transform="translate(-605.621 -194.037)" fill="#dc761c"/>
            <path id="_Path_42" data-name="&lt;Path&gt;" d="M652.5,252.7l10.056,19.391L651.7,274.975,646.5,261.5Z" transform="translate(-630.987 -229.317)" fill="#ecc696"/>
            <path id="_Path_43" data-name="&lt;Path&gt;" d="M648.2,271.961l4.06-5.161-2.239,9.9Z" transform="translate(-632.042 -238.066)"/>
            <path id="_Path_44" data-name="&lt;Path&gt;" d="M623.684,200.417c12.94-2.315,21.668,13.054,13.319,23.262l-3.6,3.681c-2.58,2.163-5.464,3.833-8.234,4.1-5.654.607-8.5-3.6-8.8-9.639a87.371,87.371,0,0,1-.076-11.65c0-8.2,6.451-9.563,6.451-9.563q.455-.076.949-.19Z" transform="translate(-612.156 -196.728)" fill="#ecc696"/>
            <path id="_Path_45" data-name="&lt;Path&gt;" d="M614.954,250.2l-2.96-.379c-.569-.038-.683-.683-.417-1.1l2.277-4.022Z" transform="translate(-609.232 -224.352)" fill="#ecc696"/>
            <path id="_Path_46" data-name="&lt;Path&gt;" d="M641.971,209.04c.228-1.859,1.48-14.761-8.159-13.092a1.389,1.389,0,0,1-.987-2.542c3.453-2.163,8.955-3.643,16.848-.569,3.226,1.214,7.665,5.464,7.665,9.639,0,8.956-2.96,13.471-8.234,18.1a.53.53,0,0,1-.835-.19l-3.377-6.527a.109.109,0,0,1-.038-.076,22.7,22.7,0,0,0-2.77-4.364A.411.411,0,0,1,641.971,209.04Z" transform="translate(-622.094 -191.083)" fill="#dc761c"/>
            <path id="_Path_47" data-name="&lt;Path&gt;" d="M644.655,204.566l-5.009,9.866s-17.8-13.357-5.616-18.936C636.041,194.548,644.655,204.566,644.655,204.566Z" transform="translate(-620.604 -193.781)" fill="#dc761c"/>
            <g id="_Group_32" data-name="&lt;Group&gt;" transform="translate(3.989 11.38)">
              <path id="_Path_48" data-name="&lt;Path&gt;" d="M622.736,221.535a8.72,8.72,0,0,1,3.415,3.188L619.7,222.56S619.7,220.055,622.736,221.535Z" transform="translate(-618.346 -221.067)"/>
              <g id="_Group_33" data-name="&lt;Group&gt;" transform="translate(1.767 5.325)">
                <g id="_Clip_Group_" data-name="&lt;Clip Group&gt;" transform="translate(0.024 0.543)" clip-path="url(#clip-path)">
                  <path id="_Path_49" data-name="&lt;Path&gt;" d="M621.608,235.1s1.708,3.112-.455,5.161h0l-1.214-.114-.038-3.415Z" transform="translate(-620.261 -235.643)"/>
                  <path id="_Path_50" data-name="&lt;Path&gt;" d="M621.794,236.5a2.913,2.913,0,0,1,2.239,2.618c.076,2.163-2.277,2.011-2.277,2.011S619.745,238.549,621.794,236.5Z" transform="translate(-620.865 -236.511)" fill="#fff"/>
                </g>
                <g id="_Group_34" data-name="&lt;Group&gt;">
                  <path id="_Path_51" data-name="&lt;Path&gt;" d="M621.21,235.1a3.123,3.123,0,0,1,1.063.266,2.739,2.739,0,0,1,.911.531,2.474,2.474,0,0,1,.607.8,3.18,3.18,0,0,1,.342.949c0,.076-.038.152-.114.152-.038.038-.114,0-.114-.076a3.919,3.919,0,0,0-.417-.8,2.417,2.417,0,0,0-.645-.607,2.53,2.53,0,0,0-.8-.342,2.976,2.976,0,0,0-.8-.076h-.038a.383.383,0,0,1-.417-.342.421.421,0,0,1,.38-.455Z" transform="translate(-620.787 -235.1)"/>
                </g>
              </g>
              <path id="_Path_52" data-name="&lt;Path&gt;" d="M619.838,262.668s-1.328,2.391-2.732,2.087c-1.4-.342-.493-1.29-.493-1.29a.657.657,0,0,1,.152-1.29C617.751,262.023,618.131,263.047,619.838,262.668Z" transform="translate(-616.132 -246.566)" fill="#c7181b"/>
            </g>
            <path id="_Path_53" data-name="&lt;Path&gt;" d="M656.9,191.087c17.911-.379,16.545,12.9,17.911,16.735s5.844,5.54,5.844,5.54c-6.982,17.456-22.313,12.523-22.313,12.523a53.63,53.63,0,0,0-.114-11.384C657.355,208.429,656.9,191.087,656.9,191.087Z" transform="translate(-637.441 -191.079)" fill="#dc761c"/>
            <g id="_Group_35" data-name="&lt;Group&gt;" transform="translate(18.436 16.903)">
              <path id="_Path_54" data-name="&lt;Path&gt;" d="M662.437,239.258a4.13,4.13,0,1,1-4.63-3.6A4.133,4.133,0,0,1,662.437,239.258Z" transform="translate(-654.204 -235.624)" fill="#ecc696"/>
              <path id="_Path_55" data-name="&lt;Path&gt;" d="M660.4,245.888s.152-3.15,2.732-3.188" transform="translate(-658.049 -240.015)" fill="none" stroke="#000" stroke-linecap="round" stroke-linejoin="round" stroke-width="1"/>
            </g>
          </g>
          <g id="_Group_36" data-name="&lt;Group&gt;" transform="translate(0 40.958)">
            <g id="_Group_37" data-name="&lt;Group&gt;" transform="translate(69.69 2.195)">
              <g id="_Group_38" data-name="&lt;Group&gt;">
                <path id="_Path_56" data-name="&lt;Path&gt;" d="M709.6,331.1l25.387,20.567a8.335,8.335,0,0,1-10.739,12.75L696.7,342.56Z" transform="translate(-685.446 -321.119)" fill="#ecc696"/>
                <path id="_Path_57" data-name="&lt;Path&gt;" d="M706.416,322.33s-1.063,8.2-15.331,17.608l-19.429-14.42a11.5,11.5,0,0,1,12.978-18.974Z" transform="translate(-667.043 -304.798)" fill="#aa8301"/>
              </g>
              <g id="_Group_39" data-name="&lt;Group&gt;" transform="translate(36.483 29.389)">
                <g id="_Group_40" data-name="&lt;Group&gt;">
                  <path id="_Path_58" data-name="&lt;Path&gt;" d="M765.506,384.808a8.306,8.306,0,0,1,12.674.8L797,421.579l-6.185,7.21-25.2-32.369a8.281,8.281,0,0,1-.114-11.612Z" transform="translate(-763.186 -382.244)" fill="#ecc696"/>
                </g>
                <g id="_Group_41" data-name="&lt;Group&gt;" transform="translate(25.747 37.285)">
                  <path id="_Path_59" data-name="&lt;Path&gt;" d="M833.565,483.915l3-3.415,14.61,13.661a1.107,1.107,0,0,1,.3,1.1,1.134,1.134,0,0,1-1.822.645l-3.6-2.163,5.73,5.5a1.144,1.144,0,0,1,.152,1.366l-.038.114a1.166,1.166,0,0,1-1.784.3l-5.882-4.857,6.034,7.741a1.159,1.159,0,0,1-.114,1.518l-.228.266a1.189,1.189,0,0,1-1.746-.152l-7.286-8.348,5.237,8.007a1.156,1.156,0,0,1-.228,1.442l-.379.3a1.153,1.153,0,0,1-1.708-.228l-8.2-11.612.38,4.1a1.892,1.892,0,0,1-1.025,1.9,1.484,1.484,0,0,1-2.087-.873l-1.176-3.719a13.934,13.934,0,0,1-.493-6.489l.266-1.632a8.893,8.893,0,0,1,2.087-4.478Z" transform="translate(-831.037 -480.5)" fill="#ecc696"/>
                </g>
              </g>
            </g>
            <path id="_Path_60" data-name="&lt;Path&gt;" d="M692.246,362.94c-12.447,9.183-29.371,11.27-29.371,11.27-4.44-28.384-10.132-36.885-9.98-54.985.114-18.025,10.094-17.076,10.094-17.076C693.005,296.533,692.246,362.94,692.246,362.94Z" transform="translate(-588.572 -300.75)" fill="#dfab01"/>
            <g id="_Group_42" data-name="&lt;Group&gt;">
              <g id="_Group_43" data-name="&lt;Group&gt;" transform="translate(34.865 1.658)">
                <path id="_Path_61" data-name="&lt;Path&gt;" d="M612.812,343.068l-23.6,22.616a8.347,8.347,0,0,1-12.067-.949,8.254,8.254,0,0,1,.8-11.308L603.06,328.8Z" transform="translate(-575.272 -319.155)" fill="#ecc696"/>
                <g id="_Group_44" data-name="&lt;Group&gt;" transform="translate(14.393)">
                  <path id="_Path_62" data-name="&lt;Path&gt;" d="M629.9,341.64s-8.234-.3-16.7-17.076l16.621-17.57a11.466,11.466,0,0,1,17.266,15.065Z" transform="translate(-613.2 -303.383)" fill="#dfab01"/>
                  <path id="_Path_63" data-name="&lt;Path&gt;" d="M663.2,376.2l11.384-12.9" transform="translate(-644.226 -340.563)" fill="none" stroke="#000" stroke-linecap="round" stroke-linejoin="round" stroke-width="1"/>
                </g>
              </g>
              <g id="_Group_45" data-name="&lt;Group&gt;">
                <g id="_Group_46" data-name="&lt;Group&gt;" transform="translate(10.286 10.696)">
                  <path id="_Path_64" data-name="&lt;Path&gt;" d="M549.472,363.971a8.118,8.118,0,0,1-12.371.038l-26.6-29.864,4.44-6.944L548.6,352.663A8.148,8.148,0,0,1,549.472,363.971Z" transform="translate(-510.5 -327.2)" fill="#ecc696"/>
                </g>
                <g id="_Group_47" data-name="&lt;Group&gt;">
                  <path id="_Path_65" data-name="&lt;Path&gt;" d="M503.705,325.439c-1.252,4.25-5.389,4.06-13.471,1.822-4.288-1.214-5.844-4.25-4.554-8.5a8,8,0,0,1,10.018-5.426C499.949,314.586,505,321.151,503.705,325.439Z" transform="translate(-484.54 -307.685)" fill="#ecc696"/>
                  <path id="_Path_66" data-name="&lt;Path&gt;" d="M491.859,308.192l-8.007-6.755a1.3,1.3,0,0,1-.19-1.784,1.51,1.51,0,0,1,2.087-.379l10.284,6Z" transform="translate(-483.394 -299.014)" fill="#ecc696"/>
                </g>
              </g>
            </g>
          </g>
        </g>
      </g>
    </g>
  </g>
</svg>
