<svg xmlns="http://www.w3.org/2000/svg" width="30.233" height="32.723" viewBox="0 0 30.233 32.723">
  <g id="sms" transform="translate(-4.455 -2.022)">
    <g id="Group_287" data-name="Group 287" transform="translate(4.455 4.512)">
      <g id="Group_286" data-name="Group 286" transform="translate(0 0)">
        <path id="Path_886" data-name="Path 886" d="M34.688,19.643l-15.117,8.78L4.455,19.643,19.572,6.889Z" transform="translate(-4.455 -6.889)" fill="#ffab02"/>
      </g>
    </g>
    <g id="Group_293" data-name="Group 293" transform="translate(7.085 2.022)">
      <g id="Group_292" data-name="Group 292">
        <g id="Group_289" data-name="Group 289">
          <g id="Group_288" data-name="Group 288">
            <path id="Path_887" data-name="Path 887" d="M34.569,3.431V28.239H9.6V8.276h4.838a1.409,1.409,0,0,0,1.409-1.409V2.022H33.16a1.409,1.409,0,0,1,1.409,1.409Z" transform="translate(-9.595 -2.022)" fill="#e9edf4"/>
          </g>
        </g>
        <g id="Group_291" data-name="Group 291" transform="translate(0 0)">
          <g id="Group_290" data-name="Group 290">
            <path id="Path_888" data-name="Path 888" d="M15.842,2.022V6.868a1.409,1.409,0,0,1-1.409,1.409H9.6Z" transform="translate(-9.595 -2.022)" fill="#d2dbea"/>
          </g>
        </g>
      </g>
    </g>
    <g id="Group_295" data-name="Group 295" transform="translate(4.455 17.267)">
      <g id="Group_294" data-name="Group 294" transform="translate(0)">
        <path id="Path_889" data-name="Path 889" d="M34.689,31.817V46.776A2.523,2.523,0,0,1,32.169,49.3H6.975a2.523,2.523,0,0,1-2.519-2.519V31.817L19.572,40.6Z" transform="translate(-4.456 -31.817)" fill="#ffc90d"/>
      </g>
    </g>
    <g id="Group_297" data-name="Group 297" transform="translate(5.129 21.732)">
      <g id="Group_296" data-name="Group 296" transform="translate(0)">
        <path id="Path_890" data-name="Path 890" d="M34.658,52.751a2.5,2.5,0,0,1-1.846.806H7.618a2.5,2.5,0,0,1-1.845-.806L18.523,41.2a2.519,2.519,0,0,1,3.383,0Z" transform="translate(-5.773 -40.544)" fill="#ffab02"/>
      </g>
    </g>
    <g id="Group_301" data-name="Group 301" transform="translate(10.905 10.168)">
      <g id="Group_298" data-name="Group 298" transform="translate(0)">
        <path id="Path_891" data-name="Path 891" d="M17.589,23.685a.369.369,0,0,1-.162-.134.347.347,0,0,1,.028-.439.312.312,0,0,1,.24-.1.38.38,0,0,1,.154.032,3.883,3.883,0,0,0,1.6.333q1.422,0,1.422-.934a.521.521,0,0,0-.183-.406,1.326,1.326,0,0,0-.451-.256q-.268-.093-.763-.223a9.75,9.75,0,0,1-1.064-.329,1.856,1.856,0,0,1-.7-.475,1.2,1.2,0,0,1-.292-.845,1.515,1.515,0,0,1,.244-.841,1.676,1.676,0,0,1,.719-.6,2.666,2.666,0,0,1,1.141-.223,4.625,4.625,0,0,1,1.617.268.317.317,0,0,1,.227.325.356.356,0,0,1-.089.236.293.293,0,0,1-.236.105.374.374,0,0,1-.13-.032,3.971,3.971,0,0,0-1.308-.219,1.99,1.99,0,0,0-1.044.244.76.76,0,0,0-.4.682.63.63,0,0,0,.191.475,1.315,1.315,0,0,0,.479.284,7.6,7.6,0,0,0,.784.215,8.223,8.223,0,0,1,1.036.309,1.7,1.7,0,0,1,.674.479,1.3,1.3,0,0,1,.28.877,1.364,1.364,0,0,1-.26.816,1.707,1.707,0,0,1-.731.564,2.73,2.73,0,0,1-1.089.2,4.816,4.816,0,0,1-1.933-.39Z" transform="translate(-17.208 -18.089)" fill="#f14f4a"/>
        <path id="Path_892" data-name="Path 892" d="M19.376,24.082a4.99,4.99,0,0,1-1.994-.4.526.526,0,0,1-.228-.187.5.5,0,0,1,.041-.631.5.5,0,0,1,.569-.106,3.751,3.751,0,0,0,1.538.32c1.268,0,1.268-.588,1.268-.781A.367.367,0,0,0,20.439,22a1.179,1.179,0,0,0-.4-.226c-.175-.061-.428-.135-.752-.22a9.907,9.907,0,0,1-1.081-.335,2.017,2.017,0,0,1-.755-.514,1.35,1.35,0,0,1-.333-.949,1.676,1.676,0,0,1,.268-.924,1.836,1.836,0,0,1,.782-.657,2.83,2.83,0,0,1,1.207-.238,4.8,4.8,0,0,1,1.67.278.469.469,0,0,1,.327.469.507.507,0,0,1-.125.335.447.447,0,0,1-.353.16.51.51,0,0,1-.187-.043,3.824,3.824,0,0,0-1.251-.209,1.853,1.853,0,0,0-.964.222.611.611,0,0,0-.328.551.477.477,0,0,0,.144.365,1.17,1.17,0,0,0,.424.25,7.509,7.509,0,0,0,.767.21,8.461,8.461,0,0,1,1.057.315,1.857,1.857,0,0,1,.734.522,1.452,1.452,0,0,1,.318.978,1.519,1.519,0,0,1-.289.906,1.864,1.864,0,0,1-.794.616,2.9,2.9,0,0,1-1.15.216Zm-1.827-1.064a.159.159,0,0,0-.127.052.192.192,0,0,0-.015.247.216.216,0,0,0,.1.08h0a4.686,4.686,0,0,0,1.872.377,2.591,2.591,0,0,0,1.028-.191,1.563,1.563,0,0,0,.668-.513,1.2,1.2,0,0,0,.231-.727,1.157,1.157,0,0,0-.243-.777,1.552,1.552,0,0,0-.614-.436,8.1,8.1,0,0,0-1.016-.3,7.831,7.831,0,0,1-.8-.22,1.473,1.473,0,0,1-.534-.318.779.779,0,0,1-.238-.586.907.907,0,0,1,.476-.813,2.146,2.146,0,0,1,1.123-.266,4.138,4.138,0,0,1,1.358.228.278.278,0,0,0,.08.024.14.14,0,0,0,.118-.051.2.2,0,0,0,.053-.137.166.166,0,0,0-.126-.181,4.5,4.5,0,0,0-1.565-.259,2.528,2.528,0,0,0-1.076.209,1.535,1.535,0,0,0-.655.545,1.355,1.355,0,0,0-.219.758,1.04,1.04,0,0,0,.252.74,1.711,1.711,0,0,0,.642.436,9.672,9.672,0,0,0,1.047.323c.332.087.593.164.775.227a1.483,1.483,0,0,1,.5.286.672.672,0,0,1,.234.521c0,.5-.273,1.088-1.575,1.088a4.053,4.053,0,0,1-1.662-.346.225.225,0,0,0-.092-.019Z" transform="translate(-17.062 -17.943)" fill="#f14f4a"/>
      </g>
      <g id="Group_299" data-name="Group 299" transform="translate(5.377 0.041)">
        <path id="Path_893" data-name="Path 893" d="M27.977,23.967a.353.353,0,0,1-.105-.26V18.858a.522.522,0,0,1,.154-.378.5.5,0,0,1,.374-.158h.268a.491.491,0,0,1,.3.1.6.6,0,0,1,.2.244l1.844,4.6,1.844-4.6a.6.6,0,0,1,.2-.244.492.492,0,0,1,.3-.1h.268a.5.5,0,0,1,.373.158.522.522,0,0,1,.154.378v4.849a.361.361,0,0,1-.365.366.369.369,0,0,1-.264-.106.347.347,0,0,1-.109-.26V19.094l-1.876,4.638a.546.546,0,0,1-.207.248.57.57,0,0,1-.626,0,.539.539,0,0,1-.207-.248L28.61,19.094v4.614a.347.347,0,0,1-.109.26.368.368,0,0,1-.264.106A.354.354,0,0,1,27.977,23.967Z" transform="translate(-27.718 -18.169)" fill="#f14f4a"/>
        <path id="Path_894" data-name="Path 894" d="M33.63,24.08a.519.519,0,0,1-.37-.148.5.5,0,0,1-.157-.371V19.736l-1.58,3.907a.7.7,0,0,1-.265.319.726.726,0,0,1-.794,0,.687.687,0,0,1-.264-.317l-1.582-3.909v3.825a.5.5,0,0,1-.156.37.535.535,0,0,1-.739,0h0a.5.5,0,0,1-.15-.368V18.712a.673.673,0,0,1,.2-.485.653.653,0,0,1,.484-.2h.268a.643.643,0,0,1,.387.127.753.753,0,0,1,.249.305l1.7,4.248,1.7-4.242a.757.757,0,0,1,.251-.311.645.645,0,0,1,.387-.127h.268a.652.652,0,0,1,.483.2.673.673,0,0,1,.2.485v4.849a.5.5,0,0,1-.15.368.511.511,0,0,1-.368.151Zm-.374-5.286a.151.151,0,0,1,.029,0,.153.153,0,0,1,.124.151v4.614a.194.194,0,0,0,.062.15.222.222,0,0,0,.309,0,.2.2,0,0,0,.06-.151V18.712a.371.371,0,0,0-.111-.271.347.347,0,0,0-.263-.112H33.2a.34.34,0,0,0-.206.068.444.444,0,0,0-.149.182L31,23.171a.16.16,0,0,1-.285,0l-1.844-4.6a.443.443,0,0,0-.147-.177.336.336,0,0,0-.206-.068h-.268a.348.348,0,0,0-.264.112.371.371,0,0,0-.111.271v4.849a.2.2,0,0,0,.06.152.221.221,0,0,0,.309,0,.193.193,0,0,0,.062-.149V18.947a.153.153,0,0,1,.124-.151.151.151,0,0,1,.172.093l1.877,4.638a.385.385,0,0,0,.148.177.414.414,0,0,0,.458,0,.392.392,0,0,0,.15-.179l1.875-4.636A.154.154,0,0,1,33.257,18.794Z" transform="translate(-27.571 -18.022)" fill="#f14f4a"/>
      </g>
      <g id="Group_300" data-name="Group 300" transform="translate(12.85)">
        <path id="Path_895" data-name="Path 895" d="M42.7,23.685a.369.369,0,0,1-.162-.134.347.347,0,0,1,.028-.439.312.312,0,0,1,.24-.1.38.38,0,0,1,.154.032,3.883,3.883,0,0,0,1.6.333q1.422,0,1.422-.934a.521.521,0,0,0-.183-.406,1.326,1.326,0,0,0-.451-.256q-.268-.093-.763-.223a9.75,9.75,0,0,1-1.064-.329,1.856,1.856,0,0,1-.7-.475,1.2,1.2,0,0,1-.292-.845,1.515,1.515,0,0,1,.244-.841,1.676,1.676,0,0,1,.719-.6,2.666,2.666,0,0,1,1.141-.223,4.625,4.625,0,0,1,1.617.268.317.317,0,0,1,.227.325.356.356,0,0,1-.089.236.293.293,0,0,1-.236.105.374.374,0,0,1-.13-.032,3.971,3.971,0,0,0-1.308-.219,1.99,1.99,0,0,0-1.044.244.76.76,0,0,0-.4.682.63.63,0,0,0,.191.475,1.315,1.315,0,0,0,.479.284,7.6,7.6,0,0,0,.784.215,8.223,8.223,0,0,1,1.036.309,1.7,1.7,0,0,1,.674.479,1.3,1.3,0,0,1,.28.877,1.364,1.364,0,0,1-.26.816,1.707,1.707,0,0,1-.731.564,2.73,2.73,0,0,1-1.089.2,4.816,4.816,0,0,1-1.933-.39Z" transform="translate(-42.323 -18.089)" fill="#f14f4a"/>
        <path id="Path_896" data-name="Path 896" d="M44.491,24.082a4.99,4.99,0,0,1-1.994-.4.526.526,0,0,1-.228-.187.5.5,0,0,1,.041-.631.5.5,0,0,1,.569-.106,3.751,3.751,0,0,0,1.538.32c1.268,0,1.268-.588,1.268-.781A.367.367,0,0,0,45.555,22a1.179,1.179,0,0,0-.4-.226c-.175-.061-.428-.135-.752-.22a9.907,9.907,0,0,1-1.081-.335,2.017,2.017,0,0,1-.755-.514,1.35,1.35,0,0,1-.333-.949,1.676,1.676,0,0,1,.268-.924,1.836,1.836,0,0,1,.782-.657,2.83,2.83,0,0,1,1.207-.238,4.8,4.8,0,0,1,1.67.278.469.469,0,0,1,.327.469.507.507,0,0,1-.125.335.447.447,0,0,1-.353.16.51.51,0,0,1-.187-.043,3.824,3.824,0,0,0-1.251-.209,1.853,1.853,0,0,0-.964.222.611.611,0,0,0-.328.551.477.477,0,0,0,.144.365,1.17,1.17,0,0,0,.424.25,7.509,7.509,0,0,0,.767.21,8.461,8.461,0,0,1,1.057.315,1.857,1.857,0,0,1,.734.522,1.452,1.452,0,0,1,.318.978,1.519,1.519,0,0,1-.289.906,1.864,1.864,0,0,1-.794.616,2.9,2.9,0,0,1-1.15.216Zm-1.827-1.064a.159.159,0,0,0-.127.052.192.192,0,0,0-.015.247.216.216,0,0,0,.1.08h0a4.686,4.686,0,0,0,1.872.377,2.591,2.591,0,0,0,1.028-.191,1.563,1.563,0,0,0,.668-.513,1.2,1.2,0,0,0,.231-.727,1.157,1.157,0,0,0-.243-.777,1.552,1.552,0,0,0-.614-.436,8.094,8.094,0,0,0-1.016-.3,7.831,7.831,0,0,1-.8-.22,1.473,1.473,0,0,1-.534-.318.779.779,0,0,1-.238-.586.907.907,0,0,1,.476-.813,2.146,2.146,0,0,1,1.123-.266,4.138,4.138,0,0,1,1.358.228.278.278,0,0,0,.08.024.14.14,0,0,0,.118-.051.2.2,0,0,0,.053-.137.166.166,0,0,0-.126-.181,4.5,4.5,0,0,0-1.565-.259,2.528,2.528,0,0,0-1.076.209A1.535,1.535,0,0,0,42.76,19a1.355,1.355,0,0,0-.219.758,1.04,1.04,0,0,0,.252.74,1.711,1.711,0,0,0,.642.436,9.672,9.672,0,0,0,1.047.323c.332.087.593.164.775.227a1.483,1.483,0,0,1,.5.286.672.672,0,0,1,.234.521c0,.5-.273,1.088-1.575,1.088a4.053,4.053,0,0,1-1.662-.346.225.225,0,0,0-.092-.019Z" transform="translate(-42.177 -17.943)" fill="#f14f4a"/>
      </g>
    </g>
  </g>
</svg>
