<svg xmlns="http://www.w3.org/2000/svg" width="16.909" height="16.909" viewBox="0 0 16.909 16.909">
  <g id="_x31_50" transform="translate(-1 -1)">
    <path id="Path_851" data-name="Path 851" d="M11.375,7.428A3.875,3.875,0,1,0,15.25,11.3a3.882,3.882,0,0,0-3.875-3.875Zm0,5.157A1.282,1.282,0,1,1,12.657,11.3,1.3,1.3,0,0,1,11.375,12.585Z" transform="translate(-1.92 -1.899)"/>
    <path id="Path_852" data-name="Path 852" d="M17.2,8.75h-.543a7.244,7.244,0,0,0-6.5-6.545V1.7a.7.7,0,1,0-1.409,0v.5a7.237,7.237,0,0,0-6.5,6.545H1.7a.7.7,0,1,0,0,1.409h.55A7.254,7.254,0,0,0,8.75,16.6v.6a.7.7,0,1,0,1.409,0v-.6a7.261,7.261,0,0,0,6.5-6.445h.55a.7.7,0,1,0,0-1.409Zm-2.536,1.409h.563a5.832,5.832,0,0,1-5.072,5.029v-.519a.7.7,0,1,0-1.409,0v.519a5.832,5.832,0,0,1-5.072-5.029H4.24a.7.7,0,1,0,0-1.409H3.663a.007.007,0,0,0,0,0A5.837,5.837,0,0,1,8.75,3.62v.621a.7.7,0,1,0,1.409,0V3.62a5.837,5.837,0,0,1,5.087,5.129.006.006,0,0,0,0,0h-.578a.7.7,0,1,0,0,1.409Z" transform="translate(0)"/>
  </g>
</svg>
