<svg xmlns="http://www.w3.org/2000/svg" width="16.088" height="11.798" viewBox="0 0 16.088 11.798">
  <g id="team" transform="translate(-1 -5)">
    <path id="Path_819" data-name="Path 819" d="M3.681,11.435A2.145,2.145,0,1,1,5.826,9.29,2.147,2.147,0,0,1,3.681,11.435Zm.949.359a2.632,2.632,0,0,1-1.9,0,.541.541,0,0,0-.472.048A2.678,2.678,0,0,0,1,14.116v2.145a.538.538,0,0,0,.536.536H4.218V14.116a4.815,4.815,0,0,1,.617-2.349.377.377,0,0,0-.2.027Zm9.776-.359A2.145,2.145,0,1,0,12.262,9.29,2.147,2.147,0,0,0,14.407,11.435Zm1.421.407a.541.541,0,0,0-.472-.048,2.632,2.632,0,0,1-1.9,0,.377.377,0,0,0-.2-.027,4.815,4.815,0,0,1,.617,2.349V16.8h2.681a.538.538,0,0,0,.536-.536V14.116a2.678,2.678,0,0,0-1.26-2.274Zm-6.784-1.48a2.681,2.681,0,1,1,2.681-2.681A2.684,2.684,0,0,1,9.044,10.363ZM12.8,14.116a3.743,3.743,0,0,0-1.539-3.024.54.54,0,0,0-.552-.049,3.547,3.547,0,0,1-1.126.349v2.724a.536.536,0,0,1-1.073,0V11.392a3.547,3.547,0,0,1-1.126-.349.54.54,0,0,0-.552.049A3.743,3.743,0,0,0,5.29,14.116V16.8H12.8Z" transform="translate(0 0)" fill="#1c1c1c"/>
  </g>
</svg>
