<svg id="upload" xmlns="http://www.w3.org/2000/svg" width="25.68" height="21.464" viewBox="0 0 25.68 21.464">
  <path id="Path_866" data-name="Path 866" d="M20.526,10.217a6.848,6.848,0,0,0-13.3-.008,6.909,6.909,0,0,0,.644,13.783h2.575a.863.863,0,0,0,0-1.727H7.866a5.18,5.18,0,0,1-.03-10.36.892.892,0,0,0,.944-.737,5.138,5.138,0,0,1,10.181,0,.928.928,0,0,0,.921.737,5.18,5.18,0,0,1,0,10.36H17.308a.863.863,0,0,0,0,1.727h2.575a6.909,6.909,0,0,0,.644-13.775Z" transform="translate(-0.997 -4.993)" fill="#ffc915"/>
  <path id="Path_867" data-name="Path 867" d="M18.456,18.51a.821.821,0,1,0,1.162-1.162L15.51,13.241a.822.822,0,0,0-1.162,0l-4.108,4.108A.821.821,0,1,0,11.4,18.51L14.108,15.8v10.34a.822.822,0,1,0,1.643,0V15.8Z" transform="translate(-2.051 -5.502)" fill="#ffc915"/>
</svg>
