<svg id="user" xmlns="http://www.w3.org/2000/svg" width="18.559" height="22.245" viewBox="0 0 18.559 22.245">
  <path id="Path_45" data-name="Path 45" d="M92.39,10.716a5.184,5.184,0,0,0,3.788-1.57,5.184,5.184,0,0,0,1.57-3.788,5.185,5.185,0,0,0-1.57-3.788,5.357,5.357,0,0,0-7.576,0,5.184,5.184,0,0,0-1.57,3.788A5.184,5.184,0,0,0,88.6,9.146,5.185,5.185,0,0,0,92.39,10.716Zm0,0" transform="translate(-83.25 0)" fill="#ffc915"/>
  <path id="Path_46" data-name="Path 46" d="M18.514,253.676a13.233,13.233,0,0,0-.18-1.406,11.074,11.074,0,0,0-.346-1.413,6.982,6.982,0,0,0-.581-1.318,4.974,4.974,0,0,0-.876-1.142,3.862,3.862,0,0,0-1.258-.791,4.349,4.349,0,0,0-1.607-.291,1.631,1.631,0,0,0-.871.369c-.261.17-.566.367-.907.585a5.2,5.2,0,0,1-1.174.517,4.558,4.558,0,0,1-2.871,0,5.185,5.185,0,0,1-1.173-.517c-.338-.216-.643-.413-.908-.585a1.628,1.628,0,0,0-.87-.369,4.343,4.343,0,0,0-1.606.291,3.859,3.859,0,0,0-1.259.791,4.974,4.974,0,0,0-.876,1.141,7,7,0,0,0-.581,1.318,11.1,11.1,0,0,0-.346,1.413,13.185,13.185,0,0,0-.18,1.406c-.03.426-.044.867-.044,1.314a3.694,3.694,0,0,0,1.1,2.795,3.949,3.949,0,0,0,2.827,1.031H14.635a3.948,3.948,0,0,0,2.827-1.031,3.692,3.692,0,0,0,1.1-2.795c0-.448-.015-.89-.045-1.314Zm0,0" transform="translate(0 -236.571)" fill="#ffc915"/>
</svg>
