<svg xmlns="http://www.w3.org/2000/svg" width="14.712" height="14.712" viewBox="0 0 14.712 14.712">
  <g id="asset-management" transform="translate(0.25 0.25)">
    <path id="Path_841" data-name="Path 841" d="M212.164,167.613a3.058,3.058,0,0,1-.767-.354.187.187,0,0,1-.027-.162.271.271,0,0,1,.174-.214.548.548,0,0,1,.5.07.416.416,0,1,0,.5-.667,1.374,1.374,0,0,0-.441-.213v-.057a.416.416,0,1,0-.833,0v.083a1.1,1.1,0,0,0-.714.844.987.987,0,0,0,.331.971,3.639,3.639,0,0,0,1,.484.319.319,0,0,1,.238.381.449.449,0,0,1-.445.378.812.812,0,0,1-.594-.154.416.416,0,0,0-.456.7,1.55,1.55,0,0,0,.637.266v.064a.416.416,0,0,0,.833,0v-.109a1.3,1.3,0,0,0,.847-1A1.152,1.152,0,0,0,212.164,167.613Z" transform="translate(-204.599 -161.003)" fill="#1c1c1c" stroke="#1c1c1c" stroke-width="0.5"/>
    <g id="Group_90" data-name="Group 90" transform="translate(0 0)">
      <path id="Path_842" data-name="Path 842" d="M13.8,5.355h-.924a5.834,5.834,0,0,0-.463-1.079l.882-.876a.416.416,0,0,0,0-.589L11.409.922a.416.416,0,0,0-.588,0l-.929.923a6.053,6.053,0,0,0-1.037-.416V.416A.416.416,0,0,0,8.438,0H5.774a.416.416,0,0,0-.416.416V1.428a6.052,6.052,0,0,0-1.037.416L3.392.921a.416.416,0,0,0-.588,0L.92,2.81a.416.416,0,0,0,0,.589l.882.876A5.834,5.834,0,0,0,1.34,5.355H.416A.416.416,0,0,0,0,5.771V8.441a.416.416,0,0,0,.416.416H1.34A5.833,5.833,0,0,0,1.8,9.936l-.882.876a.416.416,0,0,0,0,.589L2.8,13.29a.416.416,0,0,0,.588,0l.929-.923a6.053,6.053,0,0,0,1.037.416V13.8a.416.416,0,0,0,.416.416H8.438a.416.416,0,0,0,.416-.416V12.784a6.053,6.053,0,0,0,1.037-.416l.929.923a.416.416,0,0,0,.588,0L13.293,11.4a.416.416,0,0,0,0-.589l-.882-.876a5.833,5.833,0,0,0,.463-1.079H13.8a.416.416,0,0,0,.416-.416V5.771A.416.416,0,0,0,13.8,5.355ZM13.38,8.025h-.822a.416.416,0,0,0-.4.314,5.008,5.008,0,0,1-.62,1.442.416.416,0,0,0,.059.517l.815.81-1.3,1.3-.854-.849a.416.416,0,0,0-.5-.065,5.225,5.225,0,0,1-1.414.565.416.416,0,0,0-.32.4v.915H6.19v-.915a.416.416,0,0,0-.32-.4,5.225,5.225,0,0,1-1.414-.565.416.416,0,0,0-.5.065l-.854.849-1.3-1.3.815-.81a.416.416,0,0,0,.059-.517,5.009,5.009,0,0,1-.62-1.442.416.416,0,0,0-.4-.314H.833V6.187h.822a.416.416,0,0,0,.4-.314,5.007,5.007,0,0,1,.62-1.442.416.416,0,0,0-.059-.517L1.8,3.1,3.1,1.8l.854.849a.416.416,0,0,0,.5.065,5.225,5.225,0,0,1,1.414-.565.416.416,0,0,0,.32-.4V.833H8.022v.915a.416.416,0,0,0,.32.4,5.225,5.225,0,0,1,1.414.565.416.416,0,0,0,.5-.065l.854-.849,1.3,1.3-.815.81a.416.416,0,0,0-.059.517,5.008,5.008,0,0,1,.62,1.442.416.416,0,0,0,.4.314h.822Z" transform="translate(0 0)" fill="#1c1c1c" stroke="#1c1c1c" stroke-width="0.5"/>
      <path id="Path_843" data-name="Path 843" d="M114.667,110.191a4.093,4.093,0,1,0,4.06,4.092A4.081,4.081,0,0,0,114.667,110.191Zm0,7.352a3.26,3.26,0,1,1,3.227-3.26A3.247,3.247,0,0,1,114.667,117.543Z" transform="translate(-107.537 -107.132)" fill="#1c1c1c" stroke="#1c1c1c" stroke-width="0.5"/>
    </g>
  </g>
</svg>
