<svg xmlns="http://www.w3.org/2000/svg" width="14.212" height="16.826" viewBox="0 0 14.212 16.826">
  <g id="form_3_" data-name="form (3)" transform="translate(-3.33 -1)">
    <path id="Path_822" data-name="Path 822" d="M3.33,3.793V13.838a2.8,2.8,0,0,0,2.793,2.793H9.9a3.935,3.935,0,0,1,.331-1.122,4.281,4.281,0,0,1,2.288-2.2,2.746,2.746,0,0,1-1.183-2.266,2.779,2.779,0,0,1,2.776-2.776,2.646,2.646,0,0,1,.791.118,2.751,2.751,0,0,1,1.122.651V3.793A2.793,2.793,0,0,0,13.235,1H6.123A2.8,2.8,0,0,0,3.33,3.793Zm3.388-.011H12.64a.561.561,0,0,1,0,1.122H6.718a.561.561,0,1,1,0-1.122Zm0,2.984H12.64a.561.561,0,0,1,0,1.122H6.718a.561.561,0,1,1,0-1.122Zm0,2.978H9.41a.561.561,0,0,1,0,1.122H6.718a.561.561,0,1,1,0-1.122Z" fill="#ffffff"/>
    <circle id="Ellipse_24" data-name="Ellipse 24" cx="1.935" cy="1.935" r="1.935" transform="translate(12.181 9.11)" fill="#ffffff"/>
    <path id="Path_823" data-name="Path 823" d="M17.021,27.88h5.726a.563.563,0,0,0,.561-.561,3.424,3.424,0,1,0-6.848,0A.563.563,0,0,0,17.021,27.88Z" transform="translate(-5.766 -10.054)" fill="#ffffff"/>
  </g>
</svg>
