<svg xmlns="http://www.w3.org/2000/svg" width="14.996" height="17.063" viewBox="0 0 14.996 17.063">
  <g id="location" transform="translate(-31)">
    <g id="Group_335" data-name="Group 335" transform="translate(33)">
      <g id="Group_334" data-name="Group 334">
        <path id="Path_925" data-name="Path 925" d="M96.5,0a5.5,5.5,0,0,0-4.47,8.7l4.049,6.318a.5.5,0,0,0,.842,0l4.066-6.339A5.5,5.5,0,0,0,96.5,0Zm0,8A2.5,2.5,0,1,1,99,5.5,2.5,2.5,0,0,1,96.5,8Z" transform="translate(-91)" fill="#fff"/>
      </g>
    </g>
    <g id="Group_337" data-name="Group 337" transform="translate(31 11.487)">
      <g id="Group_336" data-name="Group 336">
        <path id="Path_926" data-name="Path 926" d="M42.406,344.7l-2.517,3.935a1.653,1.653,0,0,1-2.782,0L34.586,344.7c-2.218.513-3.586,1.452-3.586,2.575,0,1.948,3.863,3,7.5,3s7.5-1.051,7.5-3C46,346.148,44.627,345.208,42.406,344.7Z" transform="translate(-31 -344.695)" fill="#fff"/>
      </g>
    </g>
  </g>
</svg>
