<svg xmlns="http://www.w3.org/2000/svg" width="16.758" height="17.062" viewBox="0 0 16.758 17.062">
  <g id="map_1_" data-name="map (1)" transform="translate(-4.565)">
    <g id="Group_323" data-name="Group 323" transform="translate(6.44 12.444)">
      <g id="Group_322" data-name="Group 322" transform="translate(0)">
        <path id="Path_907" data-name="Path 907" d="M73.439,377.027l-6.711-3.553a.538.538,0,0,0-.553.032l-5.132,3.553a.533.533,0,0,0,.3.971H73.189a.533.533,0,0,0,.251-1Z" transform="translate(-60.814 -373.412)" fill="#fff"/>
      </g>
    </g>
    <g id="Group_325" data-name="Group 325" transform="translate(13.546 7.523)">
      <g id="Group_324" data-name="Group 324">
        <path id="Path_908" data-name="Path 908" d="M281.834,233.267l-1.578-7.105a.534.534,0,0,0-.824-.323l-5.133,3.553a.533.533,0,0,0,.054.909l6.71,3.553a.535.535,0,0,0,.25.063.526.526,0,0,0,.323-.11A.534.534,0,0,0,281.834,233.267Z" transform="translate(-274.069 -225.744)" fill="#fff"/>
      </g>
    </g>
    <g id="Group_327" data-name="Group 327" transform="translate(4.906 6.398)">
      <g id="Group_326" data-name="Group 326" transform="translate(0)">
        <path id="Path_909" data-name="Path 909" d="M27.476,192.374a.534.534,0,0,0-.51-.374H22.1a22.256,22.256,0,0,1-2.733,3.735,1.6,1.6,0,0,1-2.38,0c-.208-.231-.53-.6-.9-1.06l-1.29,5.808a.533.533,0,0,0,.52.648.528.528,0,0,0,.3-.095l11.648-8.065A.531.531,0,0,0,27.476,192.374Z" transform="translate(-14.784 -192)" fill="#fff"/>
      </g>
    </g>
    <g id="Group_329" data-name="Group 329" transform="translate(4.565)">
      <g id="Group_328" data-name="Group 328" transform="translate(0)">
        <path id="Path_910" data-name="Path 910" d="M8.3,0A3.737,3.737,0,0,0,4.565,3.732c0,1.915,2.994,5.307,3.336,5.688a.533.533,0,0,0,.793,0c.341-.381,3.336-3.773,3.336-5.688A3.737,3.737,0,0,0,8.3,0Zm0,5.332a1.6,1.6,0,1,1,1.6-1.6A1.6,1.6,0,0,1,8.3,5.332Z" transform="translate(-4.565)" fill="#fff"/>
      </g>
    </g>
  </g>
</svg>
