<svg xmlns="http://www.w3.org/2000/svg" width="16.938" height="14.16" viewBox="0 0 16.938 14.16">
  <g id="global" transform="translate(0 -42)">
    <path id="Path_898" data-name="Path 898" d="M382.9,122a2.172,2.172,0,0,0-2.172,2.171c0,1.777,2.172,3.751,2.172,3.751s2.171-1.974,2.171-3.751A2.171,2.171,0,0,0,382.9,122Zm.5,2.514h-.992v-.993h.992Z" transform="translate(-368.134 -77.353)" fill="#fff"/>
    <path id="Path_899" data-name="Path 899" d="M2.172,122A2.172,2.172,0,0,0,0,124.171c0,1.777,2.172,3.751,2.172,3.751s2.171-1.974,2.171-3.751A2.172,2.172,0,0,0,2.172,122Zm.5,2.514H1.675v-.993h.992Z" transform="translate(0 -77.353)" fill="#fff"/>
    <path id="Path_900" data-name="Path 900" d="M22.47,383.577h4.249a21.333,21.333,0,0,1,.261-2.957H23.263A7.684,7.684,0,0,0,22.47,383.577Z" transform="translate(-21.727 -327.417)" fill="#fff"/>
    <path id="Path_901" data-name="Path 901" d="M65.226,259.611a7.827,7.827,0,0,0-.866,1.028h3.316a9.5,9.5,0,0,1,1.192-3.079A7.692,7.692,0,0,0,65.226,259.611Z" transform="translate(-62.231 -208.429)" fill="#fff"/>
    <path id="Path_902" data-name="Path 902" d="M199.4,254.29c-.27-1.243-1.1-3.32-2.005-3.3-.905-.024-1.735,2.053-2.005,3.3Z" transform="translate(-188.926 -202.08)" fill="#fff"/>
    <path id="Path_903" data-name="Path 903" d="M181.194,380.62a20.093,20.093,0,0,0-.274,2.957h4.968a20.093,20.093,0,0,0-.274-2.957Z" transform="translate(-174.935 -327.417)" fill="#fff"/>
    <path id="Path_904" data-name="Path 904" d="M315.022,259.611a7.691,7.691,0,0,0-3.642-2.051,9.5,9.5,0,0,1,1.192,3.079h3.316A7.823,7.823,0,0,0,315.022,259.611Z" transform="translate(-301.079 -208.429)" fill="#fff"/>
    <path id="Path_905" data-name="Path 905" d="M356.908,380.62H353.19a21.332,21.332,0,0,1,.261,2.957H357.7A7.685,7.685,0,0,0,356.908,380.62Z" transform="translate(-341.505 -327.417)" fill="#fff"/>
    <path id="Path_906" data-name="Path 906" d="M192.541,42a2.171,2.171,0,0,0-2.171,2.171c0,1.777,2.171,3.751,2.171,3.751s2.171-1.974,2.171-3.751A2.171,2.171,0,0,0,192.541,42Zm.5,2.514h-.992v-.992h.992Z" transform="translate(-184.072)" fill="#fff"/>
  </g>
</svg>
