<svg xmlns="http://www.w3.org/2000/svg" width="17.063" height="17.063" viewBox="0 0 17.063 17.063">
  <path id="categories_1_" data-name="categories (1)" d="M14.507,8.365v4.778a1.365,1.365,0,0,1-1.365,1.365H8.365A1.365,1.365,0,0,1,7,13.142V8.365A1.365,1.365,0,0,1,8.365,7h4.777A1.365,1.365,0,0,1,14.507,8.365ZM22.7,7H17.92a1.365,1.365,0,0,0-1.365,1.365v4.777a1.365,1.365,0,0,0,1.365,1.365H22.7a1.365,1.365,0,0,0,1.365-1.365V8.365A1.365,1.365,0,0,0,22.7,7Zm-9.555,9.555H8.365A1.365,1.365,0,0,0,7,17.92V22.7a1.365,1.365,0,0,0,1.365,1.365h4.778A1.365,1.365,0,0,0,14.507,22.7V17.92A1.365,1.365,0,0,0,13.142,16.555Zm7.166,0a3.754,3.754,0,1,0,3.754,3.754,3.754,3.754,0,0,0-3.754-3.754Z" transform="translate(-7 -7)" fill="#fff"/>
</svg>
