<svg xmlns="http://www.w3.org/2000/svg" width="15.994" height="15.613" viewBox="0 0 15.994 15.613">
  <path id="seller" d="M18.613,10.235H14.805V7.951a1.905,1.905,0,0,0-1.9-1.9h-.385a1.905,1.905,0,1,0-3.039,0H9.091a1.9,1.9,0,0,0-1.9,1.9v2.286H3.381a.381.381,0,0,0,0,.762v7.235a.381.381,0,0,0,.381.381H18.232a.381.381,0,0,0,.381-.381V11a.381.381,0,0,0,0-.762ZM11,3.762A1.142,1.142,0,1,1,9.855,4.9,1.144,1.144,0,0,1,11,3.762ZM7.951,7.949A1.142,1.142,0,0,1,9.091,6.808H12.9a1.143,1.143,0,0,1,1.14,1.142v2.285h-.762v-1.9a.381.381,0,0,0-.762,0v1.9H9.474v-1.9a.381.381,0,0,0-.762,0v1.9H7.951Zm.381,9.9H5.285V16.328H8.331Zm3.808,0H10.616V17.09a.762.762,0,0,1,1.523,0Zm4.57,0H14.424V16.328h2.285Zm.762,0v-1.9a.381.381,0,0,0-.381-.381H14.044a.381.381,0,0,0-.381.381v1.9H12.9V17.09a1.523,1.523,0,0,0-3.046,0v.762H9.093v-1.9a.381.381,0,0,0-.381-.381H4.9a.381.381,0,0,0-.381.381v1.9H4.142V14.805H17.852v3.046Zm-9.9-3.808H5.285V12.52H7.57Zm5.331,0H9.855V12.52H12.9Zm3.808,0H15.186v-.762a.762.762,0,1,1,1.523,0Zm1.142,0h-.381v-.762a1.523,1.523,0,0,0-3.046,0v.762h-.762v-1.9a.381.381,0,0,0-.381-.381H9.474a.381.381,0,0,0-.381.381v1.9H8.331v-1.9a.381.381,0,0,0-.381-.381H4.9a.381.381,0,0,0-.381.381v1.9H4.142V11H17.852Z" transform="translate(-3 -3)" fill="#ffffff"/>
</svg>
