<svg xmlns="http://www.w3.org/2000/svg" width="18.985" height="18.563" viewBox="0 0 18.985 18.563">
  <g id="XMLID_387_" transform="translate(-14.25 -20.073)">
    <circle id="XMLID_187_" cx="1.378" cy="1.378" r="1.378" transform="translate(15 20.823)" fill="none" stroke="#fff" stroke-miterlimit="10" stroke-width="1.5"/>
    <circle id="XMLID_221_" cx="1.378" cy="1.378" r="1.378" transform="translate(15 25.592)" fill="none" stroke="#fff" stroke-miterlimit="10" stroke-width="1.5"/>
    <circle id="XMLID_222_" cx="1.378" cy="1.378" r="1.378" transform="translate(15 30.36)" fill="none" stroke="#fff" stroke-miterlimit="10" stroke-width="1.5"/>
    <circle id="XMLID_223_" cx="1.378" cy="1.378" r="1.378" transform="translate(15 35.129)" fill="none" stroke="#fff" stroke-miterlimit="10" stroke-width="1.5"/>
    <circle id="XMLID_226_" cx="1.378" cy="1.378" r="1.378" transform="translate(23.091 23.232)" fill="none" stroke="#fff" stroke-miterlimit="10" stroke-width="1.5"/>
    <circle id="XMLID_225_" cx="1.378" cy="1.378" r="1.378" transform="translate(23.091 28.001)" fill="none" stroke="#fff" stroke-miterlimit="10" stroke-width="1.5"/>
    <circle id="XMLID_227_" cx="1.378" cy="1.378" r="1.378" transform="translate(29.729 28.001)" fill="none" stroke="#fff" stroke-miterlimit="10" stroke-width="1.5"/>
    <circle id="XMLID_224_" cx="1.378" cy="1.378" r="1.378" transform="translate(23.091 32.769)" fill="none" stroke="#fff" stroke-miterlimit="10" stroke-width="1.5"/>
    <line id="XMLID_228_" x2="5.334" y2="7.178" transform="translate(17.757 22.201)" fill="none" stroke="#fff" stroke-miterlimit="10" stroke-width="1.5"/>
    <line id="XMLID_229_" x2="5.334" y2="7.178" transform="translate(17.757 26.97)" fill="none" stroke="#fff" stroke-miterlimit="10" stroke-width="1.5"/>
    <line id="XMLID_230_" y1="7.128" x2="5.334" transform="translate(17.757 29.379)" fill="none" stroke="#fff" stroke-miterlimit="10" stroke-width="1.5"/>
    <line id="XMLID_231_" y1="7.128" x2="5.334" transform="translate(17.757 24.61)" fill="none" stroke="#fff" stroke-miterlimit="10" stroke-width="1.5"/>
    <line id="XMLID_232_" x2="3.881" transform="translate(25.848 29.379)" fill="none" stroke="#fff" stroke-miterlimit="10" stroke-width="1.5"/>
    <line id="XMLID_234_" x2="3.881" y2="4.769" transform="translate(25.848 24.61)" fill="none" stroke="#fff" stroke-miterlimit="10" stroke-width="1.5"/>
    <line id="XMLID_236_" y1="4.769" x2="3.881" transform="translate(25.848 29.379)" fill="none" stroke="#fff" stroke-miterlimit="10" stroke-width="1.5"/>
  </g>
</svg>
