<svg xmlns="http://www.w3.org/2000/svg" width="20.211" height="12.387" viewBox="0 0 20.211 12.387">
  <g id="delivery-van" transform="translate(0 -78.736)">
    <g id="Group_89" data-name="Group 89" transform="translate(0 78.736)">
      <path id="Path_824" data-name="Path 824" d="M93.155,256.572a1.776,1.776,0,1,0,1.776,1.776A1.775,1.775,0,0,0,93.155,256.572Zm0,2.548a.772.772,0,1,1,.772-.772A.772.772,0,0,1,93.155,259.12Z" transform="translate(-86.839 -247.736)" fill="#ffffff"/>
      <path id="Path_825" data-name="Path 825" d="M281.624,256.572a1.776,1.776,0,1,0,1.776,1.776A1.775,1.775,0,0,0,281.624,256.572Zm0,2.548a.772.772,0,1,1,.772-.772A.772.772,0,0,1,281.624,259.12Z" transform="translate(-265.944 -247.736)" fill="#ffffff"/>
      <path id="Path_826" data-name="Path 826" d="M30.622,132.916a.454.454,0,0,1-.452.452H23.927a.454.454,0,0,1-.452-.452v-.271a.454.454,0,0,1,.452-.452H30.17a.454.454,0,0,1,.452.452Z" transform="translate(-22.309 -129.536)" fill="#ffffff"/>
      <path id="Path_827" data-name="Path 827" d="M62.509,84.764c-.651-.169-1.024-.276-1.279-.769l-.855-1.731a1.83,1.83,0,0,0-1.476-.9H57.73a.151.151,0,0,1-.157-.155V79.759a.938.938,0,0,0-1-1.023h-9.53c-.97,0-1.43.461-1.43,1.023v.91a.262.262,0,0,0,.262.271h5.333a.906.906,0,0,1,.9.9v.271a.906.906,0,0,1-.9.9H45.878a.24.24,0,0,0-.262.261v.313c0,.249.341.249.341.249h3.59a.906.906,0,0,1,.9.9v.271a.906.906,0,0,1-.9.9H46.014s-.4-.007-.4.309v2.2a1.026,1.026,0,0,0,1.023,1.023H47.2c.128,0,.147-.071.147-.107a2.314,2.314,0,0,1,4.628,0c0,.036-.01.107.088.107h4.561c.09,0,.087-.076.087-.107a2.314,2.314,0,0,1,4.628,0c0,.036,0,.107.056.107h1.15a1.014,1.014,0,0,0,1.011-1.011V86.523C63.561,84.9,63.05,84.9,62.509,84.764Zm-1.924-.09H57.707a.135.135,0,0,1-.135-.116v-2.4s-.007-.092.146-.092h.821a1.628,1.628,0,0,1,1.313.8l.761,1.54a1.205,1.205,0,0,0,.1.166C60.744,84.611,60.7,84.674,60.585,84.674Z" transform="translate(-43.35 -78.736)" fill="#ffffff"/>
      <path id="Path_828" data-name="Path 828" d="M6.65,191.352a.454.454,0,0,1-.452.452H.452A.454.454,0,0,1,0,191.352v-.271a.454.454,0,0,1,.452-.452H6.2a.454.454,0,0,1,.452.452Z" transform="translate(0 -185.069)" fill="#ffffff"/>
    </g>
  </g>
</svg>
