<svg xmlns="http://www.w3.org/2000/svg" width="16.541" height="16.441" viewBox="0 0 16.541 16.441">
  <g id="Timely_Payment" transform="translate(-2 -2.193)">
    <path id="Path_844" data-name="Path 844" d="M17.922,15.991v-1.27A4.74,4.74,0,0,0,15.139,10.4a4.737,4.737,0,0,0,2.783-4.314V4.818a.652.652,0,0,0,.618-.65V2.846a.656.656,0,0,0-.654-.654h-9.4a.654.654,0,0,0-.654.654V4.168a.651.651,0,0,0,.619.65V6.091a4.723,4.723,0,0,0,2.78,4.314,4.746,4.746,0,0,0-2.78,4.317v.392h-.43a.991.991,0,0,0,.12-.478A1.013,1.013,0,0,0,7.13,13.622H6.687a3.375,3.375,0,1,0-2.625,0H3.3a1.012,1.012,0,0,0-.683,1.758,1.011,1.011,0,0,0,0,1.491A1.012,1.012,0,0,0,3.3,18.63c4-.021,3.866.047,4.167-.059.238.092-.412.06,10.418.045a.656.656,0,0,0,.654-.654V16.642a.651.651,0,0,0-.619-.651Zm-10.4-5.832a.358.358,0,0,1,.36.358.356.356,0,1,1-.36-.358Zm-4.293.71a.352.352,0,0,1-.352-.352.356.356,0,1,1,.352.352Zm2.15-.128a.916.916,0,0,1-.227-1.8V8.692a.227.227,0,0,1,.454,0v.245a.918.918,0,0,1,.691.886.227.227,0,0,1-.454,0,.464.464,0,1,0-.464.464.916.916,0,0,1,.227,1.8v.245a.227.227,0,0,1-.454,0v-.245a.915.915,0,0,1-.691-.886.227.227,0,0,1,.454,0,.464.464,0,1,0,.464-.464ZM3.3,18.1a.479.479,0,0,1,0-.958H7.13a.479.479,0,1,1,0,.958Zm-.478-1.971a.479.479,0,0,1,.478-.478H7.13a.479.479,0,1,1,0,.958H3.3A.479.479,0,0,1,2.824,16.125Zm0-1.489a.479.479,0,0,1,.478-.48H7.13a.479.479,0,1,1,0,.958H3.3A.477.477,0,0,1,2.824,14.636Zm8.809,1.011a.479.479,0,0,1,0,.958H8.021a1,1,0,0,0,.123-.48.178.178,0,0,0,0-.037.951.951,0,0,0-.117-.44Zm-2.646-.926a4.2,4.2,0,0,1,3.105-4.058.267.267,0,0,0,0-.515A4.2,4.2,0,0,1,8.987,6.091V4.848h8.4V6.091a4.207,4.207,0,0,1-3.105,4.058.267.267,0,0,0,0,.515,4.2,4.2,0,0,1,3.108,4.058v1.243H12.632a1.008,1.008,0,0,0-.64-.784h4.25a.363.363,0,0,0,.363-.363A3.458,3.458,0,0,0,14.016,11.4a.58.58,0,0,1-.419-.5,7.668,7.668,0,0,1-.048-.824.714.714,0,0,1,.531-.691,3.4,3.4,0,0,0,2.049-1.566.361.361,0,0,0-.315-.542H10.561a.364.364,0,0,0-.315.547A3.6,3.6,0,0,0,12.4,9.42a.713.713,0,0,1,.528.686,7.416,7.416,0,0,1-.043.774.576.576,0,0,1-.421.494,3.468,3.468,0,0,0-2.695,3.348.423.423,0,0,0,.152.392H8.987v-.392Zm-.966,2.417h3.612a.479.479,0,0,1,0,.958H8.021a1,1,0,0,0,.123-.48A.992.992,0,0,0,8.021,17.139Z" transform="translate(0)" fill="#ffffff"/>
  </g>
</svg>
