<svg xmlns="http://www.w3.org/2000/svg" width="12.078" height="15.856" viewBox="0 0 12.078 15.856">
  <g id="google-forms_1_" data-name="google-forms (1)" transform="translate(-61)">
    <path id="Path_849" data-name="Path 849" d="M331.465,12.233h2.979L331,8.789v2.979A.465.465,0,0,0,331.465,12.233Z" transform="translate(-261.639 -8.517)" fill="#ffffff"/>
    <path id="Path_850" data-name="Path 850" d="M62.394,15.856h9.29a1.4,1.4,0,0,0,1.394-1.394V4.645H69.826a1.4,1.4,0,0,1-1.394-1.394V0H62.394A1.4,1.4,0,0,0,61,1.394V14.462A1.4,1.4,0,0,0,62.394,15.856Zm2.787-8.392h4.645a.465.465,0,0,1,0,.929H65.181a.465.465,0,0,1,0-.929Zm0,1.858h4.645a.465.465,0,0,1,0,.929H65.181a.465.465,0,0,1,0-.929Zm0,1.858h4.645a.465.465,0,0,1,0,.929H65.181a.465.465,0,0,1,0-.929ZM63.323,7.463a.465.465,0,1,1-.465.465A.465.465,0,0,1,63.323,7.463Zm0,1.858a.465.465,0,1,1-.465.465A.465.465,0,0,1,63.323,9.321Zm0,1.858a.465.465,0,1,1-.465.465A.465.465,0,0,1,63.323,11.18Z" fill="#ffffff"/>
  </g>
</svg>
