<svg xmlns="http://www.w3.org/2000/svg" width="15.776" height="13.276" viewBox="0 0 15.776 13.276">
  <g id="multiple-users-silhouette" transform="translate(0 -6.348)">
    <path id="Path_848" data-name="Path 848" d="M9.52,8.627a2.867,2.867,0,0,1,1.334,2.13A2.313,2.313,0,1,0,9.52,8.627ZM8,13.364A2.314,2.314,0,1,0,5.69,11.05,2.314,2.314,0,0,0,8,13.364Zm.981.158H7.022A2.966,2.966,0,0,0,4.06,16.484v2.4l.006.038.165.052a13.485,13.485,0,0,0,4.028.65,8.269,8.269,0,0,0,3.517-.66l.155-.078h.017v-2.4A2.965,2.965,0,0,0,8.986,13.522Zm3.828-2.389H10.866a2.851,2.851,0,0,1-.88,1.986A3.52,3.52,0,0,1,12.5,16.488v.74a7.972,7.972,0,0,0,3.1-.652l.155-.078h.017V14.1A2.966,2.966,0,0,0,12.814,11.133Zm-8.869-.158a2.3,2.3,0,0,0,1.23-.357A2.863,2.863,0,0,1,6.251,8.792c0-.043.006-.086.006-.13a2.314,2.314,0,1,0-2.313,2.313Zm2.078,2.144a2.853,2.853,0,0,1-.879-1.975c-.072-.005-.144-.011-.217-.011H2.962A2.966,2.966,0,0,0,0,14.1v2.4l.006.037.165.052a13.89,13.89,0,0,0,3.336.627v-.725A3.521,3.521,0,0,1,6.022,13.119Z" fill="#1c1c1c"/>
  </g>
</svg>
