<svg xmlns="http://www.w3.org/2000/svg" width="14.416" height="14.416" viewBox="0 0 14.416 14.416">
  <g id="logout_2_" data-name="logout (2)" transform="translate(0 -0.004)">
    <path id="Path_855" data-name="Path 855" d="M9.01,7.812a.6.6,0,0,0-.6.6v2.4a.6.6,0,0,1-.6.6h-1.8V2.406a1.211,1.211,0,0,0-.818-1.142l-.178-.06h2.8a.6.6,0,0,1,.6.6v1.8a.6.6,0,0,0,1.2,0v-1.8A1.8,1.8,0,0,0,7.808,0H1.351a.472.472,0,0,0-.064.013C1.258.015,1.231,0,1.2,0A1.2,1.2,0,0,0,0,1.205V12.017a1.211,1.211,0,0,0,.818,1.142l3.615,1.2a1.244,1.244,0,0,0,.372.056,1.2,1.2,0,0,0,1.2-1.2v-.6h1.8a1.8,1.8,0,0,0,1.8-1.8v-2.4a.6.6,0,0,0-.6-.6Zm0,0" transform="translate(0)" fill="#e33232"/>
    <path id="Path_856" data-name="Path 856" d="M283.763,109.244l-2.4-2.4a.6.6,0,0,0-1.025.425v1.8h-2.4a.6.6,0,1,0,0,1.2h2.4v1.8a.6.6,0,0,0,1.025.425l2.4-2.4A.6.6,0,0,0,283.763,109.244Zm0,0" transform="translate(-269.524 -103.659)" fill="#e33232"/>
  </g>
</svg>
