<svg xmlns="http://www.w3.org/2000/svg" width="18.114" height="17.063" viewBox="0 0 18.114 17.063">
  <g id="diploma" transform="translate(-3.973 -5.64)">
    <path id="Path_917" data-name="Path 917" d="M39.963,12.683l1.375-1.294a.369.369,0,0,0,0-.527L39.31,8.922,38.343,8a1.268,1.268,0,0,0-.107.162c-.705,1.5.178,3.018,1.413,4.247C39.753,12.505,39.856,12.6,39.963,12.683Z" transform="translate(-23.012 -1.597)" fill="#fff"/>
    <path id="Path_918" data-name="Path 918" d="M45.172,7.2C43.623,5.756,41.666,5.245,40.55,5.96l2.969,2.824a1.016,1.016,0,0,1,0,1.465l-1.294,1.235C46.271,14.117,48.607,10.433,45.172,7.2Z" transform="translate(-24.747)" fill="#fff"/>
    <path id="Path_919" data-name="Path 919" d="M32.335,15.9a5.523,5.523,0,0,1-1.856-3.438,31.741,31.741,0,0,1-2.649,3.234,5.612,5.612,0,0,0,.323.611,7.377,7.377,0,0,0,4.069,3.558l.346.217c4.91-4.211,3.441-.944-.233-4.182Z" transform="translate(-16.141 -4.614)" fill="#fff"/>
    <path id="Path_920" data-name="Path 920" d="M13.665,32.7A7.942,7.942,0,0,1,9.9,29.212C9.777,29,9.67,28.8,9.58,28.63A31.861,31.861,0,0,1,4.5,32.22a1,1,0,0,0-.514.825,4.8,4.8,0,0,0,1.42,3.71,5.5,5.5,0,0,0,3.881,1.491,1.132,1.132,0,0,0,1.064-.44,32.666,32.666,0,0,1,3.881-4.748l-.168-.181c-.116-.058-.252-.113-.395-.175Z" transform="translate(0 -15.555)" fill="#fff"/>
    <path id="Path_921" data-name="Path 921" d="M28.51,28.2a7.762,7.762,0,0,1-4.2-3.639c-.126-.217-.236-.417-.323-.592-.2.207-.411.411-.618.6a6.754,6.754,0,0,1-.5.462,6.426,6.426,0,0,0,.323.589,9.515,9.515,0,0,0,1.439,1.941,7,7,0,0,0,2.487,1.556.385.385,0,0,1,.168.12L28.4,30.448l.171-1.067a.323.323,0,0,1,.268-.268l.886-.142-1.21-.763Z" transform="translate(-12.779 -12.402)" fill="#fff"/>
  </g>
</svg>
