<svg xmlns="http://www.w3.org/2000/svg" width="19.712" height="17.063" viewBox="0 0 19.712 17.063">
  <g id="master" transform="translate(-2 -6.163)">
    <path id="Path_911" data-name="Path 911" d="M58.382,44.57c-.588,0-1.062,1.062-1.062,2.369s.477,2.369,1.062,2.369,1.062-1.059,1.062-2.369S58.967,44.57,58.382,44.57Z" transform="translate(-37.732 -26.196)" fill="#fff"/>
    <path id="Path_912" data-name="Path 912" d="M26,44.21a2.483,2.483,0,1,0,2.483,2.483A2.484,2.484,0,0,0,26,44.21Zm1.122,2.063-1.288,1.288a.312.312,0,0,1-.226.092.326.326,0,0,1-.226-.092l-.506-.506a.317.317,0,1,1,.448-.448l.283.283,1.065-1.065a.317.317,0,0,1,.448.448Z" transform="translate(-14.678 -25.951)" fill="#fff"/>
    <path id="Path_913" data-name="Path 913" d="M16,17.624c.073,0,.143.006.213.01V6.481C13.756,5.193,11.3,8.36,8.85,6.671V17.939a44.506,44.506,0,0,0,4.947.6A3.11,3.11,0,0,1,16,17.624Zm-.6-1.669a3,3,0,0,0-1.1.013.35.35,0,0,1-.057.006.314.314,0,0,1-.312-.264.319.319,0,0,1,.258-.369,3.635,3.635,0,0,1,1.335-.013.319.319,0,1,1-.121.626Zm0-2.213a3.022,3.022,0,0,0-1.106.013.354.354,0,0,1-.054.006.314.314,0,0,1-.312-.264.319.319,0,0,1,.258-.369,3.631,3.631,0,0,1,1.335-.01.317.317,0,1,1-.121.623Zm-5.408-4.9a5.163,5.163,0,0,0,2.6-.445,5.732,5.732,0,0,1,2.931-.467.317.317,0,1,1-.121.623,5.181,5.181,0,0,0-2.6.445,7.3,7.3,0,0,1-2.315.525,3.043,3.043,0,0,1-.607-.057.317.317,0,0,1,.118-.623Zm-.372,2.846a.316.316,0,0,1,.372-.251,5.2,5.2,0,0,0,2.6-.445,5.732,5.732,0,0,1,2.931-.467.317.317,0,1,1-.121.623,5.181,5.181,0,0,0-2.6.445,7.3,7.3,0,0,1-2.315.525,3.043,3.043,0,0,1-.607-.057A.32.32,0,0,1,9.613,11.691Zm3.542,4.254a6.692,6.692,0,0,1-3.23.614V14.381a6.692,6.692,0,0,0,3.23-.614Z" transform="translate(-4.672 -0.001)" fill="#fff"/>
    <path id="Path_914" data-name="Path 914" d="M34,6.48V17.748a3.14,3.14,0,0,1,1.4.843,44.11,44.11,0,0,0,5.961-.655V6.668C38.906,8.356,36.451,5.192,34,6.48Zm.7,6.635a5.727,5.727,0,0,1,2.931.467,5.187,5.187,0,0,0,2.6.445.317.317,0,1,1,.121.623,3.3,3.3,0,0,1-.607.057,7.177,7.177,0,0,1-2.315-.525,5.216,5.216,0,0,0-2.6-.445.318.318,0,0,1-.124-.623ZM34.445,10.9a.318.318,0,0,1,.251-.372,5.727,5.727,0,0,1,2.931.467,5.187,5.187,0,0,0,2.6.445.317.317,0,1,1,.121.623,3.3,3.3,0,0,1-.607.057,7.177,7.177,0,0,1-2.315-.525,5.181,5.181,0,0,0-2.6-.445.32.32,0,0,1-.375-.251Zm5.9,6.346a3.272,3.272,0,0,1-.607.057,7.318,7.318,0,0,1-2.321-.525,5.175,5.175,0,0,0-2.6-.445.319.319,0,0,1-.118-.626,5.744,5.744,0,0,1,2.925.471,5.17,5.17,0,0,0,2.6.445.317.317,0,0,1,.121.623ZM40.6,9.1a.318.318,0,0,1-.251.372,3.3,3.3,0,0,1-.607.057A7.177,7.177,0,0,1,37.424,9a5.216,5.216,0,0,0-2.6-.445.317.317,0,1,1-.121-.623,5.727,5.727,0,0,1,2.931.467,5.187,5.187,0,0,0,2.6.445A.314.314,0,0,1,40.6,9.1Z" transform="translate(-21.826 0)" fill="#fff"/>
    <path id="Path_915" data-name="Path 915" d="M8.654,45.333a43.774,43.774,0,0,1-5.4-.722.534.534,0,0,0-.2-.041C2.477,44.57,2,45.632,2,46.939s.477,2.369,1.062,2.369a.492.492,0,0,0,.165-.032,44.43,44.43,0,0,1,5.43-.728A3.091,3.091,0,0,1,8.2,46.935,3.132,3.132,0,0,1,8.654,45.333Z" transform="translate(0 -26.196)" fill="#fff"/>
    <path id="Path_916" data-name="Path 916" d="M45.232,45.28a44.148,44.148,0,0,1-5.389.6,3.087,3.087,0,0,1,0,3.081,44.251,44.251,0,0,1,5.4.6,5.075,5.075,0,0,1,0-4.289Z" transform="translate(-25.809 -26.68)" fill="#fff"/>
  </g>
</svg>
