<svg xmlns="http://www.w3.org/2000/svg" width="14.212" height="14.143" viewBox="0 0 14.212 14.143">
  <path id="box" d="M8.906,9.435a3.383,3.383,0,0,0,.608.189v7.517a2.084,2.084,0,0,1-.371-.134L4.405,14.9A2.369,2.369,0,0,1,3,12.735V7.476a2.333,2.333,0,0,1,.087-.624Zm3.427-1.761L5.9,4.65l-1.492.663a2.3,2.3,0,0,0-.719.5L9.38,8.345a1.791,1.791,0,0,0,1.453,0ZM16.525,5.81a2.3,2.3,0,0,0-.719-.5L11.069,3.2a2.342,2.342,0,0,0-1.927,0L7.335,4.01,13.77,7.034Zm.6,1.042L14.354,8.084v1.934a.592.592,0,1,1-1.184,0V8.605l-1.863.829a4.165,4.165,0,0,1-.608.189v7.517a2.084,2.084,0,0,0,.371-.134L15.807,14.9a2.369,2.369,0,0,0,1.405-2.163V7.476a2.333,2.333,0,0,0-.087-.624Z" transform="translate(-3 -2.997)" fill="#ffffff"/>
</svg>
