<svg xmlns="http://www.w3.org/2000/svg" width="11.279" height="15.382" viewBox="0 0 11.279 15.382">
  <g id="pin_1_" data-name="pin (1)" transform="translate(-5 -0.998)">
    <path id="Path_816" data-name="Path 816" d="M9.813,11.478c.029.036.057.077.095.133.223.3.44.592.654.9l.41.579a.513.513,0,0,0,.837,0l.6-.844c.15-.21.305-.419.479-.643.027-.039.054-.075.1-.127.6-.777,1.239-1.517,2.021-2.391a4.85,4.85,0,1,0-7.092.143,22.938,22.938,0,0,1,1.9,2.252Zm1.578-7.659A2.125,2.125,0,1,1,9.268,5.942,2.125,2.125,0,0,1,11.391,3.819Z" transform="translate(-0.751 0)" fill="#ffffff"/>
    <path id="Path_817" data-name="Path 817" d="M14.957,10.7a1.1,1.1,0,1,0-1.1-1.1,1.1,1.1,0,0,0,1.1,1.1Z" transform="translate(-4.318 -3.656)" fill="#ffffff"/>
    <path id="Path_818" data-name="Path 818" d="M13.774,20.874c-.256.3-.5.6-.73.9-.031.041-.1.132-.1.132-.165.212-.312.41-.454.61l-.6.841a1.538,1.538,0,0,1-2.51,0l-.41-.579c-.205-.294-.41-.571-.62-.852,0,0-.084-.12-.1-.142-.248-.33-.488-.632-.726-.923C5.964,21.363,5,22.226,5,23.242c0,1.608,2.425,2.82,5.64,2.82s5.64-1.212,5.64-2.82c0-1.012-.955-1.871-2.505-2.368Z" transform="translate(0 -9.682)" fill="#ffffff"/>
  </g>
</svg>
