<svg xmlns="http://www.w3.org/2000/svg" width="12.518" height="16.433" viewBox="0 0 12.518 16.433">
  <g id="report_2_" data-name="report (2)" transform="translate(-61)">
    <path id="Path_853" data-name="Path 853" d="M61,.481V13.063a.481.481,0,0,0,.481.481h8.666a.481.481,0,0,0,.481-.481V.481A.481.481,0,0,0,70.147,0H61.481A.481.481,0,0,0,61,.481Zm7.7,10.624H66.777a.481.481,0,1,1,0-.963H68.7a.481.481,0,0,1,0,.963ZM62.926,2.439h2.889a.481.481,0,0,1,0,.963H62.926a.481.481,0,0,1,0-.963Zm0,1.926H68.7a.481.481,0,0,1,0,.963H62.926a.481.481,0,0,1,0-.963Zm0,1.926H68.7a.481.481,0,0,1,0,.963H62.926a.481.481,0,0,1,0-.963Zm0,1.926H68.7a.481.481,0,0,1,0,.963H62.926a.481.481,0,0,1,0-.963Z" transform="translate(0)" fill="#1c1c1c"/>
    <path id="Path_854" data-name="Path 854" d="M151.481,104.513h8.666a.481.481,0,0,0,.481-.481V91.481a.481.481,0,0,0-.481-.481H158.7v10.142a1.446,1.446,0,0,1-1.444,1.444H151v1.444A.481.481,0,0,0,151.481,104.513Z" transform="translate(-87.111 -88.079)" fill="#1c1c1c"/>
  </g>
</svg>
