<svg xmlns="http://www.w3.org/2000/svg" width="16.447" height="16.447" viewBox="0 0 16.447 16.447">
  <g id="store" transform="translate(-5 -5)">
    <path id="Path_829" data-name="Path 829" d="M13.743,27.063h.338a.742.742,0,0,0,.741-.741v-.577H13v.577A.742.742,0,0,0,13.743,27.063Z" transform="translate(-5.563 -14.427)" fill="#ffffff"/>
    <path id="Path_830" data-name="Path 830" d="M37.755,27.063h.339a.742.742,0,0,0,.741-.741v-.577H37.014v.577a.742.742,0,0,0,.741.741Z" transform="translate(-22.263 -14.427)" fill="#ffffff"/>
    <path id="Path_831" data-name="Path 831" d="M21.748,27.063h.339a.742.742,0,0,0,.741-.741v-.577H21.007v.577A.742.742,0,0,0,21.748,27.063Z" transform="translate(-11.132 -14.427)" fill="#ffffff"/>
    <path id="Path_832" data-name="Path 832" d="M29.751,27.063h.339a.742.742,0,0,0,.741-.741v-.577H29.01v.577a.742.742,0,0,0,.741.741Z" transform="translate(-16.697 -14.427)" fill="#ffffff"/>
    <path id="Path_833" data-name="Path 833" d="M20.375,11.4H6.593L5.375,15.162H21.594Z" transform="translate(-0.261 -4.453)" fill="#ffffff"/>
    <path id="Path_834" data-name="Path 834" d="M9.647,5H23.263V6.341H9.647Z" transform="translate(-3.232)" fill="#ffffff"/>
    <path id="Path_835" data-name="Path 835" d="M45.76,27.063H46.1a.742.742,0,0,0,.743-.741v-.577H45.02v.577A.742.742,0,0,0,45.76,27.063Z" transform="translate(-27.831 -14.427)" fill="#ffffff"/>
    <path id="Path_836" data-name="Path 836" d="M23.437,30.393a1.342,1.342,0,0,1-1.05.511h-.338A1.342,1.342,0,0,1,21,30.393a1.343,1.343,0,0,1-1.05.511h-.339a1.342,1.342,0,0,1-1.05-.511,1.342,1.342,0,0,1-1.05.511h-.338a1.342,1.342,0,0,1-1.049-.511,1.342,1.342,0,0,1-1.049.511h-.339a1.343,1.343,0,0,1-1.048-.511,1.342,1.342,0,0,1-1.05.511H12.3a1.342,1.342,0,0,1-1.05-.511,1.39,1.39,0,0,1-.325.3v8.418H12.44V32.471a.3.3,0,0,1,.3-.3h3.537a.3.3,0,0,1,.3.3v6.635h7.176V30.688a1.39,1.39,0,0,1-.325-.3Zm-1.19,5.576a.3.3,0,0,1-.3.3H18.405a.3.3,0,0,1-.3-.3V32.43a.3.3,0,0,1,.3-.3h3.537a.3.3,0,0,1,.3.3Z" transform="translate(-4.12 -17.659)" fill="#ffffff"/>
    <path id="Path_837" data-name="Path 837" d="M53.02,25.745v.577a.742.742,0,0,0,.741.741H54.1a.742.742,0,0,0,.741-.741v-.577Z" transform="translate(-33.394 -14.427)" fill="#ffffff"/>
    <path id="Path_838" data-name="Path 838" d="M17.9,38.215h2.93v6.331H17.9Z" transform="translate(-8.968 -23.099)" fill="#ffffff"/>
    <path id="Path_839" data-name="Path 839" d="M6.821,25.745H5v.577a.742.742,0,0,0,.741.741H6.08a.742.742,0,0,0,.741-.741Z" transform="translate(0 -14.427)" fill="#ffffff"/>
    <path id="Path_840" data-name="Path 840" d="M36.486,38.08h2.93v2.929h-2.93Z" transform="translate(-21.896 -23.005)" fill="#ffffff"/>
  </g>
</svg>
